<?xml version="1.0" encoding="utf-8"?>
<!-- Generator: Adobe Illustrator 23.0.1, SVG Export Plug-In . SVG Version: 6.00 Build 0)  -->
<svg version="1.1" id="Layer_1" xmlns="http://www.w3.org/2000/svg" xmlns:xlink="http://www.w3.org/1999/xlink" x="0px" y="0px"
	 viewBox="0 0 2499.9 2499.9" style="enable-background:new 0 0 2499.9 2499.9;" xml:space="preserve">
<g id="Layer_1-2">
	<g>
		<defs>
			<path id="SVGID_1_" d="M1249.9,225.2c333.8,0,373.3,1.3,505.1,7.3c121.9,5.6,188.1,25.9,232.1,43c58.4,22.7,100,49.7,143.7,93.5
				c43.7,43.7,70.8,85.4,93.5,143.7c17.1,44,37.5,110.2,43,232.1c6,131.8,7.3,171.3,7.3,505.1s-1.3,373.3-7.3,505.1
				c-5.6,121.9-25.9,188.1-43,232.1c-22.7,58.4-49.7,100-93.5,143.7c-43.7,43.7-85.4,70.8-143.7,93.5c-44,17.1-110.2,37.5-232.1,43
				c-131.8,6-171.3,7.3-505.1,7.3s-373.3-1.3-505.1-7.3c-121.9-5.6-188.1-25.9-232.1-43c-58.4-22.7-100-49.8-143.7-93.5
				c-43.7-43.7-70.8-85.4-93.5-143.7c-17.1-44-37.5-110.2-43-232.1c-6-131.8-7.3-171.3-7.3-505.1s1.3-373.3,7.3-505.1
				c5.6-121.9,25.9-188.1,43-232.1c22.7-58.4,49.7-100,93.5-143.7c43.7-43.7,85.4-70.8,143.7-93.5c44-17.1,110.2-37.5,232.1-43
				C876.6,226.5,916.2,225.2,1249.9,225.2L1249.9,225.2z M1249.9,0c-339.5,0-382,1.5-515.3,7.5c-133.1,6.1-223.9,27.2-303.4,58.1
				c-82.2,32-151.9,74.7-221.4,144.2C140.3,279.3,97.5,349,65.6,431.2c-30.9,79.5-52,170.4-58.1,303.4C1.5,867.9,0,910.5,0,1249.9
				s1.5,382,7.5,515.3c6.1,133.1,27.2,223.9,58.1,303.4c32,82.2,74.7,151.9,144.2,221.4c69.5,69.5,139.2,112.2,221.4,144.2
				c79.5,30.9,170.4,52.1,303.4,58.1c133.3,6.1,175.9,7.5,515.3,7.5s382-1.4,515.3-7.5c133.1-6.1,223.9-27.2,303.4-58.1
				c82.2-32,151.9-74.7,221.4-144.2c69.5-69.5,112.2-139.2,144.2-221.4c30.9-79.5,52.1-170.4,58.1-303.4
				c6.1-133.3,7.5-175.9,7.5-515.3s-1.4-382-7.5-515.3c-6.1-133.1-27.2-223.9-58.1-303.4c-32-82.2-74.7-151.9-144.2-221.4
				c-69.5-69.5-139.2-112.2-221.4-144.2c-79.5-30.9-170.4-52-303.4-58.1C1632,1.5,1589.4,0,1249.9,0z M1249.9,608.1
				c-354.5,0-641.8,287.4-641.8,641.8s287.4,641.8,641.8,641.8s641.8-287.4,641.8-641.8S1604.4,608.1,1249.9,608.1z M1249.9,1666.6
				c-230.1,0-416.7-186.5-416.7-416.7s186.6-416.7,416.7-416.7s416.7,186.5,416.7,416.7S1480,1666.6,1249.9,1666.6z M1917.1,432.7
				c-82.9,0-150,67.1-150,150s67.1,150,150,150s150-67.1,150-150S2000,432.7,1917.1,432.7L1917.1,432.7z"/>
		</defs>
		<use xlink:href="#SVGID_1_"  style="overflow:visible;fill:#FFFFFF;"/>
		<clipPath id="SVGID_2_">
			<use xlink:href="#SVGID_1_"  style="overflow:visible;"/>
		</clipPath>
	</g>
</g>
</svg>
