<?xml version="1.0" encoding="utf-8"?>
<!-- Generator: Adobe Illustrator 23.0.1, SVG Export Plug-In . SVG Version: 6.00 Build 0)  -->
<svg version="1.1" id="Layer_1" xmlns="http://www.w3.org/2000/svg" xmlns:xlink="http://www.w3.org/1999/xlink" x="0px" y="0px"
	 viewBox="0 0 300 300" style="enable-background:new 0 0 300 300;" xml:space="preserve">
<style type="text/css">
	.st0{fill:none;}
	.st1{fill:#FFFFFF;}
</style>
<g transform="scale(.75)">
	<path class="st0" d="M0,0h400v400H0V0z"/>
	<path class="st1" d="M199.9,60c0,0-125,0-156.4,8.2c-16.8,4.7-30.6,18.5-35.3,35.6C0,135.1,0,200.1,0,200.1s0,65.2,8.2,96.1
		c4.7,17,18.3,30.6,35.3,35.3c31.6,8.4,156.4,8.4,156.4,8.4s125.3,0,156.6-8.2c17-4.7,30.6-18,35.1-35.3c8.4-31.1,8.4-96.1,8.4-96.1
		s0.2-65.2-8.4-96.6c-4.4-17-18-30.6-35.1-35.1C325.1,60,199.9,60,199.9,60L199.9,60z M160.1,140.1l104,60l-104,59.8V140.1z"/>
</g>
</svg>
