<svg viewBox="0 0 524.01 524.01" xmlns="http://www.w3.org/2000/svg" id="Layer_1"><title>bizybees-ai</title><path style="fill:#9f703f" d="M118.07,281.17c2.59-.95,5.34-.2,8.33-.67-6.69-6.19-12.12-13.13-17.86-19.79-4.06-4.7-7.15-10.09-10.47-15.32a4,4,0,0,0-2.19-2c-10-3-19-8.31-28.4-12.82-3-1.47-6.06-3-9.08-4.53,0-1.13-.83-1.57-1.73-1.87a16.74,16.74,0,0,0-6-1.3c-3.19-3.09-7.43-4.43-11.14-6.64l-1.69-1a1.1,1.1,0,0,1,.49-1c2.5.94,5,1.93,7.52,2.8.8.27,1.65.94,2.56.18,1.4,0,1.93,1.63,3.29,1.66,5.13,3.13,10.7,5.34,16.22,7.64,7.34,3,14.73,5.94,22.11,8.88a3.45,3.45,0,0,0,2.33.45c-2.38-4.56-5.92-8.27-8-12.85,0-3.28-2.53-5.27-4.06-7.76a1.09,1.09,0,0,0,0-1.2c-4.65-5.89-7.44-12.69-10.44-19.4a22.17,22.17,0,0,0-1.41-2.4v-.59a1.62,1.62,0,0,1,0-.44l1.47-.48c3.13,4.84,5.75,10,9.15,14.68.72,2.48.73,5.41,4,6.21,11.68,17.18,23,34.63,38.39,49.34a100.49,100.49,0,0,1,4-27.4c2,.28,2.34-1.09,2.73-2.59.65-2.54.11-5,0-7.56,1.3-.16,1.12-1.37,1.41-2.13a144.34,144.34,0,0,1,6.89-16.33c.56,0,1.12.06,1.41.67-.31,1.22-.57,2.47-.92,3.68-2.6,9-5.48,17.82-7.33,27-3.81,2.63-2.61,7.32-4.61,10.73l2.09,2a103.05,103.05,0,0,0,.54,16.57,5.67,5.67,0,0,0,2.21,4.38,134,134,0,0,0,14.88,9.85c14.53,8,27.81,17.75,39,30.12q3,3.29,5.93,6.55c-3.56-25.12-5.29-50.13-2.16-75A221.6,221.6,0,0,1,162.2,218.7c-.86-.89-1.46-2.13-2.86-2.38a6.57,6.57,0,0,0-4.16-5.14Q151,205,146.67,199a1.42,1.42,0,0,0-1.9-.64l-.05,0A34.16,34.16,0,0,0,137,186.15c-.91-1.66-1.22-3.71-3.08-4.74-.23-1.31-1.65-2.09-1.57-3.53-1-4.7-3.2-8.92-4.94-13.33-.09-.23-.15-.47-.22-.71.48-1,1.44-.59,2.2-.75,3.24,4.34,5.7,9.17,8.56,13.76.13,2.64.37,5.22,3.24,6.71h2.38c2.27,3.13,4.53,6.26,6.81,9.38.37.51.53,1.29,1.38,1.32q.78,2.43,1.58,4.89a9.07,9.07,0,0,0,3.48.26c2.83,3.58,5.65,7.17,8.5,10.75.34.44.5,1.14,1.28,1.05v6.11c1.86,2.63,4.11,2.92,6.69,2a62,62,0,0,0,15.85,9.55c2.2-16.17,5.42-31.88,11-47A171.79,171.79,0,0,1,181.36,155a8.09,8.09,0,0,0,3.86-3.58c-2.19-3.25-4.45-6.45-8.93-6.93.72-.74,0-1.36-.19-2-1.56-4.68-3.48-9.27-3.81-14.28a4.43,4.43,0,0,0,.78-2.71c-.07-3.32-1.34-6.13-2.86-8.91a51.84,51.84,0,0,1-.2-13.91h2.11a225.24,225.24,0,0,0,5.32,27,9.54,9.54,0,0,0,.49,1.14c-.69,3.11-.93,6.18.84,9.22h3a86.45,86.45,0,0,0,13.09,25.36,80.54,80.54,0,0,0,8.42,9.84A235.6,235.6,0,0,1,223.67,138,148.25,148.25,0,0,1,215,114.3c-1.2-4.58-2.62-9.11-3-13.86a9.06,9.06,0,0,0,.64-2.67c.47-2.69-1.32-4.6-2.15-6.84a93.61,93.61,0,0,1-1-17.22,5.08,5.08,0,0,0-.12-2.51,2.27,2.27,0,0,0,2.12-1.46c1.8-3.12,1-6.33.49-9.55a44.51,44.51,0,0,1,2.71-13.64,1.14,1.14,0,0,0,1.09-.56h.78c.5.64,1.23.49,1.9.57-1.93,9.8-3.76,19.62-3.84,29.67a22.76,22.76,0,0,0-2.94,9.35,12.37,12.37,0,0,0,1.66.64,12.84,12.84,0,0,0,1.75.2c0,6.41,1.58,12.56,3.14,18.69a124,124,0,0,0,8.67,23.76c.36.73.53,1.61,1.51,2.1a213.38,213.38,0,0,1,22-25.66l4.06,1.58c2.89-3.46,4.76-7.19,4.57-11.73l9.37-9.78,6,2.56c-.82,2.1-3.12,3.24-3.6,5.56-3.7,1.23-6.39,3.78-8.68,6.31-.12,1.33.71,1.73,1,2.42l-11.84,13.68c-.37.43-.94.78-.7,1.5a10.11,10.11,0,0,0-5.37,3.74c-1.18-.16-1.84.65-2.6,1.34-5.86,5.33-9.73,12.15-14,18.67-1.6,2.45-2.85,5.14-4.58,8.32,2.51-1,2.57-2.89,3.46-4.14,4.65-6.57,9.17-13.22,13.8-19.81.8-1.14,1.62-2.48,3.39-2.31a2.61,2.61,0,0,1,.53,1.74,152.79,152.79,0,0,0-15.06,26.7c-2.34,5.74-4.34,11.64-6.34,17.66a117.76,117.76,0,0,0,21.51-2.22,7,7,0,0,0,2.63,2.58c3.21-.52,4.74-1.82,6.63-5.6l15.11-5.67c1-.07,1.57.93,2.6,1.06,1.78-.73,4.22-.74,4.34-3.62,4.1-.95,7.72-3.15,11.64-4.55,4.08,1.71,6.23.71,7.54-3.48.29,1.3.74.33,1.12.07a98.61,98.61,0,0,1,13.74-8l1.71,2.06c-3.19,3-6.78,5.52-10.21,8.22-1.19,1.36-4,.68-4.21,3.24-2.57.59-4.61,2.29-6.91,3.43-1.85.92-3.57,2.1-5.35,3.16a28.45,28.45,0,0,0-8.66,3.08l-14.23,5.65a4,4,0,0,0-4.23,2.08,25.61,25.61,0,0,0-7.67,2.13c-8.55,3.37-17.56,4.75-26.49,6.52-1.23.25-2.48.45-3.72.67-3.68,9.85-10,61.9-8.6,71.06l5.4-5.11a133.51,133.51,0,0,1,13.26-11.54c.24-.18.34-.56.51-.85.4.63.79,1.26,1.21,1.91h2.73c2-1.27,3.08-3.22,4.45-4.92.06-.78.11-1.53.17-2.29a92,92,0,0,1,12.84-6.87c.84-.34,1.61-1,2.61-.74,2.24,1.17,4.31.46,6.24-.7,1.63-1,3.12-2.19,4.68-3.31l13.86-2.13.09,2.09a257.29,257.29,0,0,0-25.46,8.73l-1.13.52c-1.56.34-3.12.69-4.68,1-2,.4-3.24,1.41-3.06,3.63-7.65,4.06-14.18,9.55-20.3,15.6a164.37,164.37,0,0,0-13.89,14.89c-.09,7.86.63,15.86,1.24,24.62a96,96,0,0,1,8.13-7.36c15.3-12.12,32.45-20.88,50.6-27.82,7.89-3,15.89-5.77,23.72-8.93,16.33-6.59,28.15-18.29,37.11-33.19a213.83,213.83,0,0,0,18.74-39.65,7.86,7.86,0,0,1,.55-1.13,8.65,8.65,0,0,0,2.68-4.09c1.19-2.87.76-5.82.93-8.75,1.81-3.81,1.69-8,2.44-12,.36-1.9.46-3.86.68-5.79l2.94.5c.36,2.9-.54,5.73-.45,8.61,0,.59-.47,1.38.45,1.76L360,149.73c-.11,2.68-.87,5.14-.59,7.68a155.52,155.52,0,0,1-10.91,34,219.76,219.76,0,0,1,20.6-7.84c.74.83,1.69.61,2.57.45a12,12,0,0,0,6.17-3,6.19,6.19,0,0,0,3.2-.56c5.12-1.53,10.46-1.63,15.69-2.47v1.46a128.75,128.75,0,0,0-13.79,3.6c-1.51.7-3.47.11-4.69,1.63-4.91.71-9.3,3-13.78,4.88a115.5,115.5,0,0,0-19.39,11c-2,1.36-2.9,3.7-4.11,5.71-4.38,7.35-8.79,14.69-14.14,21.39A75,75,0,0,1,301.08,248c-3,1.5-6.06,3-9.46,4.63l18.15,5.54c1.34,2.08,3.65,1.53,5.56,2.07,5.9,2.4,12,4.37,17.75,7.07A9.32,9.32,0,0,1,336,268.8a3,3,0,0,1-1.84,1.75c-1.72-.58-3.29-1.64-5.19-1.65-1.5-1.44-3.47-1.86-5.35-2.46a56.38,56.38,0,0,0-9.13-3.09c-.47-1.1-1.54-.84-2.4-1.09a135.69,135.69,0,0,0-26.67-4.88,6.56,6.56,0,0,0-3.36,1c-16.26,8-31.56,17.32-43.86,30.91-8.58,9.48-14.7,20.27-17.16,32.94-.79,4.07-.15,8.15.5,12.17q2.9,17.79,6,35.55c2,11.67,4.23,23.31,6.26,35q2.86,16.51,5.52,33.06,2.07,12.78,4,25.6c.69,4.78,1.18,9.6,1.76,14.39q-1.26,3-2.5,6.09c-.86-2.33-1.72-4.45-1.73-6.75,0-.71.23-1.62-.94-1.72-1.09-10.77-2-21.56-3.82-32.26a14.91,14.91,0,0,0-.22,4.47c1,7.62,1.51,15.28,1.94,22.95.06,1.09-.13,2.21.52,3.21-1.92,2.49-1.63,5.79-3.16,9.14-1.63-4.07-2-7.76-2.45-11.46-1.84,3.38-1.47,7-1.6,10.51a2.9,2.9,0,0,1-2.15.8c-1.44-2.4-.09-5.5-1.87-8-1.61,1.42-.79,3.42-1.87,4.68-.94-.72-.41-1.85-1-2.65-1.18,1.78-.58,3.81-1,5.91-.83-2.28-.74-4.6-1.87-6.92-.71,1.16-.49,2.42-1.54,3.19a17.29,17.29,0,0,0-1.63-8.41c-1.56,4.51-2,8.76-2.88,13-.06-1.09-.12-2.17-.17-3.21-.63-.74-1-1.69-2.17-1.63-.5.84-.25,2.14-1.58,2.45a5.83,5.83,0,0,1-.8-2.88c0-1.3-1.12-1.77-1.62-2.15-.66-1.21,0-2.36-1-3.21-1.55,1.8-1,4.3-2.38,6.2-.3-1.46.18-2.85-.63-4.51-2.4,3.22-1.55,6.92-2.44,10.1l-.63-.13v-10.7c5.07-11.79,7.07-24.22,8.08-36.94.44-5.4-3-35.12-5.59-37.88.93,12.68,3.67,24.69,3.14,36.95A105.81,105.81,0,0,1,200.07,472c-1.09-.49-1.85-1.29-2.8-.5-.48-.12-.49-1-1.24-.78-2.46,3.26-3.6,7.13-4.58,11.13-.91-.7-.67-1.7-1.08-2.35-.59-.57-1.63-.11-2-1,.24-1.49.47-3,.71-4.45l2-1.68c-.89-2,2-2.71,1.51-4.62a110.63,110.63,0,0,0,5.66-17.86,167.87,167.87,0,0,0,3.14-28,4,4,0,0,0,0-4V414.3c.07-.05.19-.12.18-.14a4,4,0,0,0-.2-.35c-.88-4.34-.83-8.77-1.42-13.15a159.1,159.1,0,0,0-10.63-38.78A151.06,151.06,0,0,0,177.88,339a107,107,0,0,1-17.45-7.11c.28-2,2.57-3.8.47-6l.14-.16c1.59-.09,2.83,1,4.28,1.35,2.3.62,4.4,2.08,6.94,1.77-.25.3,0,.31.27.31l-.33-.27A137.87,137.87,0,0,0,156.13,306c-.62-.71-1.12-1.71-2.28-1.81-1.37-2.49-2.24-5.25-4-7.52-1-1.29-2.13-2.42-4-1.69-5.27-2.48-9.55-6.45-14.38-9.59a33.69,33.69,0,0,1-9.67-.06A13.61,13.61,0,0,1,118.07,281.17ZM221.24,454.42a3.47,3.47,0,0,0,1.18-2.5,39.44,39.44,0,0,0,.61-6.32c.32-5.16,1.07-10.35.74-15.47-.37-5.93-.19-11.87-.85-17.78-.49-4.46-.57-9-1.15-13.41-.94-7.29-1.74-14.59-2.88-21.86-1.5-9.53-3.28-19-5-28.47-2.27-12.43-5.55-24.62-9-36.77-1-3.33-1.45-6.81-3.22-9.93.57,1.8.08,3.65.52,5.47q3.27,13.31,6.39,26.65c2.14,9.15,4.07,18.33,5.61,27.6,1.29,7.76,2.52,15.52,3.64,23.3.94,6.54,1.3,13.13,2.12,19.67,1.09,8.68,1.23,17.4,1.81,26.09.46,6.77-.23,13.56-.88,20.32A5.62,5.62,0,0,0,221.24,454.42ZM202.72,287c-.87-41.93,3.16-83.18,17-123.71C209.27,169,196.14,267,202.72,287Zm-19.36,34.41a24.66,24.66,0,0,0,1.17,2.87c3.88,6.69,7.93,13.28,10.87,20.46A173.2,173.2,0,0,1,203,368c1.24,4.93,2.09,10,3.93,14.73.34.87.45,1.91,1.8,1.55C211,375,191.69,326.3,183.36,321.44ZM174,317.73a16.7,16.7,0,0,0-1.75-7.17c-3.19-7.35-9-12.48-15.26-17C149.5,288.13,141.7,283.16,134,278c-.52-.35-1.09-1-2.13-.4a216.62,216.62,0,0,0,18.83,14.05c7.27,5.05,14.1,10.55,18.33,18.68C170.39,312.9,171.45,315.75,174,317.73Zm18.23-75.31a280.73,280.73,0,0,0,2.1,75.1,746.8,746.8,0,0,1-2.1-75.1Zm26,54.7a17.53,17.53,0,0,0,3.19-3.25,50.9,50.9,0,0,1,9.67-9.67,142.58,142.58,0,0,1,18.87-11.95c1.06-.58,2.16-1.13,2.41-2.67-11,3.34-31.58,17.67-34.11,27.54Zm72.85-50.64a4.12,4.12,0,0,0-1.05.11c-8,3.07-15.46,7.35-23.16,11.08-.73.36-1.29.87-.75,1.79,2.49-.25,23.84-11.28,25-13ZM193.16,221A172.63,172.63,0,0,0,201,189C197.24,199.4,195.37,210.27,193.16,221Zm-64,53.58c-4.21-3.72-7.69-8.2-12.26-11.52,3.61,4.36,7.34,8.58,12.26,11.53Z"></path><path style="fill:#b5b44a" d="M201.93,473.94v10.7l.63.13c.89-3.18,0-6.88,2.44-10.1.81,1.66.33,3.05.63,4.51,1.4-1.9.83-4.4,2.38-6.2,1,.85.3,2,1,3.21.5.38,1.6.85,1.62,2.15a5.83,5.83,0,0,0,.8,2.88c1.33-.31,1.08-1.61,1.58-2.45,1.16-.06,1.54.89,2.17,1.63,0,1,.11,2.12.17,3.21.88-4.19,1.32-8.44,2.88-13a17.35,17.35,0,0,1,1.63,8.42c1-.77.83-2,1.54-3.19,1.13,2.32,1,4.64,1.87,6.92.37-2.1-.23-4.13.95-5.91.55.8,0,1.93,1,2.65,1.08-1.26.26-3.26,1.87-4.68,1.78,2.51.43,5.61,1.87,8a2.9,2.9,0,0,0,2.15-.8c.13-3.48-.24-7.13,1.6-10.51.5,3.7.82,7.39,2.45,11.46,1.53-3.35,1.24-6.65,3.16-9.14.91,1.61.34,3.41.67,5.09,0,.62-.41,1.3.33,1.81.82-.43.43-1.17.51-1.77l.07-3.5c1.17.1.94,1,.94,1.72,0,2.3.87,4.42,1.73,6.75.83-2,1.67-4,2.5-6.09,1.65.84,1.27-1.15,2.2-1.47.69,1.64-.48,3.73,1,5.41.66-1.33.07-3.8,2.67-3.06,1,2.26-2,4.62.43,6.69,2.06-1,.86-2.88,1.55-4.3l1,2.43,2-1.6c.7-1.27-.37-3,1.61-3.6.27,1.23,1.23.21,1.92.27a10.24,10.24,0,0,1,.33,6,91.25,91.25,0,0,1-21.16,7A229.84,229.84,0,0,1,205.36,496c-2.47.17-5.08-.19-7.48.83-9.93,0-19.86.1-29.72-.48A179.63,179.63,0,0,0,165.51,473l.42-.36c.85,1.4.88,3.26,2.41,4.46,1.93-1.86.21-5.1,2.72-6.71a11.7,11.7,0,0,1-.29,4.89c1.75,1.83.59,4.39,1.33,6.93,1.36-1.74.71-3.88,2.19-5.62-.49,3.45.77,6.31,1,9.35,2.06-3.75.24-8.08,1.85-11.91,1.27,3.07,1.27,6.49,3,9.48.25-3.18,1.27-6.19,1.5-9.38.76-.11.34,1.14,1.19.91.68-.24.7-1,1.15-1.69-.52,3.27-2.74,6.41-.28,9.87.66.15,1.18-.53,1.25-1.29.28-3.11,2.33-5.85,1.89-9.12a2,2,0,0,1,.77-2,4,4,0,0,0,1.61,3.12c-.24,1.48-.47,3-.71,4.45.36.89,1.4.43,2,1,.41.65.17,1.65,1.08,2.35,1-4,2.12-7.87,4.58-11.13.75-.17.76.66,1.24.78v10.4c1.78-2.65.76-5.86,2.68-8.43.32,1.49-.56,2.77.39,4.08C201.23,476.25,200.7,474.67,201.93,473.94ZM220,480.28c-.16.87-.36,1.39.11,1.89A2,2,0,0,0,220,480.28Z"></path><path style="fill:#e4a34a" d="M389.19,336.9c-.28,5.7-4,9.35-7.86,12.82-6.22,5.51-14.15,7.09-21.82,9.09a191.4,191.4,0,0,1-31,5.25c-1,.1-2.25,0-3,1.05a7,7,0,0,1-3,.36c-6.72.33-13.47-.38-20.17.64-7.43-.47-14.79-1.16-21.66-4.48-2.16-1.05-3.5-2.27-3.22-4.78,6.63.31,13.23-.39,19.85-.57,4.64-.13,9.3-.47,13.91-1,10.21-1.26,20.43-2.56,30.55-4.5C358.07,347.64,374.28,344.48,389.19,336.9Z"></path><path style="fill:#e4a34a" d="M361,306.12l2.67.89a45.36,45.36,0,0,1,1,9c2.05,1.4,4.82-.86,6.58,1.45a22.59,22.59,0,0,0-6,.91c-11.6,3.1-23.2,6.1-35.2,7.35-6.12.64-12.2,1.69-18.31,2.44-5,.62-10.15.31-15.18,1-.72.1-1.56.22-2.11-.55a55,55,0,0,1-1.75-5.78c-.4-2-.68-4.24,1.81-5.41-.13,1.79,1.16,1.67,2.23,1.5,6.24-1,12.53-.25,18.79-.47a33.15,33.15,0,0,0,10.45-1.7c9.62-3.54,19.64-5.68,29.44-8.58C357.27,307.66,359.45,307.72,361,306.12Z"></path><path style="fill:#4f531a" d="M247.56,418.89V383a46.83,46.83,0,0,0,9.56-2.26V396c2.18-1.41,4-2.71,6.37-2.85,6.81-.42,10.5,2.82,11,9.94a38,38,0,0,1-.26,9.16,9.77,9.77,0,0,1-8.55,8,14.16,14.16,0,0,1-4.31-.1,20.08,20.08,0,0,1-3.86-1.76c-.63.7,0,1.63-.88,2.34C253.73,419.75,250.22,421,247.56,418.89Zm9.67-6.5c4.07.83,6.66.18,7.75-1.85s.36-6.81-1.13-8.48-4.19-2-6.62-.94Z"></path><path style="fill:#4f531a" d="M360.91,385.89a12.91,12.91,0,0,1,7.42-5.09c3.15-.85,6.51-.19,8.35,2.44a27.76,27.76,0,0,1,5.12,14c.37,5.81-4.78,11.12-11.64,10.75l-2.76-.19c-.72.56,0,1.33-.47,2-1.4.21-2.88.52-4.38.63s-2.88,0-4.62,0l-9.53-35.25a34.57,34.57,0,0,0,8.4-4.36C358.16,375.83,359.45,380.54,360.91,385.89Zm4.84,16c2.86-.66,5.72-.65,6.76-3.76.57-1.73-1.85-7.22-3.64-8.34-2.35-1.48-4.49-.53-6.8.64,1.23,3.86,2.42,7.54,3.68,11.47Z"></path><path style="fill:#e4a34a" d="M358.86,297c1.91,2.46,1.8,5.3,1.56,8.17-4.64.95-9.32,1.73-13.9,2.89-8.21,2.08-16.27,4.89-24.57,6.47-8.81,1.68-17.88,1.34-26.83,1.87-1.24-2.76-3.13-5.4-1.69-8.68a22.13,22.13,0,0,1,3.67-1c8.15-.74,16.3-1.67,24.47-2a93.43,93.43,0,0,0,25.56-4.67C351,298.84,354.69,297,358.86,297Z"></path><path style="fill:#4f531a" d="M324.27,390.83l6.74-1.77c.61,2.78,1.16,5.56,1.83,8.31,1,4.14,3.31,5.2,7.56,3.4a26.4,26.4,0,0,0-.91-6.61c-.42-2.14-.76-4.29-1.16-6.53l9-1.09c7.05,23.9-1.42,33.53-10.53,40.56l-7-6.48c4.73-3.42,8.68-7.07,10.43-13.07a18.32,18.32,0,0,1-7.37,1.48,6.51,6.51,0,0,1-5.8-3.4C324.62,401.59,323.69,397.08,324.27,390.83Z"></path><path style="fill:#e4a34a" d="M353.8,287.15c1.69.38,1.74,1.84,2,3.11.32,1.71.5,3.45.74,5.18a17.08,17.08,0,0,0-5.26.8c-4.16,1.12-8.32,2.3-12.51,3.32a135.44,135.44,0,0,1-20.52,3.14l-23.23,2c0-2.41-1.62-4.4-1.76-6.8-.05-.84-.46-1.65.22-2.39a51.27,51.27,0,0,1,7.64.14,42.11,42.11,0,0,0,15.62-.65c6.85-1.47,13.64-3.16,20.57-4.17,4.59-.67,9.19-1.3,13.77-2C352.13,288.64,353.54,288.78,353.8,287.15Z"></path><path style="fill:#efb961" d="M389.19,336.9c-14.91,7.58-31.12,10.74-47.35,13.84-10.12,1.94-20.34,3.24-30.55,4.5a134.89,134.89,0,0,1-13.91,1c-6.62.18-13.22.88-19.85.57-.81-1.28.36-2.38.18-3.64,2.2-.79,4.48-.13,6.53-1,1.9,1.05,4,.59,5.93.41,7.87-.72,15.74-1.53,23.59-2.5,2.79-.34,5.68-.33,8.34-1.52,2.44,0,4.72-1,7.11-1.3.7,1.35,2,.88,3,.72q12.15-2,24.1-5c9.19-2.32,18.5-4.18,27.44-7.47,1.61-.6,3.19-1.67,5.08-1.28A3.31,3.31,0,0,1,389.19,336.9Z"></path><path style="fill:#4f531a" d="M434.34,363.67q-5.55,6.56-11.16,13.15c1.66,1.27,2.5,1.24,4.74.2,1.76-.83,2.78-2.43,4.18-3.63s2-2.95,3.76-4l3.78,3.23c-1.68,8.5-10.4,15.59-18.32,12.8-10.67-3.75-13.7-17.55-6.5-23.9,6.2-5.47,12.48-6.2,18-.68A4.18,4.18,0,0,1,434.34,363.67Zm-8,1.13c-2.93-1.66-4.75-1.31-6.75,1-2.29,2.66-2.41,4.77-.24,7.57a43.26,43.26,0,0,1,7-8.57Z"></path><path style="fill:#4f531a" d="M395.86,389.35c3.85,2.24,5.36,2,12.4-6.16l4.43,4.76c-3.2,4.34-6.32,8.67-11.72,10.38a12.17,12.17,0,0,1-14.24-5.24c-3.32-5.58-4.49-12.41.29-18.09,4.41-5.24,14.43-6,18.76-1.21a5.3,5.3,0,0,1,1.63,3.44Zm-4.1-4.27c1.55-1,6.34-6.15,7-7.58a5.18,5.18,0,0,0-6.58,1c-2,2.12-2.1,4.06-.44,6.58Z"></path><path style="fill:#4f531a" d="M297,392l21.5-1.94c2.09,6.26-2.44,9.71-5.41,13.78-1.19,1.62-2.48,3.17-4.09,5.23L321,407.72c1.27,2.89,0,6,1.48,9.09l-22.2,2a29.9,29.9,0,0,1-1.8-7.39,139.34,139.34,0,0,1,10.39-12.11c-3.8-.33-7.08,1.35-10.68.93Z"></path><path style="fill:#e4a34a" d="M350.26,279.65c.63,2.16.31,4.41.58,6.6a130.6,130.6,0,0,0-21.59,2.44c-9.74,2-19.44,4.6-29.56,3.77a11.55,11.55,0,0,0-2.74.46c-.06-2.72-1.68-5.46.1-8.16a8.65,8.65,0,0,1,3.89-1.62c4.19-.55,8.43-.37,12.6-1,2.18-.32,4.59.14,6.5-1.48a52.06,52.06,0,0,0,8.86,5.2c1.41-2.45.43-4.88.44-7.26,3.19,0,6.24-1,9.35-1.55C342.27,279.13,346.21,279.65,350.26,279.65Z"></path><path style="fill:#e4a34a" d="M288.75,338.89a18,18,0,0,1,1-5.63c1.93-.18,3.89-.22,5.79-.57,9.15-1.72,18.46-2,27.69-2.86,5.47-.54,10.88-1.43,16.34-1.92,6.24-.57,12.3-2.2,18.43-3.35a57.09,57.09,0,0,0,15.11-5,7.38,7.38,0,0,1,1.77,5.06c-5.35.93-10.52,2.6-15.73,4.05s-10.48,3.39-15.95,4.27a31.47,31.47,0,0,0-3.73-1.6c-5.26-1.53-9.45.59-13.19,4.06-1.76.16-3.53.31-5.29.49-5.54.57-11.08,1.16-16.62,1.71C299.18,338.11,294,339.21,288.75,338.89Z"></path><path style="fill:#e4a34a" d="M322.1,348.62c-2.66,1.19-5.55,1.18-8.34,1.52-7.85,1-15.72,1.78-23.59,2.5-2,.18-4,.64-5.93-.41,0-2.33-.66-4.61-.5-7a4.4,4.4,0,0,1,1.92-3.83c5.51.35,10.92-.77,16.39-1.08,7.23-.42,14.42-1.55,21.69-1.35A24.09,24.09,0,0,0,322.1,348.62Z"></path><path style="fill:#e4a34a" d="M388.78,334.3c-1.89-.39-3.47.68-5.08,1.28-8.94,3.29-18.25,5.15-27.44,7.47q-12,3-24.1,5c-1,.16-2.25.63-3-.72,6.71-1.87,13.74-2.27,20.77-4.17l-3.82-7.29c1.35-1.8,3.54-1.4,5.33-2,6.35-2.16,12.71-4.26,19.18-6,2.23-.61,4.68-.54,6.69-1.93,4.07.06,4.4,3.29,5.21,6.23,1.48.14,3,.3,4.49.42C388.14,332.66,388.8,333.13,388.78,334.3Z"></path><path style="fill:#4f531a" d="M453.12,363.23a2.37,2.37,0,0,0-1.09-2.31c-2.72-.05-5.55.7-8.45.57a11.66,11.66,0,0,1-7.08-3c-2-1.65-1.46-7.18.65-9.64a11.64,11.64,0,0,1,9.57-4.3c2.2.06,4.41,0,6.94,0-1.11,2.12-.32,4.16-1.07,6-3.2.94-7.68-1.49-9.7,3.31a5.83,5.83,0,0,0,5.11.75c3.77-1,7.22.11,10.64,1.29s4.32,6.58,2.16,9.74c-3,4.45-7.47,5.79-12.49,6-1.84.07-3.71.27-5.69-.62.41-2.16.82-4.27,1.22-6.39A12,12,0,0,0,453.12,363.23Z"></path><path style="fill:#697228" d="M291,62.89c-14.21-3.26-17.07-22-13.85-31.54,5.91,2.75,11.23,6.24,15,11.63,3.48,4.94,4.27,10.5,3.29,16.38-.52,1.12-1,2.25-1.64,3.53Zm-9.83-22-.24-.11.22.13c.17,7,5.4,18.43,9,19.57a1.81,1.81,0,0,0-.12-.73c-3.59-5.14-5.69-10.92-7.45-16.86a2.79,2.79,0,0,0-1.41-2Z"></path><path style="fill:#697228" d="M312.4,142l-1.71-2.06c-1.14-11.14,8.7-17.58,17.19-19.79a23.88,23.88,0,0,1,10.49-.78C336.05,132,327.65,144.67,312.4,142Zm1.33-4.36c5.33.15,17.94-8.31,19.41-13.18C327,129.82,320.38,133.69,313.73,137.61Z"></path><path style="fill:#697228" d="M245.38,125a2.61,2.61,0,0,0-.53-1.74c.17-.69.35-1.38.52-2.07a10.11,10.11,0,0,1,5.37-3.74c11.11-4.22,20.81-.86,30.4,5.55a36.87,36.87,0,0,1-16.91,7.46c-5.3,1-10.25.47-14.85-2.55C248,127,247.22,125.22,245.38,125Zm5.7-2.12c7.5.89,15,1.87,22.58.86A152,152,0,0,0,251.08,122.84Z"></path><path style="fill:#50541b" d="M263.28,102.23c-.28-.69-1.11-1.09-1-2.42,2.29-2.53,5-5.08,8.68-6.31a13,13,0,0,1,4.13-.89,10.71,10.71,0,0,0,6.53,0,36.59,36.59,0,0,1,17.89,7.94c-3.6,4-8.26,5.93-13.23,7.33-8,2.26-15.09.07-21.5-4.89C264.33,102.63,264,102,263.28,102.23Zm2.39-1.39c9.45.18,18.91,1.28,28.31-.6-9.47-2.21-18.89-1-28.31.6Z"></path><path style="fill:#50541b" d="M274.57,87.94l-6-2.56c-6.42-4.11-9.05-10.39-9.87-17.61-.47-4.1-.81-8.23.61-12.47,8.28,4.35,15.4,9.64,18.06,19.18a17,17,0,0,1,.3,2.24,7.06,7.06,0,0,1-.2,5.54c-.55,1.34-1.69,2.53-1.38,4.17ZM264.06,61.66c4.52,6.82,6.72,14.58,9,22.3C274.75,74.62,269.4,68.14,264.06,61.66Z"></path><path style="fill:#697228" d="M129.42,163c-.76.16-1.72-.23-2.2.75-8-2.62-11.26-8.69-12.32-16.6A36.71,36.71,0,0,1,116,131.86c10.1,4.56,15.53,12.72,16.33,22.62C132.57,157.67,130.5,160.23,129.42,163Zm-2.5-4-7.2-20.19C119.54,145.51,123.57,157.09,126.92,159Z"></path><path style="fill:#b5b44a" d="M300.59,55.16c.29-1.39-.39-2.66-.51-4-.6-6.72,2.59-11.79,7.26-16,4.21-3.83,9.32-6.06,15.15-7.63A38.68,38.68,0,0,1,321,39.82c-1.92,6.65-5.26,12.31-11.91,15.31a27.24,27.24,0,0,1-6.89,1.69Zm2.63-1c7.06-2,16.4-14.57,16.13-21.43-4.7,7.66-9.68,15.1-16.13,21.43Z"></path><path style="fill:#50541b" d="M259.18,95.16c.19,4.54-1.68,8.27-4.57,11.73l-4.06-1.58c-1.2-2-3.32-3-4.76-4.81-3.25-4.06-4.52-8.63-5.13-13.69-.47-3.93,0-7.72.29-12.06C250.46,78.78,257.1,84.89,259.18,95.16Zm-4.55,9.34a39.9,39.9,0,0,0-8.93-24.41c3.9,7.79,5.44,16.44,8.93,24.41Z"></path><path style="fill:#697228" d="M289.31,72.72c11.85-2.84,25.74,5.13,28.76,16.66-7.8.92-15.5,1.46-22.72-2.46a17.83,17.83,0,0,1-8.62-10.17C286.46,74.68,287.86,73.71,289.31,72.72Zm.06,4-.24-.11.21.13c0,.57.41.85.82,1.2a35,35,0,0,0,14,7,32.9,32.9,0,0,0,9.07,1.58.66.66,0,0,0-.52-.52C304.86,83,296.77,80.69,289.37,76.67Z"></path><path style="fill:#8e9131" d="M197.86,496.85c2.4-1,5-.66,7.48-.83a228.76,228.76,0,0,0,33.18-4.32,91.25,91.25,0,0,0,21.16-7,1.2,1.2,0,0,0,1.27-.51c1.66-.26,3.11-1.48,4.91-1.1-1.93,4.18-1.65,8.66-1.56,13.53C242,497.19,220,497,197.86,496.85Z"></path><path style="fill:#ab2713" d="M177.47,442.65l-7.29,1.17c-2-1.09-2.5-2.9-3-4.71,1.36-4.13,3.38-5.52,7.39-5.06-1.28-4.21.28-7.71,3.86-8.69,3.28-.9,5.15,1,6.5,6.73,1.65-1.75,3-3.63,5.67-3.78a4.29,4.29,0,0,1,4.44,4.13v.33c.09,3.58-2.23,6.63-5.91,8l-1.39-1.11a4,4,0,0,0-2.38,1C182.7,441.11,179.93,441.25,177.47,442.65Z"></path><path style="fill:#efb961" d="M373.12,319.55a57.09,57.09,0,0,1-15.11,5c-6.13,1.15-12.19,2.78-18.43,3.35-5.46.49-10.87,1.38-16.34,1.92-9.23.91-18.54,1.14-27.69,2.86-1.9.35-3.86.39-5.79.57a3.42,3.42,0,0,1,2.72-3.47,4.3,4.3,0,0,0,1.93-1.13c.55.77,1.39.65,2.11.55,5-.73,10.14-.42,15.18-1,6.11-.75,12.19-1.8,18.31-2.44,12-1.25,23.6-4.25,35.2-7.35a22.59,22.59,0,0,1,6-.91Z"></path><path style="fill:#4f531a" d="M279,393.83c3.44-.89,6.39,1.18,9.34-.13.67,5.47-2.28,11,1,16.17l3,.15a29.66,29.66,0,0,0,2.49,5.76c-3.92,3.75-7.7,4.59-12.32,2.35-2.47-1.19-2.85-3.94-3.34-6.42C277.92,405.78,279.77,399.88,279,393.83Z"></path><path style="fill:#697228" d="M359.39,157.38c-.28-2.54.48-5,.59-7.68l1.44-1.85c3.36-4.86,8.29-7,13.88-7.73,2.83-.36,5.7-1,8.58-.43C381.7,148.23,373.05,159.7,359.39,157.38Zm12.27-10.16a27.31,27.31,0,0,0-7.8,4.81c2.81-1.28,6.11-1.76,7.86-4.76l.12-.23Z"></path><path style="fill:#b5b44a" d="M361.42,137.48l-2.94-.5c-.11-.39-.11-.88-.36-1.15-5.33-5.77-5.1-12.51-3.15-19.38a25.25,25.25,0,0,1,5.89-10.35c4.08,4.56,5.78,9.87,6.23,15.76C367.58,128,366,133.25,361.42,137.48Zm-.88-26.79c-2.19,8-2,15.92-.62,23.92A64,64,0,0,0,360.54,110.69Z"></path><path style="fill:#697228" d="M181.86,140h-3c-1.77-3-1.53-6.11-.84-9.22,2.21-7.43,7.77-11.5,14.68-14.42,1.07,6.92.63,13.56-3.59,19.45A9,9,0,0,1,181.86,140Zm-1.19-2A25.22,25.22,0,0,0,188,124.67c-2.46,4.51-5,8.93-7.42,13.36Z"></path><path style="fill:#50541b" d="M172.12,102.69H170c-5.23-2.86-8.52-10.48-7.28-16.54a64.56,64.56,0,0,1,3.68-11.08c4.86,4.55,8.25,9.87,9.39,16.38.5,2.9-.57,5.63-2.11,8.15C173.09,100.59,172,101.34,172.12,102.69Zm-2.79-19.94-.65.08q.58,8,1.18,15.89l.69,0C170.86,93.31,171.26,88,169.33,82.75Z"></path><path style="fill:#50541b" d="M176.29,144.54c4.48.48,6.74,3.68,8.93,6.93a8,8,0,0,1-3.86,3.56c-9.59,4-16.83.28-24-6.75C163.42,145.3,169.48,143.14,176.29,144.54ZM164,147.77c2.07,2.5,16.34,5.52,18.56,4.22Z"></path><path style="fill:#697228" d="M280.18,216.73l-.09-2.09c2.63-5.9,7.11-8.93,13.62-9.22a41.93,41.93,0,0,1,13.15,1.31c-.44,2.13-2.2,3.22-3.57,4.48-4.43,4.11-9.36,7.24-15.75,7.09C285,218.24,282.7,217,280.18,216.73Zm3.32-2.36c5.39-1.53,10.27-4.38,15.65-5.93-5.88.22-10.86,2.81-15.65,5.93Z"></path><path style="fill:#697228" d="M161,325.73c2.1,2.16-.19,4-.47,6-1.48.35-1.88,1.83-2.78,2.77-4.34,4.53-9.88,5.47-15.74,5.44a42,42,0,0,1-4.88-.65c2.85-5.91,6.4-10.85,12.81-13.09C153.56,325.14,157.28,325.78,161,325.73Zm-17,9.79c4-1.6,8.05-3.19,11.1-6.49A51.07,51.07,0,0,0,144,335.52Zm-1.16.68-.27-.2-.1.15Z"></path><path style="fill:#4f531a" d="M215.2,86.42a12.84,12.84,0,0,1-1.75-.2,12.37,12.37,0,0,1-1.66-.64,22.76,22.76,0,0,1,2.94-9.35,26.54,26.54,0,0,1,14.17-8c1.15-.26,2.33-.37,3.49-.55C233.86,75.92,224.26,86.37,215.2,86.42ZM215,83c4.12-2.91,7.2-7,11.18-10.06-5,2-7.75,6.38-11.18,10.11Z"></path><path style="fill:#50541b" d="M102.3,285.36c-1,6.22-4.51,10.52-10.36,12.58a25.38,25.38,0,0,1-12.14.88c2.56-6.41,6.13-11.85,12.46-15,2.66-.47,5.3.5,8,0C101.25,283.63,101.86,284.45,102.3,285.36Zm-13.78,5.89.44.5,8-5.42C93.5,287,90.86,288.93,88.52,291.25Zm-3.41,3.4c.4.32.57.17.63-.22l-.17-.22Z"></path><path style="fill:#697228" d="M118.07,281.17a13.71,13.71,0,0,0,3.7,4.14l1.68,8c-.77.37-.73,1.12-.82,1.8-7.31.6-12.13-2.32-15.77-9.56-.33-1.29-.66-2.57-1-3.86,0-2.2-1-4.31-.4-6.95A46.08,46.08,0,0,1,118.07,281.17ZM120.41,292c-2.19-2.35-3.66-5.36-6.55-7.06A16.9,16.9,0,0,0,120.41,292Zm-8.24-9.19c0,.91.24,1.28,1,1.11.29-.76-.16-.92-1-1.08Z"></path><path style="fill:#697228" d="M212.09,60.16c.56,3.22,1.31,6.43-.49,9.55a2.27,2.27,0,0,1-2.12,1.46c-6.89-1-10.74-7.64-11.63-13.09a20.37,20.37,0,0,1-.54-4.8c.1-1.62.78-3.13.41-5.37,5.33,3,10.35,5.38,13,10.78C211,59.22,210.61,60.66,212.09,60.16Zm-6.57-1.89c-.07-.22.11-.63-.53-.58l.52.59c1.63,3.54,1.84,7.64,4.37,10.87a12.42,12.42,0,0,0-.37-3.64c-.86-2.63-1.54-5.48-4-7.24Z"></path><path style="fill:#697228" d="M38.3,214.2a1.1,1.1,0,0,0-.49,1c-4,1.28-7.88,1.45-11.59-1a30.54,30.54,0,0,1-11.29-13.37c7.76-2.19,19.92,3.18,22.66,9.93A9,9,0,0,1,38.3,214.2ZM23.52,206l-.22-.11.21.12.51.51c.06.08.13.16-.06-.08l.08.07Zm1.78,1.45c2.61,2.26,5.21,4.55,8.74,5.28a27.72,27.72,0,0,0-8.74-5.29Z"></path><path style="fill:#697228" d="M84.86,279.1a31.21,31.21,0,0,1-8.82-15c-.27-1.05-.47-2.13-.7-3.19,8.85-.9,21.37,8.81,18.83,19.1-.5.77-1.3.56-2,.65C89.51,281,87.26,279.68,84.86,279.1Zm5.2-1.7c-.72-3-7.5-11-10.16-11.92,3.66,4.22,6.06,8.77,10.15,11.92Z"></path><path style="fill:#50541b" d="M128.37,223.4c.08,2.52.62,5,0,7.56-.39,1.5-.73,2.87-2.73,2.59-5-2.39-9-5.69-10.43-11.24a27.63,27.63,0,0,1,.12-13.64C121.05,212.5,126.52,216.29,128.37,223.4Zm-10.6-8.2A45.54,45.54,0,0,0,125,229.31c-.32-3.15-3.69-9.83-7.25-14.11Z"></path><path style="fill:#50541b" d="M51.67,218.84c-1.36,0-1.89-1.71-3.29-1.66-2.06-2.76-4.09-5.5-5-8.94-1-4,.25-7.66,1.2-11.38a48,48,0,0,1,1.75-4.78c4.87,4.56,8.66,9.5,9.21,16.16C55.86,212.28,55.4,216.21,51.67,218.84ZM51,215.48c1.53-1.73-.7-14.55-2.88-17.79C48.08,203.88,50.86,209.44,51,215.48Z"></path><path style="fill:#50541b" d="M50.64,222.89a16.74,16.74,0,0,1,6,1.3c.9.3,1.7.74,1.73,1.87-1.26,5.46-6.86,9.22-12.89,9.66a31.65,31.65,0,0,1-12.42-1.89C37.41,227.65,43,223.63,50.64,222.89Zm-7.84,7.37c4.48-1.61,9.12-2.73,13.51-4.59-5,.15-9.21,2.48-13.51,4.59Zm-1.6.68c-.14-.06-.32-.2-.42-.16s-.13.26-.19.4c.14.06.31.2.41.16s.13-.26.2-.4Z"></path><path style="fill:#697228" d="M80.26,215.2c1.53,2.49,4,4.48,4.06,7.76-2.65.76-5.19,1.93-8.07,1.62-8-.88-13.15-5.46-16.71-12.74C67,210.92,74,210.39,80.26,215.2Zm1.16,5.31c-4.4-2-9.27-2-13.69-3.82C71.86,219.82,76.71,219.88,81.42,220.51Z"></path><path style="fill:#697228" d="M355.36,154.81c-.17,2.93.26,5.88-.93,8.75a8.65,8.65,0,0,1-2.68,4.09c.13-.77-.43-1-1-1.26-7.29-3.25-8.94-10.86-8.11-17.49a21.12,21.12,0,0,1,2.18-7.54A41.37,41.37,0,0,1,355.36,154.81Zm-4.06,7.32C352,156,348.2,151.41,347,146l-.89.29Q348.69,154.19,351.3,162.13Z"></path><path style="fill:#50541b" d="M170.21,116.62c1.52,2.78,2.79,5.59,2.86,8.91a4.43,4.43,0,0,1-.78,2.71c-10.73,2.18-17-7.54-19.48-17.78,5.65,1.08,11.38,1.47,15.85,5.57C169.1,116.44,169.51,116.9,170.21,116.62Zm.09,8.41c-.56-4.49-7-10.23-12.28-10.88C163.15,116.62,166.76,120.75,170.3,125Z"></path><path style="fill:#697228" d="M245.86,230.62c-.18-2.22,1.06-3.23,3.06-3.63,1.56-.32,3.12-.67,4.68-1a27.18,27.18,0,0,1,16.51,11.84C263.23,243.53,250,239.56,245.86,230.62Zm19.75,6.08A136.71,136.71,0,0,0,251.23,231a23.43,23.43,0,0,0,14.37,5.67Z"></path><path style="fill:#efb961" d="M297,292.92a11.55,11.55,0,0,1,2.74-.46c10.12.83,19.82-1.78,29.56-3.77a130.72,130.72,0,0,1,21.61-2.44c1,.12,2.19-.12,3,.9-.26,1.63-1.67,1.49-2.75,1.66-4.58.71-9.18,1.34-13.77,2-6.93,1-13.72,2.7-20.57,4.17a42.11,42.11,0,0,1-15.62.65,51.27,51.27,0,0,0-7.64-.14C294,293.76,295.67,293.63,297,292.92Z"></path><path style="fill:#50541b" d="M266.23,216.77c-1.56,1.12-3.05,2.34-4.68,3.31-1.93,1.16-4,1.87-6.24.7-.52-3.82-.24-7.55,1.87-10.87,3.4-5.39,8.44-8.48,14.56-10.17C271.54,206.11,270.66,212,266.23,216.77Zm-8,1.63c2-.47,4.68-4.4,4.43-7Zm5.41-7.57a6.62,6.62,0,0,0,2.62-5.09c-1.25,2-2.29,3.29-2.6,5.09Z"></path><path style="fill:#9f703f" d="M122.63,295.13c.09-.68,0-1.43.82-1.8,2.94,2.31,5.31,5.19,7.87,7.88,3.67,3.84,7.18,7.83,11.37,11.14h-.05l.24.53.33-.46c1.07,3,2.32,5.89,5.07,7.63a3.09,3.09,0,0,0,2.61-1.08c3.12,2.65,7,4.13,10.22,6.63l-.14.16c-3.69.05-7.41-.59-11.06.43-.86-1.6-2.51-2.37-3.78-3.53-2.74-2.51-5.47-5.05-8.2-7.57-.4-.38-.63-1.08-1.41-.75.14-.56,1.13-.56.9-1.39-2.51-3.67-4.8-5.56-7.72-6.35-1.35-3-3.64-5.37-5.34-8.14C123.71,297.37,122.71,296.49,122.63,295.13Z"></path><path style="fill:#697228" d="M210.57,90.9c.83,2.24,2.62,4.15,2.15,6.84a9.06,9.06,0,0,1-.64,2.67c-.64-.86-1.49-.53-2.32-.48-7.8.44-17.49-6.85-19.12-14.6,4.31.28,8.61-.66,12.78.88a11.57,11.57,0,0,1,5.76,3.92C209.5,90.59,209.8,91.2,210.57,90.9Zm-.67,6.22c-3.81-1.76-7.45-3.9-11.16-5.88a17.67,17.67,0,0,0,11.12,5.88Z"></path><path style="fill:#50541b" d="M83.19,211.61c-3.31-.8-3.32-3.73-4-6.21-.22-8.34,4.31-14.28,9.9-19.74C94.05,197.2,93,205.42,83.19,211.61Zm-.81-2.24C85.07,206,89,193.59,88,190.23,86.07,196.65,83.43,202.41,82.38,209.37Z"></path><path style="fill:#697228" d="M132.38,177.83c-.08,1.44,1.34,2.22,1.57,3.53-8.88,6.71-18,1.18-24.12-6.31,6.06-2.57,12.06-3.56,18.3-.7C129.86,175.16,130.71,177,132.38,177.83Z"></path><path style="fill:#50541b" d="M329.34,278.6c0,2.38,1,4.81-.44,7.26a52.06,52.06,0,0,1-8.86-5.2c-.68-.71-1.35-1.43-2-2.14-1.52-2.75-3.16-5.44-3.6-8.63v-6.61a56.38,56.38,0,0,1,9.13,3.09l4.53,5.08c.27,1.2.54,2.41.82,3.62Zm-12.48-12.84-.61.45c2.65,6.18,7.72,13.19,10.94,14.36Z"></path><path style="fill:#50541b" d="M129.7,306.57c2.92.79,5.21,2.68,7.72,6.35.23.83-.76.83-.9,1.39-4.12,4.75-14.22,4.32-19.89-.61-1.53-1.34-3-2.74-4.71-4.29C117.7,306.73,123.31,304.34,129.7,306.57Zm-10.77,4.64,15.7,1.29c-3.35-2.33-10.23-3-15.7-1.29Z"></path><path style="fill:#50541b" d="M277.06,163.1a28.45,28.45,0,0,1,8.66-3.08c6.8.67,11.09,5.19,15.3,9.9-9.28,3.43-19,3-23.81-6.08A2.38,2.38,0,0,1,277.06,163.1Z"></path><path style="fill:#697228" d="M239.86,228.39c-.06.76-.11,1.51-.17,2.29-1.37,1.7-2.45,3.65-4.45,4.92h-2.73c-.42-.65-.81-1.28-1.21-1.91-4.58-8.66-2.11-16.42,3.09-24C238.28,215.4,240.33,221.52,239.86,228.39Zm-6.19,3.93c1.83-5.38,1.45-10.93,1.23-16.47-1.11,5.42-2.1,10.86-1.23,16.47Z"></path><path style="fill:#697228" d="M350.26,279.65c-4,0-8-.52-11.57-2.6l-2.3-2c-.79-1.5-2.24-2.68-2.26-4.56a3,3,0,0,0,1.84-1.75c2.33-.15,4.47-1.38,6.91-1.08,6.88.87,11.83,4.89,16.54,9.76C356.46,279.39,353.15,278.67,350.26,279.65Zm-12.83-8.93c2.11,2.55,12.48,5.3,15.2,4.16Z"></path><path style="fill:#697228" d="M276.65,155.85c-.12,2.88-2.56,2.89-4.34,3.62-1-.13-1.6-1.13-2.6-1.06-.17-2-1.65-3.51-2-5.56-1-6.24,3.42-14.11,7.1-17.87C278.91,141.66,280.71,148.49,276.65,155.85Zm-5.21.72c2.42-5.72,3-11.38,1.78-13.25-.61,4.51-1.2,8.88-1.78,13.25Z"></path><path style="fill:#b5b44a" d="M490.53,372c2.45.28,2.46.27,5.05-2.21.61-.12.85.43,1.26.69l1.54,1c.25-5-1.73-9.21-1.9-13.81l2.64-.86c1,1.78,1.13,3.72,1.57,5.5,2,.35,3.26-2.59,5.36-1,.06,1.82-1.5,2.67-2.14,4.2l4.3,2.78L506,370.39c-1.68-.19-2.13-2.13-3.75-2.23-.62.84.13,1.82-.4,2.88-1.25.44-2.45,1.84-4.06.63-4.64,4.33-7.77,4.92-10.69,2.1a5.91,5.91,0,0,1-.37-7.87c2.1-2.36,6.12-2.34,9.25.13C494.65,368.3,492.12,369.49,490.53,372Zm-1.91-3c.83-.77,2.17-1.15,2.4-2.82-1.62.6-2.39,1.41-2.4,2.81Z"></path><path style="fill:#efb961" d="M295.12,316.43c8.95-.53,18-.19,26.83-1.87,8.3-1.58,16.36-4.39,24.57-6.47,4.58-1.16,9.26-1.94,13.9-2.89l.55.92c-1.52,1.6-3.7,1.54-5.59,2.1-9.8,2.9-19.82,5-29.44,8.58a33.15,33.15,0,0,1-10.45,1.7c-6.26.22-12.55-.52-18.79.47-1.07.17-2.36.29-2.23-1.5Z"></path><path style="fill:#b5b44a" d="M68.5,191.64v.59c-5.38-.28-9.11-3.32-12.16-7.39a30.37,30.37,0,0,1-5.56-13.61c5.7,1.57,11.08,3.2,15.21,7.47,3.27,3.37,4.9,7.27,4,12l-1.47.48a1.91,1.91,0,0,0-.59-1.35c-4-4.64-8.73-8.77-11.51-14.42-.25-.5-.69-1-2.09-.71C57,182.25,61.51,187.93,68.5,191.64Z"></path><path style="fill:#b5b44a" d="M70.59,279.67c-6.41,4.1-13.76,5.43-24.31-4,1.84-2.27,4.57-3.1,7-4.12,5.88-2.42,14.62-1.73,18.22,4.43a2,2,0,0,1,.18.48l-.68.19c-7-.42-14-2.11-21.19-1.11,2,.82,4.21,1.09,6.23,1.79A33.1,33.1,0,0,0,70,279Z"></path><path style="fill:#697228" d="M258.61,170.81a4,4,0,0,1,4.25-2.08c9.12,2.27,11.34,10,13.85,17.64-2,.55-3.72-.31-5.36-.84-4.44-1.44-8.79-3.21-11.27-7.56C258.86,175.79,257.78,173.46,258.61,170.81Zm4.68,2-.23-.11.21.14c.1.32.09.73.3.94q4.76,4.78,9.58,9.51c.1.11.43,0,1.28-.08-2.75-2.76-5.14-5.24-7.63-7.61-1.07-1.06-1.82-2.57-3.51-2.82Z"></path><path style="fill:#697228" d="M156.86,199.36a9.07,9.07,0,0,1-3.48-.26q-.8-2.46-1.58-4.89c.21-8,5.15-13,11.13-17.49C165.1,183,165.14,195.1,156.86,199.36Zm.12-7.12c2.79-2.08,3-5.34,3.8-8.33-1.2,2.81-3.35,5.17-3.84,8.3-.61.62-1.17,1.26-.72,2.33.95-.65.64-1.51.75-2.3Z"></path><path style="fill:#b5b44a" d="M411.52,415.62a6.54,6.54,0,0,1-5.21,6.62c-1.86.53-3.63,1.38-5.7,2.18-2.12-4.7-4.23-9.35-6.45-14.26,3.33-1.58,6.14-5.19,10.44-2.58a6.72,6.72,0,0,1,.8,3.28L404,413c1.46.56,2.78-.71,4.2.05s2.07,2,3.4,2.57Zm-5.66,1.28c-1.42-.75-2.51-.25-3.57.58.15.92.29,1.66,1.3,1.81C404.69,418.84,405.78,418.41,405.86,416.9Zm-6-4.74c1.21-.38,2-.71,2.07-2C400.47,410,399.86,410.43,399.86,412.16Z"></path><path style="fill:#b5b44a" d="M215.86,46a1.14,1.14,0,0,1-1.09.56c-5.66-7.92-3.24-18.38,5.58-24.15,4.15,7.12,4.85,19.47-1.81,24.19-.67-.08-1.4.07-1.9-.57,1.12-3.37,1.66-6.88,2.45-10.33,2-8.6,2-8.58,1-10.29C216.48,33.55,215.17,39.87,215.86,46Z"></path><path style="fill:#697228" d="M315.33,260.18c-1.91-.54-4.22,0-5.56-2.07,1.19-6.05,4.62-9,10.83-9.74a37,37,0,0,1,11.92.69c-4.59,5.33-8.47,11.17-16.52,10.77C315.78,259.82,315.56,260,315.33,260.18Zm10.31-8.67-11,5.11c4.23-.57,8.26-1.54,11-5.08l.11-.24Z"></path><path style="fill:#697228" d="M377.86,181a12,12,0,0,1-6.17,3c-.88.16-1.83.38-2.57-.45-2.15-5.75.22-10.09,4.34-13.88a37.41,37.41,0,0,1,9.45-5.88C383.16,170.35,381.61,176,377.86,181Zm-.67-8.61L371.71,180c2.6-1.06,5.23-4.81,5.44-7.67Z"></path><path style="fill:#697228" d="M295.86,147.82c-1.31,4.19-3.46,5.19-7.54,3.48-.39-2.29-2.05-4.11-2.08-6.61-.05-5.48,3.38-9.18,6.32-13.17a18.58,18.58,0,0,1,1.52-1.68C297.43,134,298.31,143.11,295.86,147.82Zm-2.41-11.89c-1.77,3.22-1.9,6.18-.69,8.07.21-2.81.44-5.44.66-8.07Z"></path><path style="fill:#697228" d="M378.25,184.63c1.22-1.52,3.18-.93,4.69-1.63,7.53-.57,14.22,5.42,16.87,11.36a44.18,44.18,0,0,1-13.58-.24C381.37,193.22,378.63,189.73,378.25,184.63Zm13.47,6.6-5.29-2.54-.28.66c1.71,1,3.29,2.17,5.57,1.88Zm-9.47-5.2c.53,1.8,1,2.11,3.26,2Zm-1.19-.23c-.13-.13-.26-.26-.34.06l.34,0Z"></path><path style="fill:#697228" d="M173.33,219.3c-2.58.89-4.83.6-6.69-2v-6.11c.62-5.26,4.29-8.45,7.92-11.64.95-.83,2-1.51,3.09-2.29a3.41,3.41,0,0,1,.71,2.17,20.24,20.24,0,0,0,0,9.16C178,212.76,175.86,216.12,173.33,219.3Zm2.62-16c-1.82,4.31-4.33,8.3-5.87,12.73,2.78-3.92,5.21-7.95,5.87-12.78Z"></path><path style="fill:#697228" d="M254.6,164.08c-1.89,3.78-3.42,5.08-6.63,5.6a7,7,0,0,1-2.63-2.58c-2.92-8.27.51-14.55,6.26-20.15C254.73,152.53,255.11,154.72,254.6,164.08Zm-4,.61c2.09-4,1.19-8,.92-12a27.46,27.46,0,0,0-.54,6c0,2-.24,4-.37,6Z"></path><path style="fill:#697228" d="M396.73,179.4v-1.46c4.12-6.9,10.29-8.48,17.38-7.53,1.81.24,3.76-.06,5.63,1.12-4,5.26-8.63,9.56-15.56,10.39A8.61,8.61,0,0,1,396.73,179.4Zm4.43-1c4,.93,12-2.14,13.74-5.54a38.92,38.92,0,0,1-13.74,5.55Z"></path><path style="fill:#efb961" d="M295,304.69l23.23-2a135.44,135.44,0,0,0,20.52-3.14c4.19-1,8.35-2.2,12.51-3.32a17.08,17.08,0,0,1,5.26-.8,3.88,3.88,0,0,1,2.35,1.6c-4.17,0-7.91,1.81-11.73,3.07a93.43,93.43,0,0,1-25.56,4.67c-8.17.34-16.32,1.27-24.47,2a22.13,22.13,0,0,0-3.67,1A5.83,5.83,0,0,1,295,304.69Z"></path><path style="fill:#697228" d="M298,153.43c.26-2.56,3-1.88,4.21-3.24,8.45-.87,14.59,3.08,19.78,9.62l-5,1.13a17.79,17.79,0,0,0-8.64,0C303.48,160.33,299.79,158.17,298,153.43Zm4.9,0c3.89,1.19,7.6,2.89,11.58,3.73-3.55-2.21-7.21-4.13-11.6-3.73Z"></path><path style="fill:#9f703f" d="M289.31,72.72c-1.42,1-2.85,2-2.58,4-1.67.24-2.29,1.8-3.36,2.77-2.49,2.24-4.87,4.6-7.3,6.91-.31-1.64.83-2.83,1.38-4.17a7.06,7.06,0,0,0,.2-5.54c2.87-1.64,4.8-4.29,7-6.61s4.22-4.81,6.33-7.22h2.88c.6-1.28,1.12-2.41,1.64-3.53,2.28-.7,3.06-3.21,5.1-4.2l1.6,1.62c-3.63,5.22-8.09,9.77-12,14.75C289.86,71.91,289.34,72.14,289.31,72.72Z"></path><path style="fill:#697228" d="M143.6,183.51h-2.38c-2.87-1.49-3.11-4.07-3.24-6.71a20,20,0,0,1,8.16-12.92c.61-.44,1.24-.86,1.88-1.3C151.46,172.38,150.43,178.25,143.6,183.51Zm.62-4.49,1.78-9.48-.67-.14c-1.13,3-2,6.15-1.11,9.63Z"></path><path style="fill:#ab2713" d="M302.41,366.11c6.7-1,13.45-.31,20.17-.64a7,7,0,0,0,3-.36c-1.13,5.08-4.34,8.33-9.89,8.95-4.75.53-8.68-1.56-11.52-5.49C303.56,367.75,303,366.93,302.41,366.11Z"></path><path style="fill:#50541b" d="M138.08,205.61c-.29-.61-.85-.63-1.41-.67-1.32-3-3-5.74-2.8-9.22A19.53,19.53,0,0,1,137,186.1a34.16,34.16,0,0,1,7.69,12.26C143.35,201.54,141.79,204.57,138.08,205.61Z"></path><path style="fill:#b5b44a" d="M459.59,376.16c-1.18,1.35-1.75,2.85-3.63,3.46s-2.31,3.41-1.46,5.08c1.11,2.19,2.89,2.68,5.65,1.49l.92-2.68h3.72c.57,2.89-1.1,6.59-3.36,7.44A8.71,8.71,0,0,1,451,387.29a8.44,8.44,0,0,1,1.9-10.82C455.42,374.22,456.94,374.1,459.59,376.16Z"></path><path style="fill:#e4a34a" d="M314.42,269.89c.44,3.19,2.08,5.88,3.6,8.63-.1.52-.25,1-.89,1.07L301,281.15a6.48,6.48,0,0,0,.58-1.65c.27-3.43,2.3-5.52,5.19-7A30.8,30.8,0,0,1,314.42,269.89Z"></path><path style="fill:#9f703f" d="M71.05,276.66l.68-.19c4.36.95,8.66,2.19,13.12,2.63,2.41.58,4.66,1.91,7.28,1.59.73-.09,1.53.12,2-.65,3.88.76,7.65,2.26,11.72,1.67.32,1.29.65,2.57,1,3.86l-4.56-.21c-.4-.91-1.05-1.73-2.06-1.55-2.68.49-5.32-.48-8,0-4-1.93-8.54-1.55-12.77-2.56-2.93-.69-5.93-1.06-8.9-1.57L70,279C70.08,278.08,71.38,277.72,71.05,276.66Z"></path><path style="fill:#efb961" d="M323.74,339c-7.27-.2-14.46.93-21.69,1.35-5.47.31-10.88,1.43-16.39,1.08a2.64,2.64,0,0,1,2.58-2l.59-.54h-.08c5.27.32,10.43-.78,15.63-1.3,5.54-.55,11.08-1.14,16.62-1.71,1.76-.18,3.53-.33,5.29-.49Z"></path><path style="fill:#b5b44a" d="M411.55,415.65c.49-1-.06-2-.06-3,0-3.76,2.43-6.46,6.18-6.57,1.82-.06,2.87,1.18,3.73,2.6-.87,2.33-3.1,3.62-4.21,5.86,2.52.87,3.34-1.2,4.66-2.4a3.91,3.91,0,0,1,1.76,1.77c-1.1,1.93-2.34,3.61-4.67,4.33-2.91.9-4.3.58-6.2-1.83-.3-.38-.31-1.3-1.22-.83Zm5.11-6.32a2.36,2.36,0,0,0-2.17,2.52s0,.11,0,.16A3.73,3.73,0,0,0,416.66,409.33Z"></path><path style="fill:#b5b44a" d="M478.65,377.22c2.72-.52,2.72-.52,5.46-3.37.93.15,1.2,1,1.77,1.5-1.48,3.84-4,5.83-6.88,5.48-2.13-.26-4.52-3.16-5-6.13a6.3,6.3,0,0,1,2.85-6.08c2.37-1.23,5.11-.52,7.37,2Zm.49-6.18c-1.87.55-2.34,1.48-2.08,3.36a5.36,5.36,0,0,0,2.08-3.37Z"></path><path style="fill:#b5b44a" d="M445.34,393.21c0,2.72-1.87,4.39-3.12,6.36,1.87.66,1.87.66,4.67-3.34l2,1.76c-2.61,5-6.13,6.87-9.48,5.08-2.9-1.54-4.29-5.5-2.82-8C438.53,391.72,441.86,391,445.34,393.21ZM439.67,398c.74-1.11,1.5-1.59,1.33-2.78C439.29,395.41,439.28,396.35,439.67,398Z"></path><path style="fill:#b5b44a" d="M375.91,418.19c5.63,1.26,3.12,6.35,5.4,8.95-6.51,4.08-9.12,3.91-11.22-.76a10,10,0,0,1,6.28-3.31c-.41-2-1.54-1.65-2.7-1.14-1,.44-1.79,1.3-3.11,1.36-.59-.89-.32-1.9-.37-3C372,418.85,374.23,418.84,375.91,418.19Zm.95,7.19c-1.32,0-2,.28-2.38,1.31C375.54,426.91,376.2,426.62,376.86,425.38Z"></path><path style="fill:#efb961" d="M377.36,325.92c-2,1.39-4.46,1.32-6.69,1.93-6.47,1.75-12.83,3.85-19.18,6-1.79.6-4,.2-5.33,2l-3-2.93c5.47-.88,10.65-2.79,16-4.27a161.44,161.44,0,0,1,15.73-4C375.39,325.66,376.6,325.37,377.36,325.92Z"></path><path style="fill:#b5b44a" d="M381.74,419.91l-1.22-.51a1.55,1.55,0,0,1-.08-.36v-1.88c.41-.67,1.29-.36,1.57-1.31v-3.07a4.88,4.88,0,0,1,3.86-.5c-.72,1.66-.73,1.84-.21,3.24.28,0,.58-.1.89-.13a7.83,7.83,0,0,1,.84,0c.07.87.14,1.7.19,2.35-.42,1-1.53.65-2,1.53a10.58,10.58,0,0,0,.79,4.16c1.21.7,1.95-.2,3,0,.19,1,.39,2,.6,3.09a8.26,8.26,0,0,1-5.23,1.31C382.53,425.68,382.38,422.73,381.74,419.91Z"></path><path style="fill:#4f531a" d="M282.54,390a5.11,5.11,0,0,1-2.41-3c.46-2.29,1-4.47,3.89-5.17a7.63,7.63,0,0,1,7.29,1.72C291.61,388.8,289.51,390.33,282.54,390Z"></path><path style="fill:#b5b44a" d="M432,409c-.11.91-.22,1.82-.34,2.77-1.44,1.44-3.34,1.81-5.29,2.2-3.53-3.7-5.11-8.29-6.07-13.13-.34-1.71.4-3.09,2.21-4.22l4.63,12.79c1.82.63,3.27-.78,4.88-.39Z"></path><path style="fill:#b5b44a" d="M432,409c-1.51-3.25-3.05-6.48-4.52-9.75-.59-1.3-1-2.68-1.6-4.21l3.09-1.9c2.06,3.8,2,8.55,5.38,11.06,1.7.57,2.75-.62,4-.18.74,1.43-.21,2.69-.15,3.88-2,1.66-4.17.8-6.19,1.08Z"></path><path style="fill:#b5b44a" d="M468.12,386.63l-5.45-9.91c1.35-.34,2.07-1.54,3.36-2.13l1.88,1.32,1.81-2.69c.86.47,1.1,1.53,2.3,1.79-1.08,1.41-2.31,2.39-2.86,4l2,5.82Z"></path><path style="fill:#e8ad20" d="M263.92,361.35a4.34,4.34,0,0,1-2.64-.18,15.35,15.35,0,0,1,.46-8.9l1-.15c1.09.37,2.1,1.11,3.38.59,1.18,1.51,2.81,1.84,4.48,2.1,1.67,3.25.16,5.52-4.13,6.21-1.82-2.29-1.67-5.06-1.41-8C262.24,354.82,262,357.23,263.92,361.35Zm3.29-4.18c.91.08,1.48-.13,1.06-1.22-.07-.19-.35-.3-.54-.45C267.06,355.91,266.63,356.34,267.21,357.17Z"></path><path style="fill:#e8ad20" d="M271,466.15c2.06-.21,4.14-1,6.18.11.36,3.38-.89,5.81-4.15,7.11a6.9,6.9,0,0,0-1.57,1.22c-3.5-2.24-3.82-4.11-1.43-8.39Zm1.06,3.88c1.22,0,2.07-.19,2.37-1.25-.1-.88-.73-1.21-1.2-1.72C272.86,468,272.51,468.88,272.06,470Z"></path><path style="fill:#8dd3c8" d="M279.63,465.8a4.06,4.06,0,0,0,3.71-.5c.88-1-.39-2,.46-3.06h5.61c.33,1.89-.33,3.93.85,5.52-.19,1.46-2.31.56-2.25,2.15-.79-.74-1.57-1.52-2.81-1l-2.53-1-2.81-1.49Z"></path><path style="fill:#efb961" d="M301,281.15l16.12-1.56c.64-.06.79-.55.89-1.07l2,2.14c-1.91,1.62-4.32,1.16-6.5,1.48-4.17.63-8.41.45-12.6,1a8.65,8.65,0,0,0-3.89,1.62C297.13,282.2,299.34,282,301,281.15Z"></path><path style="fill:#4f531a" d="M282.67,467.85l2.53,1c.63,3.78-1.1,6.77-3.26,9.61-1.49.06-3,.36-4.38-.51C280.76,475.37,282,471.76,282.67,467.85Z"></path><path style="fill:#585e1a" d="M423.8,453.43v-3.2c.26-.55.84-.43,1.38-.7l1.42,6.77c-3.18.82-3.69-2.64-5.8-3.22-.41,1.46.84,2.76.34,4.3-.86.35-1.87.3-1.75-.81.23-2.21-2-4.6.27-6.75C421.52,450.54,422.06,452.41,423.8,453.43Z"></path><path style="fill:#585e1a" d="M469.86,437.93c.4,1,1.37,1.72,1.5,2.88-1.69.29-4.49-3-5.2-6.19,2.42-.17,4.37,1.35,6.59,1.72.47-1.63-2.5-2.57-.89-4.61a17.14,17.14,0,0,1,4.28,5.87c-2,1.7-3.86-.13-5.7-.13a.71.71,0,0,0-1-.28l0,0C469.36,437.61,469.64,437.76,469.86,437.93Z"></path><path style="fill:#e8ad20" d="M282.67,467.85c-.65,3.91-1.91,7.52-5.11,10.15a4.63,4.63,0,0,1-3.36-1.52,10.76,10.76,0,0,0,5.66-10.06Z"></path><path style="fill:#585e1a" d="M400.31,452.72a3.42,3.42,0,0,1,3,1.77,30.26,30.26,0,0,0,2.31,2.62c.37-1.94-1.43-4,1.15-5.43.39,2.8.73,5.27,1.08,7.82-3.08.58-3.42-3-5.91-3.78l.76,3.34c-.4.58-.93.62-1.71.23C400.86,457.22,400.1,455.13,400.31,452.72Z"></path><path style="fill:#585e1a" d="M430.47,449.67a3.9,3.9,0,0,1,4.32-3c.73,0,1.68-.1,1.24,1.4-2-.59-3.22.5-3.93,2.26a1.9,1.9,0,0,0,.56,2.32c1,.65,2.32,1.06,3.3-.15.71-1.47-.77-1.54-1.68-2.1a3.35,3.35,0,0,1,3.07-.36c.26,1.27.53,2.55.79,3.8C433.39,455.94,431.71,455,430.47,449.67Z"></path><path style="fill:#697228" d="M187.11,451.93c2-1.93,3.95-4,7.17-4.16-.73,5.15-5.15,6.3-8.22,8.75-.92-1.14-.33-2.46-.41-3.7l.82.1C187,452.76,187.05,452.36,187.11,451.93Z"></path><path style="fill:#697228" d="M177.47,442.65c2.46-1.4,5.23-1.54,7.92-2a6.29,6.29,0,0,1-.49,4.66c-1,.13-.84.9-.88,1.56C180.75,447.14,179.15,444.83,177.47,442.65Z"></path><path style="fill:#585e1a" d="M390.68,461.26c-2-2-.72-4.84-1.52-7.06,1.57-1.21,3.07-.58,4.48-.76,2.06,1.24,2.26,2.62.36,4.1.15,1.35,1.22,2.11,1.61,3.22-1.36.23-1.35.22-2.08-.68-.56-.7-.93-1.61-2-2v2.76Zm.58-4.62c.67.1,1.24.28,1.87-.37.46-1.58-.36-1.87-1.74-1.64A1.92,1.92,0,0,0,391.26,456.64Z"></path><path style="fill:#4f531a" d="M279.86,466.42a10.77,10.77,0,0,1-5.63,10.06,5.13,5.13,0,0,1-2.74-1.89,6.9,6.9,0,0,1,1.57-1.22c3.26-1.3,4.51-3.73,4.15-7.11l2.45-.46Z"></path><path style="fill:#e8ad20" d="M281.94,478.51c2.16-2.84,3.89-5.83,3.26-9.61,1.24-.51,2,.27,2.81,1,.29.65.57,1.29.85,1.94-1.78,2.07-1.91,5-3.6,7.1C284.14,478.92,283,479.37,281.94,478.51Z"></path><path style="fill:#585e1a" d="M306.77,464.38c-1.87,1.93-3.75,1.15-5.55,1.37-.58-2.53-1.14-5-1.7-7.41,1.66-.75,3.43.23,4.91-.77a2.15,2.15,0,0,1,.16,1.91l-2.73.17a1.63,1.63,0,0,0,.22,1.93l2.92-.77c1.4,3.1-3.55.57-2.8,3.14C303.48,464.62,304.86,463.76,306.77,464.38Z"></path><path style="fill:#585e1a" d="M369.8,457c.83,1.13,2.11.08,2.93,1-.55,1.64-2.86.37-3.37,2,1.11,1.13,2.4-.13,3.56.26.56.48.15,1.1.36,1.79h-5v-7.12l4.33-.42.3,1.19C372,456.61,370.33,455.21,369.8,457Z"></path><path style="fill:#585e1a" d="M495.27,412.09c.15.75.3,1.48.43,2.12.83.79,2.44-.16,2.75,1.53-1.26,1.18-2.67-.29-4,.12,0,1.3,1.5,1.09,1.77,2-1.44,1.18-3.55,0-6.55-3.85C491,412,492.39,410.57,495.27,412.09Zm-2.2,3.37c.83-.57,1.28-1,1-1.8-1.4-.52-2.23-.31-2.24.73Z"></path><path style="fill:#697228" d="M185.48,465.18c-.22.8-.86,1.2-1.76,1.77-2.68-1.69-5.37-3.37-7.08-6.82,4.19-.52,6.31,2,8.43,4.58Z"></path><path style="fill:#585e1a" d="M462.14,438c-.14,2-1.94,1.9-2.52,3-.1.65.41.85.76,1.16,1.09-.08,1.38-1.28,2.43-1.57l.95.88L461,444c1.79,2.3,2.62-.93,4.23-.44-.06,2.19-2.4,2.11-3.36,3.43-2.21-1.62-3.12-4-4.68-6.2C458.86,439.75,460,438.17,462.14,438Z"></path><path style="fill:#585e1a" d="M312.59,457.18a3.18,3.18,0,0,1,2.53,0l3.25,6.21c-1.36.83-1.83-.44-2.46-.86h-3.24c-.37.92-.54,2.15-2.18,1.41Q311.52,460.64,312.59,457.18Zm.48,4.24a2.13,2.13,0,0,0,2.19-.59c-.36-.66-.47-1.46-1.32-1.65-.7.59-.6,1.39-.87,2.24Z"></path><path style="fill:#585e1a" d="M483.06,421.4l3.32-3.45c1.42,2-.78,2.24-1.17,3.28.1.72.71,1.06,1.29,1.55.7-.86,1.38-1.71,2.12-2.64,1.85.68.75,1.55.17,2.35s-2,1.23-.45,2.28c1.46,0,1.43-2.21,3.36-1.84a5.79,5.79,0,0,1-3.83,3.62Z"></path><path style="fill:#585e1a" d="M327.05,460l1.78,2.52c-2.34.68-2.15-2.44-4-2.47-.75.63.32,2.08-1.11,2.48-1.15-2.08-.32-4.48-1.14-6.8,1.47-.19,2.73-.93,4.31-.69C329.15,456.48,328.31,458.19,327.05,460Zm-3-3.06c.92,1.74,1.69,1.31,2.73.55-.74-1.27-1.5-1.12-2.69-.58Z"></path><path style="fill:#b5b44a" d="M265.86,483.08c-1.8-.38-3.25.84-4.91,1.1.78-2.49.23-5.08.42-7.93.89,1-.13,2.33,1.2,3,.62,0,.55-1.31,1.42-1.22,1.08.12.38,1.34,1.13,1.78l2.1-2.46.17.13C267.1,479.43,265.58,481,265.86,483.08Z"></path><path style="fill:#585e1a" d="M452.93,443.42c-3.5.63-3.61.76-3.53,3.93a3.63,3.63,0,0,0,2.19,1.91l3.67-1.1.21.68c-2.5,2.44-4.54,2.68-6.45.75a4.83,4.83,0,0,1-.1-6.42C450.33,441.81,451.53,441.84,452.93,443.42Z"></path><path style="fill:#585e1a" d="M382.79,459.73h-2.15c-1.28.35-1.09,2.5-3,1.64.84-2.54,1.41-5.09,3.41-7.37,2.19,2.25,3.05,4.83,4.07,7.4C383.32,462.19,383.69,460.16,382.79,459.73Zm-.74-1.24c-.11-.84-.25-1.48-.93-1.88a1.94,1.94,0,0,0-.59,1.88Z"></path><path style="fill:#50541b" d="M185.48,465.18l-.41-.47c1.68.27,1-1.08.93-1.62-1-5.37-1.37-10.81-2-16.23,0-.66-.1-1.43.88-1.56l.75,7.52c.08,1.24-.51,2.56.41,3.7.11,4.51,1.39,8.94,1,13.86C186,468.55,187.1,466.44,185.48,465.18Z"></path><path style="fill:#585e1a" d="M344.06,462.35c.57-3-.85-5.47-2.54-7.86,1.25-.23,1.25-.23,3.34,2,1-.68,1.07-2.78,3.19-1.88-.94,2.29-3,4.26-2.18,7.15C346,462.36,345.26,462.68,344.06,462.35Z"></path><path style="fill:#4f531a" d="M261.74,352.27a15.35,15.35,0,0,0-.46,8.9,5.49,5.49,0,0,1-2.71-1.1c-.71-2.65-1.15-5.28.72-7.69C260.1,352.23,260.86,351.56,261.74,352.27Z"></path><path style="fill:#e8ad20" d="M161.77,425.84c1.93-.7,3.84-1,5.58.24,1.12,2.64-.74,3.79-2.21,5.11C162.66,430.26,161.91,428.24,161.77,425.84Zm2.71.79a1.33,1.33,0,0,0-.07,1.88l.07.07c1-1.14,1-1.14,0-1.95Z"></path><path style="fill:#4f531a" d="M285.26,479c1.69-2.11,1.82-5,3.6-7.1l1.42,1c.3,1.61-.25,3.16-.38,4.74A8.13,8.13,0,0,1,285.26,479Z"></path><path style="fill:#e8ad20" d="M378.25,297.42c-1.86.21-2.75-1.22-3.87-2.19.25-1.86.75-3.48,2.43-4.43A6.17,6.17,0,0,1,378.25,297.42Z"></path><path style="fill:#585e1a" d="M478.17,428.41c-1.17.27-1.72,1.53-3.32,1.24,1-2.38,3.34-3.09,4.54-4.89,1.14,1.23,1.14,1.23.15,2.75.58,2,3.13,3,3,5.88C480.47,432,479.55,430,478.17,428.41Z"></path><path style="fill:#585e1a" d="M360.41,454.6v6c.81,1.51,3-.67,3.2,1.85H359c-.22-2.42-.44-4.83-.66-7.3C358.8,454.34,359.58,454.68,360.41,454.6Z"></path><path style="fill:#585e1a" d="M334.92,461c1.23.79,2.89-.68,3.06,1.61h-4.57a38,38,0,0,0-.62-6.81c.51-.91,1.21-.71,2.13-.67Z"></path><path style="fill:#585e1a" d="M189.16,473.9a4,4,0,0,1-1.61-3.12c.6-1.07,2-1.53,2.2-2.89l2.93-.29c.46,1.91-2.4,2.61-1.51,4.62Z"></path><path style="fill:#4f531a" d="M263.92,361.35c-1.88-4.12-1.68-6.53,1.15-8.38-.26,3-.41,5.76,1.41,8C265.72,361.87,264.79,361.4,263.92,361.35Z"></path><path style="fill:#e8ad20" d="M259.29,352.38c-1.87,2.41-1.43,5-.72,7.69a3,3,0,0,1-2.45-1.41c0-2.31-.37-4.69,1.11-6.76h1.87Z"></path><path style="fill:#4f531a" d="M161.77,425.84c.14,2.4.89,4.42,3.37,5.35a1.65,1.65,0,0,1-1.45,1.18c-2.39-1-3.26-3.39-4.69-5.26v-.2l1.42-1.07Z"></path><path style="fill:#e8ad20" d="M158.62,434.16c-.82.63-1.76.36-2.67.34-1.48-1.06-1.21-3.44-3.13-4.17l1-.84,1.7-.61C156.59,430.64,157,432.74,158.62,434.16Z"></path><path style="fill:#4f531a" d="M158.62,434.16c-1.61-1.42-2-3.52-3.06-5.28a4.86,4.86,0,0,1,2.34-.94,10.6,10.6,0,0,0,3.34,5.56C160.56,434.48,159.49,433.91,158.62,434.16Z"></path><path style="fill:#e8ad20" d="M161.24,433.5a10.6,10.6,0,0,1-3.34-5.56l1.1-.83c1.43,1.87,2.3,4.25,4.69,5.26C163,433,162.34,433.74,161.24,433.5Z"></path><path style="fill:#4f531a" d="M380.64,289.87a2.68,2.68,0,0,1,2.22-1,11.4,11.4,0,0,1,1.8,5.55,3.62,3.62,0,0,1-2.27,1.48A8.29,8.29,0,0,0,380.64,289.87Z"></path><path style="fill:#4f531a" d="M378.25,297.42a6.17,6.17,0,0,0-1.44-6.62c.67-.78,1.58-.3,2.37-.46a10.39,10.39,0,0,1,1.22,6.21A2.4,2.4,0,0,1,378.25,297.42Z"></path><path style="fill:#8dd3c8" d="M159,427.11l-1.1.83a4.86,4.86,0,0,0-2.34.94l-1.7.61c-.84-.81-2.22-1.3-1.91-2.84,1-.41,1.24.67,2.15.6,1.39-1.35,3.11-1.07,4.87-.34Z"></path><path style="fill:#e8ad20" d="M380.4,296.55a10.39,10.39,0,0,0-1.22-6.21c.34-.63.93-.45,1.46-.47a8.28,8.28,0,0,1,1.75,6.06A2.81,2.81,0,0,1,380.4,296.55Z"></path><path style="fill:#8dd3c8" d="M259.29,352.38l-.19-.49c0-1.14-1.72-1.45-1.29-2.86.84-.81,2.08,0,3.06-.65l1.88,3.74-1,.15C260.86,351.56,260.1,352.23,259.29,352.38Z"></path><path style="fill:#585e1a" d="M413.86,459.18c-1.66-1.82-1.08-4.41-1.79-6.55-.3-.91.52-1.08,1.41-1.16.37,2.45.74,4.92,1.11,7.39Z"></path><path style="fill:#697228" d="M152.86,430.33c1.92.73,1.65,3.11,3.13,4.17-2.17.16-3.78-.83-5.29-2.59Z"></path><path style="fill:#e8ad20" d="M384.66,294.45a11.4,11.4,0,0,0-1.8-5.55,2,2,0,0,1,1.5-.58,11.35,11.35,0,0,1,2.16,4.39A5.17,5.17,0,0,1,384.66,294.45Z"></path><path style="fill:#8b5f33" d="M386.52,292.71a11.35,11.35,0,0,0-2.16-4.39c1-.9,2.33-.19,3.49-1.24C388,289.37,388,291.21,386.52,292.71Z"></path><path style="fill:#4f531a" d="M257.23,351.9c-1.48,2.07-1.1,4.45-1.11,6.76a5.81,5.81,0,0,1-2.13-2.45c-.06-1.58,1.22-2.58,1.72-3.93C256.15,351.89,256.59,351.49,257.23,351.9Z"></path><path style="fill:#b5b44a" d="M493.8,432.85c-.17,2.42-2.86,5-4.65,4.88Z"></path><path style="fill:#b5b44a" d="M438,317.08c-2.44-.63-3.69-2.46-4.86-4.48Z"></path><path style="fill:#e8ad20" d="M289.86,477.58c.13-1.58.68-3.13.38-4.74a8.33,8.33,0,0,1,3,1.79A9,9,0,0,1,289.86,477.58Z"></path><path style="fill:#b5b44a" d="M378.46,468.75c1.91-1,3.9-.75,5.9-.42A10.69,10.69,0,0,1,378.46,468.75Z"></path><path style="fill:#b5b44a" d="M440.13,292.29c-2.15.63-4.49.63-6.28,2.27C434.77,292.3,436.38,291.7,440.13,292.29Z"></path><path style="fill:#b5b44a" d="M248.63,299.17c-.83,2.09-2.69,3.56-3.32,5.88C244.38,303.42,245.57,301.27,248.63,299.17Z"></path><path style="fill:#b5b44a" d="M237.75,329.64c.94,2.9-.39,5.66,2.17,7.37C237.41,336.43,236.71,334.16,237.75,329.64Z"></path><path style="fill:#b5b44a" d="M243,310.48c1.19,1.67-.91,2.19-1.13,3.33s-.36,2.36-.61,4C240.36,314.51,240.7,313.24,243,310.48Z"></path><path style="fill:#b5b44a" d="M416.34,300.23c2.83,1.31,4.22,3.19,6.37,4.71C420.72,304.89,418.17,303,416.34,300.23Z"></path><path style="fill:#b5b44a" d="M440.78,305a12.68,12.68,0,0,1,6.4-2.18A13.21,13.21,0,0,1,440.78,305Z"></path><path style="fill:#b5b44a" d="M243.29,319.71l-3.43,5.48-.61-.38A7.78,7.78,0,0,1,243.29,319.71Z"></path><path style="fill:#b5b44a" d="M397.79,467.17c-2,1.42-4.21,1.13-6.43.7C393.4,466.85,395.66,467.59,397.79,467.17Z"></path><path style="fill:#b5b44a" d="M410,275.35a6.74,6.74,0,0,1,1.94,6.55Q410.93,278.62,410,275.35Z"></path><path style="fill:#b5b44a" d="M470.05,340.6c-.18,2.35-.35,4.71-2.53,6.32C468.6,344.9,468.86,342.58,470.05,340.6Z"></path><path style="fill:#b5b44a" d="M371.09,469.42H364.7l-.07-.51,6.36-.35Z"></path><path style="fill:#b5b44a" d="M318.36,470.08a10.14,10.14,0,0,1-6.45,1.22C313.93,470.19,316.19,470.25,318.36,470.08Z"></path><path style="fill:#b5b44a" d="M470.16,334.39l-2.6-6c2.24,1.36,2.58,3.66,3.33,5.77Z"></path><path style="fill:#b5b44a" d="M412.19,288.48a25.11,25.11,0,0,0,2.07,6.14A4.62,4.62,0,0,1,412.19,288.48Z"></path><path style="fill:#b5b44a" d="M244.06,330c-1.73-1.31-1.95-3.15-2-5C243.62,326.34,243.35,328.39,244.06,330Z"></path><path style="fill:#b5b44a" d="M456.93,321.18a11.88,11.88,0,0,1,6.18,2.48C460.92,323.15,458.7,322.75,456.93,321.18Z"></path><path style="fill:#b5b44a" d="M394.52,268.68c.76-2.23,1.93-4.07,4.59-4.24C397.3,265.55,396.08,267.27,394.52,268.68Z"></path><path style="fill:#b5b44a" d="M246.34,348.28a10.58,10.58,0,0,1-4-5A11.52,11.52,0,0,1,246.34,348.28Z"></path><path style="fill:#b5b44a" d="M473.49,449.71c-1.29,1.77-3.23,2.46-5.27,3A10.18,10.18,0,0,1,473.49,449.71Z"></path><path style="fill:#b5b44a" d="M456.1,457.22l5.53-2.63.29.66C460.25,456.55,458.49,457.66,456.1,457.22Z"></path><path style="fill:#b5b44a" d="M437.13,462.32a14.46,14.46,0,0,1-6.59,2A12,12,0,0,1,437.13,462.32Z"></path><path style="fill:#b5b44a" d="M409.71,268.79c-1.23-2.18-2.28-4-5.22-4.06C407.31,263.54,409.4,265.31,409.71,268.79Z"></path><path style="fill:#b5b44a" d="M391.48,274.54c.8,2.76.09,4.67,0,6.78C390.49,279.86,390.48,279.39,391.48,274.54Z"></path><path style="fill:#b5b44a" d="M249.65,316.54l6.11.63-.07.7c-2.09.32-4.08-.33-6.11-.6Z"></path><path style="fill:#e8ad20" d="M255.71,352.28c-.5,1.35-1.78,2.35-1.72,3.93a3.38,3.38,0,0,1-.94-3.6C253.86,352,254.86,352.35,255.71,352.28Z"></path><path style="fill:#b5b44a" d="M252.76,292.43c1.42-1.33,2.67-2.89,4.58-3.58l.44.56-4.59,3.85Z"></path><path style="fill:#8e9131" d="M351.86,469.31a10.64,10.64,0,0,1,6.32,0Z"></path><path style="fill:#b5b44a" d="M338.8,469.36a10.65,10.65,0,0,1,6.1-.15C342.91,470.15,340.86,469.81,338.8,469.36Z"></path><path style="fill:#b5b44a" d="M450.68,320.34c-1.7.78-4.3.44-6.42-.74C446.61,319.22,448.62,320.16,450.68,320.34Z"></path><path style="fill:#b5b44a" d="M498.73,428.09c.65-2.51,2.65-3.41,3.45-5.25C503,424.32,502.15,425.65,498.73,428.09Z"></path><path style="fill:#b5b44a" d="M428,306.42l5.78.8C431.76,307.94,429.79,308.14,428,306.42Z"></path><path style="fill:#b5b44a" d="M431.09,299.32c.67,2.32.3,4.32.31,6.46C430.27,304.4,430.14,302,431.09,299.32Z"></path><path style="fill:#b5b44a" d="M305.69,472.94l-5.83,1.89C300.86,473.17,302.46,472.55,305.69,472.94Z"></path><path style="fill:#b5b44a" d="M422.64,465.17a7.43,7.43,0,0,1-6,.72A12.64,12.64,0,0,1,422.64,465.17Z"></path><path style="fill:#50541b" d="M271,466.15h-1c-.62-1.92-1.5-3.82-.16-6.6C269.86,462.35,270,464.36,271,466.15Z"></path><path style="fill:#b5b44a" d="M450.27,297.94a6.41,6.41,0,0,0-3.81-4.67C449.36,293.36,450.49,294.71,450.27,297.94Z"></path><path style="fill:#b5b44a" d="M250.59,333.22a8.44,8.44,0,0,1,5.28.17A7.67,7.67,0,0,1,250.59,333.22Z"></path><path style="fill:#b5b44a" d="M443.31,460.31l5-.77.14.8C446.76,460.63,445.19,461.5,443.31,460.31Z"></path><path style="fill:#8e9131" d="M331.12,469.37c-1.68.92-3.44.44-5.2,0Z"></path><path style="fill:#b5b44a" d="M480.19,445.66c.92-1.46,2.25-2.28,4.37-3.19C483.28,444.64,481.67,445.08,480.19,445.66Z"></path><path style="fill:#8e9131" d="M410.13,466.18c-1.56,1.33-3.33,1.21-5.14.81Z"></path><path style="fill:#585e1a" d="M271.72,459c-.47-.59-1.29-.71-1.3-1.58a1.22,1.22,0,0,1,1.19-.94C272.74,456.73,272.86,457.51,271.72,459Z"></path><path style="fill:#585e1a" d="M178.33,208.56a20.24,20.24,0,0,1,0-9.16Q178.35,204,178.33,208.56Z"></path><path style="fill:#585e1a" d="M308.29,161a17.79,17.79,0,0,1,8.64,0A62.28,62.28,0,0,1,308.29,161Z"></path><path style="fill:#585e1a" d="M273.61,459.52l2.55-1c.89.34,1.63.68,1.06,2.16C276.43,459.37,275.27,459.55,273.61,459.52Z"></path><path style="fill:#8e9131" d="M507.66,414.67c.58,1.42,0,2.34-1.42,3.22C506.19,416.39,507.16,415.64,507.66,414.67Z"></path><path style="fill:#50541b" d="M271.94,349.86c1-.38,1.52-.14,1.92.54a.76.76,0,0,1-.58.9h0C271.86,351.72,271.86,350.91,271.94,349.86Z"></path><path style="fill:#b5b44a" d="M265.06,283.82c-1,1.11-2.05,1.44-3.62,2.12A3.56,3.56,0,0,1,265.06,283.82Z"></path><path style="fill:#522301" d="M281.63,92.61a10.71,10.71,0,0,1-6.53,0Z"></path><path style="fill:#4f531a" d="M165.8,420.16c.69-1.17,1.48-1.4,2.42-.11C167.39,420.62,166.57,419.78,165.8,420.16Z"></path><path style="fill:#585e1a" d="M372.26,290.31a1.38,1.38,0,0,1-1.8.43,1.92,1.92,0,0,1,.15-.67C371.23,289,371.72,289.38,372.26,290.31Z"></path><path style="fill:#4f531a" d="M270.26,348.75c.35.81-.38,1.12-.55,1.82a3.11,3.11,0,0,0-2.18-1.82Z"></path><path style="fill:#8e9131" d="M260.51,321.88a11.87,11.87,0,0,1-.07,5.59A12.86,12.86,0,0,1,260.51,321.88Z"></path><path style="fill:#697228" d="M161,422.28c1.31-1.32,2.13-1.79,3.35-.72Z"></path><path style="fill:#50541b" d="M373.47,289.63c-.46-1.1-.52-2,1.1-2.28C374.75,288.44,373.24,288.64,373.47,289.63Z"></path><path style="fill:#8b5f33" d="M201.48,417.69a4,4,0,0,1,0,4Z"></path><path style="fill:#b5b44a" d="M371.59,294c-1-.49-.72-1.2-.21-2.23l.44,2Z"></path><path style="fill:#b5b44a" d="M176.64,471.62a1.49,1.49,0,0,1,.09,1.5C176.21,472.72,176.32,472.27,176.64,471.62Z"></path><path style="fill:#b5b44a" d="M165.51,473c-.41-.35-.51-.77-.21-1.51l.63,1.15Z"></path><path style="fill:#b5b44a" d="M267.24,477.38l.32-.85c.43.52.25.78-.15,1Z"></path><path style="fill:#50541b" d="M187.11,451.93c-.06.43-.16.83-.64,1Z"></path><path style="fill:#e4a34a" d="M288.86,338.9l-.59.54Z"></path><path style="fill:#b5b44a" d="M371.86,293.79l.42.45c-.4.2-.54,0-.65-.2Z"></path><path style="fill:#8b5f33" d="M201.44,413.59a4,4,0,0,1,.2.35l-.18.14A.64.64,0,0,1,201.44,413.59Z"></path><path style="fill:#fdfdfd" d="M167.3,248.82a4.69,4.69,0,0,0,2.9-2.71l-3.58-2.23c.39-.64.76-1.3,1.19-1.92,1.55-2.21.82-5-1.72-5.65a6.69,6.69,0,0,0-6,1.28c-.7.76-.53,1.56-.63,2.3-2.27.34-4.41-.43-6.61-.73,1.26-2.87,3-4,5.93-3.7-.47-1.66-2-1.21-3.18-1.85a2.38,2.38,0,0,1-1.94,2.52c-.57-.71-.07-2.09-1.68-2.3a1.31,1.31,0,0,0-1.34,1.27c-.59,1,.77.55.83,1.23-.41,1.08-1.13,2.3-.07,3.55-2.32,4.18-1.82,6.33,1.92,8.16h0c0,.42.28.45.6.43l.34.17a1.91,1.91,0,0,0,2.41.94c1.08,1.2,2.45,1,3.83.83a5.26,5.26,0,0,0,3.36-.37,5.14,5.14,0,0,0,3.44-1.21Z"></path><path style="fill:#8b5f33" d="M221.24,454.42a5.71,5.71,0,0,1-.38-3.39c.65-6.76,1.34-13.55.88-20.32-.58-8.69-.72-17.41-1.81-26.09-.82-6.54-1.18-13.13-2.12-19.67-1.12-7.78-2.35-15.54-3.64-23.3-1.54-9.27-3.47-18.45-5.61-27.6q-3.13-13.33-6.39-26.65c-.44-1.82.05-3.67-.52-5.47,1.77,3.12,2.27,6.6,3.22,9.93,3.42,12.15,6.7,24.34,9,36.77,1.73,9.47,3.51,18.94,5,28.47,1.14,7.27,1.94,14.57,2.88,21.86.58,4.45.66,9,1.15,13.41.66,5.91.48,11.85.85,17.78.33,5.12-.42,10.31-.74,15.47a39.44,39.44,0,0,1-.61,6.32A3.47,3.47,0,0,1,221.24,454.42Z"></path><path style="fill:#8b5f33" d="M202.72,287c-6.58-20,6.55-118,17-123.71C205.86,203.82,201.86,245,202.72,287Z"></path><path style="fill:#697228" d="M129.86,236.27c6.09-3.74,9.47-4.57,16.7-4.09-.72,7.39-7.73,18.51-19.22,16.79l-2.09-2C127.22,243.59,126,238.9,129.86,236.27Zm-.64,8.4c3.29-2.28,7.14-3.7,9.89-6.8-3.73,1.65-7.25,3.52-9.92,6.8Z"></path><path style="fill:#50541b" d="M153.86,304.17c.25,1.82.61,3.62.71,5.44a11.89,11.89,0,0,1-3.67,9.33,3.09,3.09,0,0,1-2.61,1.08c-2.75-1.74-4-4.62-5.07-7.63a.33.33,0,0,0-.43-.18.3.3,0,0,0-.14.11h0c-1-6.15,1-11.79,3.13-17.39,1.88-.73,3,.4,4,1.69C151.61,298.92,152.48,301.68,153.86,304.17Zm-5.14-4.82c1,5.47.43,11,1,16.51.58-5.56,1.31-11.12-1-16.51Z"></path><path style="fill:#8b5f33" d="M201.93,473.94c-1.23.73-.7,2.31-1.52,3.46-1-1.31-.07-2.59-.39-4.08-1.92,2.57-.9,5.78-2.68,8.43v-10.4c1-.79,1.71,0,2.8.5A105.56,105.56,0,0,0,207.56,436c.53-12.26-2.21-24.27-3.14-36.95,2.6,2.76,6,32.48,5.59,37.88C209,449.72,207,462.15,201.93,473.94Z"></path><path style="fill:#697228" d="M159.54,216.24c-5.6,7-13.17,8.15-22.66,3.32,4.56-6.42,10.47-9.73,18.5-8.46A6.57,6.57,0,0,1,159.54,216.24Zm-15,.72c3.29,1.28,9.34.75,11.23-.78Z"></path><path style="fill:#8b5f33" d="M183.36,321.44c8.33,4.86,27.63,53.52,25.35,62.81-1.35.36-1.46-.68-1.8-1.55-1.84-4.77-2.69-9.8-3.93-14.73a173.2,173.2,0,0,0-7.58-23.2c-2.94-7.18-7-13.77-10.87-20.46A24.66,24.66,0,0,1,183.36,321.44Z"></path><path style="fill:#8b5f33" d="M174,317.73c-2.53-2-3.59-4.83-4.92-7.4-4.23-8.13-11.06-13.63-18.33-18.68a217.21,217.21,0,0,1-18.87-14c1-.65,1.61,0,2.13.4,7.67,5.14,15.47,10.11,22.94,15.54,6.25,4.54,12.07,9.67,15.26,17A16.65,16.65,0,0,1,174,317.73Z"></path><path style="fill:#8b5f33" d="M192.21,242.42a746.8,746.8,0,0,0,2.1,75.1A280.73,280.73,0,0,1,192.21,242.42Z"></path><path style="fill:#8b5f33" d="M218.24,297.12c2.53-9.87,23.08-24.2,34.14-27.54-.25,1.54-1.35,2.09-2.41,2.67A142.58,142.58,0,0,0,231.1,284.2a50.9,50.9,0,0,0-9.67,9.67A17.53,17.53,0,0,1,218.24,297.12Z"></path><path style="fill:#8b5f33" d="M245.37,121.15c-.17.69-.35,1.38-.52,2.07-1.77-.17-2.59,1.17-3.39,2.31-4.63,6.59-9.15,13.24-13.8,19.81-.89,1.25-1,3.13-3.46,4.14,1.73-3.18,3-5.87,4.58-8.32,4.26-6.52,8.13-13.34,14-18.67C243.53,121.8,244.19,121,245.37,121.15Z"></path><path style="fill:#8b5f33" d="M291.09,246.48c-1.15,1.7-22.5,12.73-25,13-.54-.92,0-1.43.75-1.79,7.7-3.73,15.14-8,23.16-11.08A4.45,4.45,0,0,1,291.09,246.48Z"></path><path style="fill:#8b5f33" d="M193.16,221c2.21-10.77,4.08-21.64,7.83-32A172.63,172.63,0,0,1,193.16,221Z"></path><path style="fill:#697228" d="M68.5,191.64c-7-3.71-11.48-9.39-14.16-16.92,1.4-.29,1.84.21,2.09.71,2.78,5.65,7.46,9.78,11.51,14.42a1.91,1.91,0,0,1,.59,1.35A1.6,1.6,0,0,0,68.5,191.64Z"></path><path style="fill:#697228" d="M215.86,46c-.72-6.09.59-12.41,4.28-20.59,1,1.71.91,1.69-1,10.29-.79,3.45-1.33,7-2.45,10.33Z"></path><path style="fill:#8b5f33" d="M239.86,475.51c0,1.17,0,2.33-.07,3.5H239c-.33-1.68.24-3.48-.67-5.09-.65-1-.46-2.12-.52-3.21-.43-7.67-.92-15.33-1.94-22.95a14.91,14.91,0,0,1,.22-4.47C237.8,454,238.73,464.74,239.86,475.51Z"></path><path style="fill:#e4a34a" d="M334.13,270.48c0,1.88,1.47,3.06,2.26,4.56a12.46,12.46,0,0,1-7.45,0c-.28-1.21-.55-2.42-.82-3.62a5.32,5.32,0,0,1,.82-2.62C330.86,268.84,332.41,269.9,334.13,270.48Z"></path><path style="fill:#8b5f33" d="M129.11,274.62c-4.92-2.95-8.65-7.17-12.26-11.52C121.42,266.42,124.86,270.9,129.11,274.62Z"></path><path style="fill:#fdfdfd" d="M328.94,268.83a5.32,5.32,0,0,0-.82,2.62l-4.53-5.08C325.47,267,327.44,267.39,328.94,268.83Z"></path><path style="fill:#fdfdfd" d="M172.27,328.73l.33.27c-.3,0-.52,0-.27-.31Z"></path><path style="fill:#9f703f" d="M238.91,479h.84c-.08.6.31,1.34-.51,1.77C238.5,480.27,238.86,479.59,238.91,479Z"></path><path style="fill:#9f703f" d="M220,480.28a2,2,0,0,1,.11,1.89C219.66,481.67,219.86,481.15,220,480.28Z"></path><path style="fill:#ab2713" d="M343.21,332.93l3,2.93,3.82,7.29c-7,1.9-14.06,2.3-20.77,4.17-2.39.33-4.67,1.27-7.11,1.3a24.1,24.1,0,0,1,1.64-9.61l2.55-3.62c3.74-3.47,7.93-5.59,13.19-4.06A31.47,31.47,0,0,1,343.21,332.93Zm3.51,9.45c-.58-4-2.2-6.82-5.77-8.39a11,11,0,0,0-12.35,1.72c-3.33,2.78-4.56,6.47-4.37,11.14a226.39,226.39,0,0,1,22.49-4.47Z"></path><path style="fill:#efb961" d="M328.94,275a12.46,12.46,0,0,0,7.45,0l2.3,2c-3.11.59-6.16,1.51-9.35,1.55C329.21,277.42,329.07,276.25,328.94,275Z"></path><path style="fill:#585e1a" d="M281.19,40.89a2.79,2.79,0,0,1,1.43,2c1.76,5.94,3.86,11.72,7.45,16.86a1.81,1.81,0,0,1,.12.73c-3.62-1.14-8.85-12.54-9-19.57Z"></path><path style="fill:#585e1a" d="M281.17,40.91l-.22-.13.24.11Z"></path><path style="fill:#585e1a" d="M313.73,137.61c6.65-3.92,13.26-7.79,19.41-13.18C331.67,129.3,319.06,137.76,313.73,137.61Z"></path><path style="fill:#585e1a" d="M251.08,122.84a152,152,0,0,1,22.58.86C266.1,124.71,258.58,123.73,251.08,122.84Z"></path><path style="fill:#697228" d="M265.67,100.84c9.42-1.59,18.84-2.77,28.31-.6C284.58,102.12,275.12,101,265.67,100.84Z"></path><path style="fill:#697228" d="M264.06,61.66c5.34,6.48,10.69,13,9,22.3C270.78,76.24,268.58,68.48,264.06,61.66Z"></path><path style="fill:#585e1a" d="M126.92,159c-3.35-2-7.38-13.54-7.2-20.19Z"></path><path style="fill:#697228" d="M303.22,54.16c6.45-6.33,11.43-13.77,16.13-21.43C319.62,39.59,310.28,52.2,303.22,54.16Z"></path><path style="fill:#697228" d="M254.63,104.5c-3.49-8-5-16.62-8.93-24.41A39.9,39.9,0,0,1,254.63,104.5Z"></path><path style="fill:#585e1a" d="M289.37,76.67c7.4,4,15.5,6.29,23.32,9.26a.66.66,0,0,1,.52.52,32.9,32.9,0,0,1-9.07-1.58,35,35,0,0,1-14-7c-.41-.35-.79-.63-.82-1.2Z"></path><path style="fill:#585e1a" d="M289.34,76.69l-.21-.13.24.11Z"></path><path style="fill:#585e1a" d="M371.67,147.24c-1.75,3-5.05,3.48-7.86,4.76a27.24,27.24,0,0,1,7.85-4.78Z"></path><path style="fill:#585e1a" d="M371.66,147.22l.13-.21-.12.23Z"></path><path style="fill:#697228" d="M360.54,110.69a64,64,0,0,1-.62,23.92C358.59,126.61,358.35,118.64,360.54,110.69Z"></path><path style="fill:#585e1a" d="M180.62,138c2.44-4.46,5-8.88,7.37-13.36A25.22,25.22,0,0,1,180.62,138Z"></path><path style="fill:#697228" d="M169.33,82.75c1.93,5.2,1.53,10.56,1.22,15.92l-.69,0q-.59-8-1.18-15.89Z"></path><path style="fill:#697228" d="M164,147.77,182.53,152C180.31,153.29,166,150.27,164,147.77Z"></path><path style="fill:#585e1a" d="M283.5,214.37c4.79-3.12,9.77-5.71,15.65-5.93C293.77,210,288.86,212.84,283.5,214.37Z"></path><path style="fill:#585e1a" d="M144,335.52a51.21,51.21,0,0,1,11.1-6.49C152,332.33,148,333.92,144,335.52Z"></path><path style="fill:#585e1a" d="M142.86,336.2l-.37-.05.1-.15Z"></path><path style="fill:#697228" d="M215,83c3.43-3.68,6.2-8.09,11.18-10.06C222.19,76,219.11,80,215,83Z"></path><path style="fill:#697228" d="M88.52,291.25c2.37-2.32,5-4.29,8.48-4.92l-8,5.42Z"></path><path style="fill:#697228" d="M85.11,294.65l.46-.44c.08.11.17.17.17.22C85.68,294.82,85.51,295,85.11,294.65Z"></path><path style="fill:#585e1a" d="M120.41,292a16.88,16.88,0,0,1-6.55-7C116.75,286.7,118.22,289.71,120.41,292Z"></path><path style="fill:#585e1a" d="M112.17,282.87c.84.11,1.29.32,1,1.11C112.41,284.15,112.15,283.78,112.17,282.87Z"></path><path style="fill:#585e1a" d="M205.52,58.27c2.45,1.79,3.13,4.61,4,7.24a12.42,12.42,0,0,1,.37,3.64c-2.53-3.23-2.74-7.33-4.37-10.87Z"></path><path style="fill:#585e1a" d="M205.51,58.28l-.52-.59c.64,0,.46.36.53.58Z"></path><path style="fill:#585e1a" d="M25.3,207.47A27.62,27.62,0,0,1,34,212.75C30.51,212,27.91,209.73,25.3,207.47Z"></path><path style="fill:#585e1a" d="M23.52,206l.52.51h0l-.51-.51Z"></path><path style="fill:#585e1a" d="M24,206.53l-.08-.07c.19.24.12.16.06.08Z"></path><path style="fill:#585e1a" d="M23.51,206l-.21-.12.22.11Z"></path><path style="fill:#585e1a" d="M90.05,277.4c-4.09-3.15-6.49-7.7-10.16-11.92C82.55,266.37,89.33,274.39,90.05,277.4Z"></path><path style="fill:#697228" d="M117.77,215.2c3.56,4.28,6.93,11,7.25,14.11A45.54,45.54,0,0,1,117.77,215.2Z"></path><path style="fill:#697228" d="M51,215.48c-.09-6-2.9-11.6-2.88-17.79C50.28,200.93,52.51,213.75,51,215.48Z"></path><path style="fill:#697228" d="M42.8,230.26c4.3-2.11,8.53-4.44,13.51-4.59C51.92,227.53,47.28,228.65,42.8,230.26Z"></path><path style="fill:#697228" d="M41.2,230.94c-.07.14-.1.35-.2.4s-.27-.1-.41-.16c.06-.14.09-.36.19-.4S41.06,230.88,41.2,230.94Z"></path><path style="fill:#585e1a" d="M81.42,220.51c-4.71-.63-9.61-.69-13.69-3.82C72.15,218.53,77,218.53,81.42,220.51Z"></path><path style="fill:#585e1a" d="M351.3,162.13q-2.61-7.95-5.24-15.88L347,146C348.2,151.41,352,156,351.3,162.13Z"></path><path style="fill:#697228" d="M170.3,125c-3.54-4.28-7.15-8.41-12.28-10.88C163.29,114.8,169.74,120.54,170.3,125Z"></path><path style="fill:#585e1a" d="M265.6,236.7A23.43,23.43,0,0,1,251.23,231,137.41,137.41,0,0,1,265.6,236.7Z"></path><path style="fill:#697228" d="M258.25,218.4l4.43-7C262.93,214,260.3,217.93,258.25,218.4Z"></path><path style="fill:#697228" d="M263.66,210.83c.31-1.78,1.35-3.12,2.62-5.09A6.62,6.62,0,0,1,263.66,210.83Z"></path><path style="fill:#fdfdfd" d="M142.64,312.32a.32.32,0,0,1,.46-.07.3.3,0,0,1,.11.14l-.33.46Z"></path><path style="fill:#585e1a" d="M209.86,97.12a17.64,17.64,0,0,1-11.16-5.88C202.45,93.22,206.09,95.36,209.86,97.12Z"></path><path style="fill:#697228" d="M82.38,209.37c1-7,3.69-12.72,5.58-19.14C89,193.59,85.07,206,82.38,209.37Z"></path><path style="fill:#697228" d="M316.86,265.76l10.33,14.81c-3.22-1.17-8.29-8.18-10.94-14.36Z"></path><path style="fill:#585e1a" d="M118.93,311.21c5.47-1.69,12.35-1,15.7,1.29Z"></path><path style="fill:#585e1a" d="M233.67,232.32c-.87-5.61.12-11,1.23-16.47C235.12,221.39,235.5,226.94,233.67,232.32Z"></path><path style="fill:#585e1a" d="M337.43,270.72l15.2,4.16C349.91,276,339.54,273.27,337.43,270.72Z"></path><path style="fill:#585e1a" d="M271.44,156.57c.58-4.37,1.17-8.74,1.78-13.25C274.41,145.19,273.86,150.85,271.44,156.57Z"></path><path style="fill:#697228" d="M71.05,276.66c.33,1.06-1,1.42-1,2.33a33.1,33.1,0,0,1-14-1.65c-2-.7-4.18-1-6.23-1.79C57,274.55,64,276.24,71.05,276.66Z"></path><path style="fill:#585e1a" d="M263.29,172.78c1.69.27,2.44,1.76,3.51,2.79,2.49,2.37,4.88,4.85,7.63,7.61-.85.06-1.18.19-1.28.08q-4.81-4.72-9.58-9.51c-.21-.21-.2-.62-.3-.94Z"></path><path style="fill:#585e1a" d="M263.27,172.81l-.21-.14.23.11Z"></path><path style="fill:#585e1a" d="M156.93,192.21c.49-3.13,2.64-5.49,3.84-8.3-.81,3-1,6.25-3.8,8.33Z"></path><path style="fill:#585e1a" d="M157,192.24c-.08.77.2,1.65-.76,2.3-.45-1.07.11-1.71.72-2.33Z"></path><path style="fill:#585e1a" d="M325.67,251.54c-2.75,3.54-6.78,4.51-11,5.08l11-5.11Z"></path><path style="fill:#585e1a" d="M325.64,251.51l.14-.21-.11.24Z"></path><path style="fill:#585e1a" d="M377.15,172.36c-.21,2.86-2.84,6.61-5.44,7.65Z"></path><path style="fill:#585e1a" d="M293.42,135.93c-.22,2.63-.45,5.26-.69,8.07C291.52,142.11,291.65,139.15,293.42,135.93Z"></path><path style="fill:#585e1a" d="M391.72,191.23c-2.28.29-3.88-.9-5.57-1.88l.28-.66Z"></path><path style="fill:#585e1a" d="M382.25,186l3.26,2C383.28,188.18,382.78,187.87,382.25,186Z"></path><path style="fill:#585e1a" d="M381.06,185.85l-.34.05C380.8,185.58,380.93,185.71,381.06,185.85Z"></path><path style="fill:#585e1a" d="M176,203.25c-.66,4.83-3.1,8.86-5.87,12.73C171.62,211.55,174.13,207.56,176,203.25Z"></path><path style="fill:#585e1a" d="M250.61,164.69c.13-2,.32-4,.38-5.94a27.46,27.46,0,0,1,.54-6C251.8,156.71,252.7,160.72,250.61,164.69Z"></path><path style="fill:#585e1a" d="M401.16,178.41a38.71,38.71,0,0,0,13.7-5.54C413.15,176.27,405.17,179.34,401.16,178.41Z"></path><path style="fill:#585e1a" d="M302.86,153.43c4.37-.38,8,1.52,11.58,3.73C310.48,156.32,306.77,154.62,302.86,153.43Z"></path><path style="fill:#585e1a" d="M144.22,179c-.91-3.47,0-6.57,1.11-9.62l.67.14Z"></path><path style="fill:#585e1a" d="M267.21,357.17c-.58-.83-.15-1.26.52-1.67.19.15.47.26.54.45C268.69,357,268.12,357.25,267.21,357.17Z"></path><path style="fill:#697228" d="M272.06,470c.45-1.13.8-2,1.17-3,.47.51,1.1.84,1.2,1.72C274.13,469.82,273.28,470,272.06,470Z"></path><path style="fill:#fefefe" d="M469.86,437.93c-.24-.17-.52-.32-.41-.72a.71.71,0,0,1,1,.22l0,0Z"></path><path style="fill:#585e1a" d="M164.48,426.63c1,.81,1,.81,0,1.95a1.33,1.33,0,0,1-.07-1.88Z"></path><path style="fill:#e8ad20" d="M156.66,249.52a1.91,1.91,0,0,1-2.41-.94c4-2,6.08-6.42,3.74-8.21a1.26,1.26,0,0,0-1,1,6.4,6.4,0,0,1-2.94,4.83c-.63.45-.63,1.16-.75,1.83-3.74-1.83-4.24-4-1.92-8.16l1.45-.72c2.2.3,4.34,1.07,6.61.73l1.71,1.9C160.13,244.65,160.34,248.21,156.66,249.52Zm-2.47-8.21c-.65.11-1.15.37-.92,1.14s.69.87,1.38.52a1.18,1.18,0,0,0-.39-1.62Z"></path><path style="fill:#8dd3c8" d="M161.15,241.79l-1.71-1.9c.1-.74-.07-1.54.63-2.3a6.69,6.69,0,0,1,6-1.28c2.54.7,3.27,3.44,1.72,5.65-.43.62-.8,1.28-1.19,1.92a1.34,1.34,0,0,1-.4,0,.72.72,0,0,0-.85-.52c-.41-.54-1-.6-1.63-.79C163.11,241.48,162.3,241,161.15,241.79Z"></path><path style="fill:#4f531a" d="M161.15,241.79c1.15-.76,2-.31,2.59.74,0,3.08-1.78,5.37-3.25,7.82-1.38.2-2.75.37-3.83-.83C160.34,248.21,160.13,244.65,161.15,241.79Z"></path><path style="fill:#4f531a" d="M153.3,248c.12-.67.12-1.38.75-1.83a6.4,6.4,0,0,0,2.94-4.83,1.26,1.26,0,0,1,1-1c2.34,1.79.3,6.2-3.74,8.21l-.34-.17-.6-.43Z"></path><path style="fill:#e8ad20" d="M160.49,250.35c1.47-2.45,3.29-4.74,3.25-7.82.58.19,1.22.25,1.63.79,1,2.58-1.09,4.44-1.53,6.69A5.29,5.29,0,0,1,160.49,250.35Z"></path><path style="fill:#697228" d="M152.86,239.16l-1.45.72c-1.06-1.25-.34-2.47.07-3.55-.06-.68-1.42-.21-.83-1.23l1.7.81.15,1.38,1.19-1.11h0a2.4,2.4,0,0,0,1.94-2.53c1.14.64,2.71.19,3.18,1.85C155.8,235.2,154.09,236.29,152.86,239.16Z"></path><path style="fill:#4f531a" d="M163.86,250c.44-2.25,2.55-4.11,1.53-6.69a.72.72,0,0,1,.85.52l1.4,1.89-.32,3.09A5.19,5.19,0,0,1,163.86,250Z"></path><path style="fill:#e8ad20" d="M167.3,248.82l.32-3.09-1.4-1.89a1.34,1.34,0,0,0,.4,0l3.58,2.23A4.7,4.7,0,0,1,167.3,248.82Z"></path><path style="fill:#585e1a" d="M152.32,235.91l-1.7-.81a1.31,1.31,0,0,1,1.34-1.27c1.61.21,1.11,1.59,1.68,2.3h0C153.36,235.36,152.86,235.76,152.32,235.91Z"></path><path style="fill:#e8ad20" d="M153.31,248l.6.43C153.59,248.43,153.31,248.4,153.31,248Z"></path><path style="fill:#585e1a" d="M129.19,244.67c2.63-3.28,6.19-5.15,9.89-6.8C136.33,241,132.48,242.39,129.19,244.67Z"></path><path style="fill:#697228" d="M148.71,299.35c2.32,5.39,1.59,10.95,1,16.51C149.14,310.37,149.67,304.82,148.71,299.35Z"></path><path style="fill:#585e1a" d="M144.52,217l11.23-.78C153.86,217.71,147.86,218.24,144.52,217Z"></path><path style="fill:#522301" d="M346.72,342.38a226.39,226.39,0,0,0-22.49,4.47c-.19-4.67,1-8.36,4.37-11.14A11,11,0,0,1,341,334C344.52,335.56,346.14,338.34,346.72,342.38Z"></path><path style="fill:#585e1a" d="M154.19,241.31a1.18,1.18,0,0,1,.5,1.59.43.43,0,0,1,0,.07c-.69.35-1.17.17-1.38-.52S153.54,241.42,154.19,241.31Z"></path><path style="fill:#fdfdfd" d="M152.32,235.91c.5-.15,1-.55,1.34.27l-1.19,1.11Z"></path></svg>