<svg xmlns="http://www.w3.org/2000/svg" id="svg1" version="1.1" viewBox="0 0 128.283 128.283" height="1200" width="1200">
  
  <defs id="defs1"></defs>
  <g id="layer1">
    <g transform="matrix(0.11055911,0,0,0.1097144,-7.1741916,-4.2138582)" id="g10">
      <path style="fill:#218bcc;fill-opacity:1;fill-rule:nonzero;stroke:none;stroke-width:1.78287" d="m 645.71761,1207.5658 c -152.53431,0 -305.07037,0.2758 -457.60295,-0.1571 -52.51361,-0.148 -89.433405,-27.3424 -112.033208,-76.4799 -7.996157,-17.3856 -11.147635,-36.1028 -11.149375,-55.3168 -0.04002,-300.53277 -0.08701,-601.06553 0.04524,-901.5983 0.02262,-50.20418 19.429183,-90.075262 60.147813,-117.384799 18.29284,-12.267463 38.74178,-18.152777 60.43842,-18.158257 306.52691,-0.07489 613.05382,-0.0895 919.58075,-0.0091 59.128,0.01461 112.9868,51.385987 119.0688,112.874916 0.5812,5.88714 0.9884,11.73775 0.9884,17.64498 -0.01,303.59415 0.01,607.1883 -0.017,910.78426 -0.01,54.4583 -35.86,105.7493 -84.996,121.902 -11.7984,3.8797 -23.8318,5.9364 -36.2376,5.9346 -152.74488,-0.049 -305.48976,-0.033 -458.2329,-0.037" id="path1"></path>
      <path style="fill:#fafefe;fill-opacity:1;fill-rule:nonzero;stroke:none;stroke-width:1.78287" d="m 250.02579,645.78369 c 0,-110.89487 -0.0244,-221.78792 0.0122,-332.6828 0.0139,-41.89313 24.49486,-72.56727 63.61774,-79.72025 3.86669,-0.70872 7.8813,-0.69958 11.8263,-0.70506 34.17379,-0.0512 68.34931,-0.11143 102.52136,0.0584 5.00303,0.0237 8.38422,-1.06674 11.27641,-5.96021 5.53205,-9.35951 14.04156,-13.85661 24.71413,-13.7945 17.71162,0.10594 35.42846,-0.23563 53.13311,0.16805 5.88706,0.13516 7.93003,-2.21019 8.97415,-7.90737 9.05941,-49.46257 37.78119,-79.65632 83.88047,-91.10364 56.53518,-14.03926 116.34018,27.41549 127.5783,87.3792 0.3202,1.71335 0.89794,3.40661 0.99017,5.1291 0.26973,5.0743 2.88871,6.48809 7.44278,6.44243 18.75399,-0.18266 37.50798,-0.0658 56.26197,-0.10229 10.69519,-0.0238 18.99065,4.73638 24.35217,14.30595 2.35969,4.21397 5.16139,5.46154 9.56581,5.44328 34.38086,-0.14796 68.77913,0.58268 103.14259,-0.27217 42.59977,-1.05943 77.00505,35.09635 76.99105,80.90206 -0.063,220.03621 -0.127,440.07425 0,660.10681 0.031,49.67442 -40.06951,83.77352 -79.64657,83.64202 -203.16678,-0.6722 -406.33879,-0.2283 -609.50732,-0.3836 -32.90692,-0.027 -56.43425,-16.8522 -71.66262,-47.0497 -4.51056,-8.9467 -5.53379,-18.62219 -5.52857,-28.58813 0.047,-111.76799 0.0296,-223.53964 0.0296,-335.30763 z" id="path2"></path>
      <path style="fill:#218bcd;fill-opacity:1;fill-rule:nonzero;stroke:none;stroke-width:1.78287" d="m 971.37806,642.64961 c 0,108.69565 0.0174,217.39129 -0.0139,326.08694 -0.007,20.76664 -11.61575,36.29455 -30.03562,40.17615 -3.22805,0.6795 -6.62141,0.6795 -9.93821,0.6813 -199.18872,0.027 -398.37744,0.026 -597.56616,0.022 -23.94322,0 -38.51729,-15.16994 -38.53991,-40.48665 -0.0644,-75.01492 -0.0644,-150.02984 0.0157,-225.04659 0.0522,-49.20502 0.76394,-98.41735 0.34456,-147.61872 -0.79527,-93.3741 -0.0574,-186.74638 -0.40546,-280.12048 -0.0696,-18.89438 8.61566,-31.56917 24.34521,-35.6425 2.38405,-0.61739 4.93169,-0.75438 7.40449,-0.75804 33.54558,-0.0402 67.09115,0.11508 100.63499,-0.14065 5.7896,-0.0438 7.6429,1.75172 7.49151,7.82517 -0.34978,14.17444 -0.73262,28.35801 3.60566,42.20366 9.26998,29.57635 33.64477,48.86162 63.33235,48.93833 85.00812,0.22285 170.01623,0.35437 255.02435,0.25208 37.45751,-0.0457 63.28362,-21.18494 71.21365,-57.48502 2.49543,-11.42174 1.95423,-23.05903 1.65492,-34.6196 -0.14443,-5.54739 1.68624,-7.11827 6.81979,-7.08904 32.70855,0.19179 65.44494,0.8585 98.12564,-0.18084 20.51506,-0.65392 36.86412,15.51699 36.75449,38.22714 -0.52032,108.25727 -0.23145,216.51635 -0.23145,324.77544 z" id="path3"></path>
      <path style="fill:#218bce;fill-opacity:1;fill-rule:nonzero;stroke:none;stroke-width:1.78287" d="m 632.5719,332.19309 c -42.7181,0.004 -85.4362,0.0146 -128.15604,-0.002 -16.42562,-0.007 -25.34408,-9.47277 -25.37714,-26.8949 -0.0191,-10.71668 0.007,-21.43518 0.0296,-32.15186 0.0191,-9.82347 0.6839,-10.59978 9.80421,-10.63266 15.4198,-0.053 30.87091,-0.65209 46.25242,0.14796 18.95586,0.98636 39.90422,-13.48033 39.01151,-40.6894 -1.02671,-31.28605 21.32076,-55.94154 51.88714,-59.96189 27.62546,-3.63494 55.81997,16.1289 63.16355,44.29877 1.66362,6.38215 2.22744,12.93783 1.77847,19.4862 -1.33646,19.51359 14.90296,36.53205 34.58795,36.64895 17.08515,0.10229 34.17379,0.009 51.26068,0.053 7.83432,0.0201 8.52691,0.81832 8.65743,9.06178 0.17924,11.35782 0.63691,22.72111 0.51335,34.07527 -0.18968,17.16093 -9.48053,26.53871 -25.88353,26.54967 -42.51102,0.0238 -85.0203,0.007 -127.52958,0.011" id="path4"></path>
      <path style="fill:#f9fdfe;fill-opacity:1;fill-rule:nonzero;stroke:none;stroke-width:1.78287" d="m 859.67652,741.22369 c 0,40.24736 -0.0122,80.49655 0.007,120.74574 0.007,13.88584 4.27912,19.21952 17.58284,18.41764 21.95768,-1.32429 29.75197,9.56957 27.98046,30.10606 -0.39154,4.5519 0.55164,9.20425 -0.65431,13.70135 -2.8365,10.55776 -12.24743,18.35736 -23.3359,18.38658 -49.80588,0.13882 -99.61176,0.13882 -149.41764,-0.0731 -11.59834,-0.0475 -21.35905,-10.69293 -21.70187,-22.77043 -0.16706,-5.8981 -0.2123,-11.82177 0.0888,-17.71439 0.64909,-12.73325 9.40049,-21.31828 21.55569,-21.44249 3.54128,-0.0384 7.0843,-0.009 10.62732,-0.0512 13.02356,-0.15709 17.83691,-5.04507 17.87868,-18.57289 0.0818,-26.6885 0.0209,-53.37333 0.0296,-80.06 0.0104,-35.87448 0.0435,-71.75078 0.0383,-107.62343 -0.002,-16.1289 -5.80179,-22.15852 -21.14849,-22.10189 -21.058,0.0767 -31.68358,-11.77246 -31.06233,-33.92367 0.27147,-9.6335 0.95014,-18.79209 8.16321,-25.89392 4.25998,-4.1957 9.01417,-6.6744 15.07698,-6.65248 32.09426,0.12238 64.18678,0 96.2793,0.0932 17.334,0.0511 31.55655,14.53245 31.64878,32.72907 0.20186,40.89763 0.0626,81.79892 0.0626,122.70021 z" id="path5"></path>
      <path style="fill:#fafefe;fill-opacity:1;fill-rule:nonzero;stroke:none;stroke-width:1.78287" d="m 803.51809,566.1535 c -39.99819,-0.33609 -71.33895,-33.7684 -71.10402,-75.8515 0.22796,-41.34333 32.63372,-74.24592 73.33146,-73.43856 31.96723,0.632 70.43579,29.61288 69.47695,76.77394 -0.81615,40.10123 -32.71551,72.84491 -71.70439,72.51612" id="path6"></path>
      <path style="fill:#fafefe;fill-opacity:1;fill-rule:nonzero;stroke:none;stroke-width:1.78287" d="m 480.65065,529.47695 c -35.0056,0 -70.01815,-0.39271 -105.01505,0.1991 -13.39247,0.2265 -23.38462,-9.28096 -23.78835,-21.34933 -0.46289,-13.81642 9.40745,-23.57596 23.77965,-23.58692 70.19565,-0.0548 140.3913,-0.0475 210.5852,0 11.04497,0.009 18.3903,5.41771 21.49479,15.38365 2.97572,9.55313 0.16532,19.09713 -7.33315,25.17058 -4.17818,3.3847 -8.92889,4.298 -14.08159,4.29069 -35.21441,-0.0657 -70.42709,-0.0347 -105.6415,-0.0347 z" id="path7"></path>
      <path style="fill:#fafefe;fill-opacity:1;fill-rule:nonzero;stroke:none;stroke-width:1.78287" d="m 467.69861,686.64151 c 28.94452,-0.007 57.89078,-0.0822 86.83531,0.0384 9.5832,0.0384 18.28762,7.20412 20.42457,16.22754 2.59462,10.96327 -1.286,21.17215 -10.16617,26.47843 -4.29304,2.5682 -9.04375,3.07783 -13.87973,2.94448 -52.67371,-1.45215 -105.35786,-0.73246 -158.03853,-0.90599 -4.75593,-0.0146 -9.48749,0.95531 -14.27649,0.0219 -11.67839,-2.27778 -18.72441,-11.86013 -17.76382,-24.43081 0.90315,-11.81264 9.77811,-20.35018 21.279,-20.36114 28.52862,-0.0256 57.05724,-0.007 85.58586,-0.0128" id="path8"></path>
      <path style="fill:#fafdfe;fill-opacity:1;fill-rule:nonzero;stroke:none;stroke-width:1.78287" d="m 442.21949,585.43439 c 24.52271,0 46.18978,-0.0639 67.86032,0.0219 14.0085,0.0566 22.5998,8.84075 22.60502,22.82705 0.005,13.39448 -9.3448,23.08278 -22.83646,23.11931 -44.16942,0.12238 -88.33884,0.13334 -132.50999,0.0639 -11.11458,-0.0183 -19.95994,-6.31274 -23.00005,-15.78002 -2.90089,-9.0289 -0.0713,-19.75106 6.92594,-25.56148 5.12833,-4.25598 11.16156,-5.79581 17.57763,-5.40492 22.06904,1.34256 44.15549,0.3087 63.37759,0.71421" id="path9"></path>
      <path style="fill:#fafdfe;fill-opacity:1;fill-rule:nonzero;stroke:none;stroke-width:1.78287" d="m 447.15205,789.2363 c 21.87414,0 43.75003,-0.11325 65.62243,0.0457 11.72886,0.0877 20.69604,8.50466 21.91417,19.99216 1.25642,11.85648 -5.46592,22.04892 -16.62574,25.02081 -1.78543,0.47491 -3.69615,0.59912 -5.54945,0.60095 -42.29002,0.0438 -84.58003,0.0895 -126.87179,0.0384 -13.73007,-0.0183 -22.29179,-6.52828 -24.56621,-18.29525 -2.78778,-14.41373 6.43347,-27.0045 20.45763,-27.1762 21.86893,-0.26668 43.74481,-0.0712 65.61896,-0.0712 0,-0.0511 0,-0.10411 0,-0.15526" id="path10"></path>
    </g>
  </g>
</svg>
