<svg viewBox="0 0 947.27 879.16" xmlns="http://www.w3.org/2000/svg" id="Layer_1">
  <defs>
    <style>path{fill:#fff;}path[fill="#D00000"]{fill:#D00000;}.cls-1{stroke:#fff;stroke-miterlimit:10;stroke-width:5px;}</style>
  </defs>
  <title>Logo_Erawan_eng</title>
  <path transform="translate(-166.36 -201.67)"
    d="M858.8,427.36c-1.67-.77-1.18-3.18.56-3.82a4.7,4.7,0,0,1,4.95,1.52,7.63,7.63,0,0,1,1.41,4.57c.63,11.56-5.84,23.23-16.8,30.3-3.19-.61-4.37-3.79-5.34-6.4-3.84-10.41-13.16-19.31-25-23.89-1.44-.55-1.29-2.49-.07-3.33a7.39,7.39,0,0,1,4.55-.79c11.21.63,21.94,5.77,28.25,13.54l7.38-9.65c.5-.65.9-1.67.09-2.05m-13.16,12.49a21.2,21.2,0,0,0-11.15-7.25,41.65,41.65,0,0,0,10.86,10.85c1.6-.42,1.19-2.42.29-3.6m2.7,8.4a4.52,4.52,0,0,0,2.51-1.54L848.74,445a1.88,1.88,0,0,0-.49,3.23Z"></path>
  <path transform="translate(-166.36 -201.67)"
    d="M434,458.21c-.41,1.32-2.46,1.87-4,1.44a8.38,8.38,0,0,1-3.7-2.6c-7.94-8.31-14.3-18.9-11.55-29.29.52-2,1.67-4.12,4-4.64s4.88,2.28,3,3.51c-2.19,1.42-.29,4.3,1.7,5.92s4.1,4.32,2.11,5.93c.58,1.42,3.11.28,4.21-.91,7.4-8,19.69-12.62,31.75-12l1.45,2.86c-14.13,5.85-25,17-28.94,29.74m13.42-26.08c-5.71.24-10.1,4.14-13.83,7.76a2.32,2.32,0,0,0-.24,3.12,36.3,36.3,0,0,0,14.07-10.88m-15.8,13.57c-1.42-.38-3.16.67-3,1.92s1.72,1.9,2.94,1.46a2,2,0,0,0,.15-3.48Z"></path>
  <path transform="translate(-166.36 -201.67)"
    d="M762.82,375.26l6.31,6.51c-.73,1.62-3.61,1.75-5.33.78s-2.72-2.59-4.07-3.91-3.49-2.43-5.42-1.78a37.55,37.55,0,0,0,7.69,6.67,27.24,27.24,0,0,0-13.38,9.89c1.66,1.2,1.84,3.26,1.91,5.09l.72,19c-1.2,1-3.47.26-4.22-1s-.48-2.82-.37-4.26a20.31,20.31,0,0,0-5.37-15.11,17.14,17.14,0,0,1,.48-23.14c6.05-6.57,17.05-9.47,26.66-7.42s17.47,8.7,20.33,16.64c-7.56-.14-10.22-10.4-17.77-10.7l-.29,1.42a30.57,30.57,0,0,1,7.41,5.95c.62.69,1.22,1.59.76,2.36a2.44,2.44,0,0,1-2,.86C771,383.13,768.6,374.39,762.82,375.26Z"></path>
  <path transform="translate(-166.36 -201.67)"
    d="M730.44,475.67c.07-2.75,2.11-5.16,4.16-7.3s5.13-4.68,8.55-4.17l16,2.37a3.82,3.82,0,0,1,1.36.38,1.74,1.74,0,0,1,.08,2.77,8.78,8.78,0,0,1-3.15,1.61c-6.22,2.35-11.12,7-13.12,12.46-.43,1.19-1.11,2.68-2.6,2.72a3.81,3.81,0,0,1-1.85-.62C735.33,483.41,730.33,480.16,730.44,475.67Z"></path>
  <path transform="translate(-166.36 -201.67)"
    d="M520.11,382.57c.49-2.91,6.7-4,5.77-6.84a15.38,15.38,0,0,0-7.42,4.36c-1,1.12-1.91,2.45-3.47,3s-3.86-.58-3.31-1.9l5.15-5.86c-5.89-.38-8.43,7.81-14.33,7.71-1.65-2,.31-4.69,2.56-6.22s5.06-2.95,5.6-5.32c-7.65.5-10.64,8.95-17.49,11.84-1.32-1.44-.53-3.52.52-5.11,4.12-6.24,11.66-10.91,20.08-12s17.51,1.38,23.15,6.74,7.45,13.4,4.19,20c-2.38,4.81-7.24,8.88-7.77,14.07-.22,2.16.36,4.32.33,6.49a6.24,6.24,0,0,1-3,5.69c-3.79-3.65-3-9.13-2.09-13.89l2.22-11c.65-3.21-3.17-5.71-6.57-7.31-2-1-4.4-2.39-4.08-4.33Z"></path>
  <path transform="translate(-166.36 -201.67)"
    d="M548.23,473a8.32,8.32,0,0,1,1.89,4.13,3.48,3.48,0,0,1-2.57,3.55A10.69,10.69,0,0,0,540,487l-3.56,0c-2.43-5.5-5.36-11.48-11.6-14.13-1.61-.68-3.42-1.14-4.66-2.22s-1.51-3.15,0-3.93a4.93,4.93,0,0,1,1.63-.39l14.59-1.84a9.56,9.56,0,0,1,3.33,0,7.53,7.53,0,0,1,3.73,2.6A65.14,65.14,0,0,1,548.23,473Z"></path>
  <path transform="translate(-166.36 -201.67)"
    d="M781.26,612.68c-5.69,17-14.7,33.05-21.76,49.68a230.57,230.57,0,0,0-8,159.64c3.28,10.4-12.84,17.22-25.6,18.55a216.44,216.44,0,0,1-43.71.07c-8.83-.88-18.67-2.91-23.18-9.32-5.42-7.7-.48-17.31,2.93-25.77a71.72,71.72,0,0,0,.85-51.57,65.14,65.14,0,0,1-38.92-5.8,71.68,71.68,0,0,0-1.46,54.72c3.44,9,8.65,19,3.41,27.36-5,8-17.13,10.38-27.85,11.17a223.55,223.55,0,0,1-41.55-.84c-7.26-.83-15.21-2.39-19.45-7.39-4.74-5.59-3-13.2-1.45-19.93a229.35,229.35,0,0,0-14.66-147.44c-8.28-18.32-19-36-24.72-54.94-5.69-18.82-6.34-38.41-7-57.82L488,516.53l-18.23,21.74a31.31,31.31,0,0,1-14.3-11c-14.38,22.2,4.28,48.45,10.38,73.17a74.8,74.8,0,0,1-9.07,56.7c-3.9,6.44-8.81,12.55-11.25,19.48s-1.94,15.18,4,20.42,18.19,5.18,22.11-1.26-7.19-15.16-13.61-10.32l21.55-13.71c9.13-5.82,24.93-10.48,29.68-1.74-11.66,1.46-10.1,15.54-10.29,25.38-.46,23.47-36.36,40.6-60.78,29-25.29-12-27.81-41.18-26.53-65.47s.92-53-22.79-67.09c-16.35-9.72-38.25-8.67-58.25-7.22a83.38,83.38,0,0,1,33.78-14.66c-18.4-24.3-21-56.42-6.74-82.59,7.91-14.49,2.46-31.68,7.09-47.13,4.25-14.18,16.51-25.56,25.13-38.28s13.18-29.77,2.33-41.24c-4.21-4.44,3.78-9.52,9.29-12.82,18.88-11.29,17.4-37.89,37.17-48.06,30.09-15.47,52.2-41.42,59.86-70.24A245.6,245.6,0,0,0,545.89,296c9.31-16.92,23.3-36.49,45.58-36.4,5.53,0,7-6.16,9.12-10.42s12.21-5.43,11-.93q3.82-7.71,7.64-15.43c12-4.51,20.31-15.06,20.6-26,3.57,11,9.78,24,23.28,25.56-4.76,6.25,6,15.33,13.55,11.4,2.09,7.89,9.55,14.62,18.79,17,19,4.82,34.2,18.86,38.05,35.13C754.3,277,770.55,254.68,781,230.58a207.28,207.28,0,0,0,35.76,54.12c5,5.55,12,11.45,20.26,10.34,15.81,11,26.76,26.71,30.32,43.62,1.08,5.09,8,7.33,13.52,9.73s10.74,8.27,6.77,12.23c-10.84,10.82-6.87,27.42,1.39,39.73s20.24,23.09,25,36.62c4.59,12.9,2.09,26.82,4.89,40.08,1.86,8.81,6,17.17,8.61,25.86,6.58,22.3,2,46.75-12.43,66.3l34.31,14.45c-19.93-.9-41.48-1.45-58,8-24.51,14-27,43-25.26,67.74,1.49,20.57,3.11,44-14.12,58.73-11.09,9.48-29,12.93-43.91,8.46S782,709.94,780.6,696.73c-1.07-10.25.39-24.48-11.6-26.86,1.36-4,8-4.64,12.92-3.89,15.61,2.35,30,9.8,39.54,20.42-5.87-5.48-18.1,2.84-14.4,9.52s16.3,6.87,22.33,1.51,6.39-13.79,3.74-20.81-7.78-13.17-11.8-19.72a68.66,68.66,0,0,1-9.74-45.77c4.16-28.61,26.56-57.91,12.21-84.12a29.45,29.45,0,0,1-13.86,11L789.41,516.7c1.15,32.19,2.23,65-8.15,96M446.42,304.06c.23,4.41,3.06,8.5,6.77,11.64s8.29,5.46,12.8,7.75q4.93,5.81,10.13,11.44c.86-5.18-5.22-9.05-10.17-12.25a70.69,70.69,0,0,1-19.53-18.58M579.19,273a6.73,6.73,0,0,0-1.35-2.58,2.42,2.42,0,0,0-3-.33,48.71,48.71,0,0,0,20.47,20.65c-2.61-7.19-13.26-10.62-16.13-17.74m92,279.49c.18-2.14-2.9-3.44-5.46-3.46s-5.26.62-7.63-.2-3.37-4.2-1-4.91c4.26,2.37,10.58,1.67,13.94-1.56A20,20,0,0,1,655,538.2l16.38-2.8-11.26-2.08a4.84,4.84,0,0,1-3-1.28c-1.79-2.32,3.27-4,6.52-3.47s8.35-.18,7.46-2.85c-5.86,1.39-12.7-1.19-15.33-5.78a22.15,22.15,0,0,0,17-1.87c-6.12.67-14.8-.38-14.85-5.53a19.41,19.41,0,0,0,16.06-1.47c-5.94,1.14-12.6-1.2-15.77-5.55a24,24,0,0,0,17.91-2.29c-5.85,1.83-13.07-.26-16.33-4.7a39.67,39.67,0,0,0,18.94-1.26,23.15,23.15,0,0,1-15-4.45l17.17-2a26.93,26.93,0,0,1-18.65-4.38,39.72,39.72,0,0,1,29,4.72l22.71-7q-23-32.68-43-66.74c-2.58-4.39-5.13-9.58-2.54-14s12.76-4.11,12.57.77c2.2-9.69,11-18.13,22.23-21.25,1.42-.4,3.13-.67,4.29.11a3.43,3.43,0,0,1,1.15,3.18c-.44,10.57-9,20.59-20.84,24.36-4.82,1.54-5.64,8.09-1.3,10.43a13.64,13.64,0,0,1-7.41,1.33l11.88,9.81a42.55,42.55,0,0,0,4.9,3.67c11.75,7.18,31.29,1.19,34.7-10.63s-7.51-23.35-9.63-35.53c-1.87-10.75,3.87-22.19,14.36-28.6l-26.51-6.75c-7.68-2-17.48-3.41-22.47,1.84-3.2,3.39-2.86,8.18-4.58,12.25s-8.38,7.46-11.75,4.19c-1.58-1.53-1.51-3.77-1.37-5.79q.64-8.74,1.28-17.51l-59.73.05,1.2,20.5c.22,3.75-6.67,5.14-10.12,2.75s-4.28-6.47-5.18-10.14-2.59-7.76-6.71-9.24c-2.49-.9-5.34-.62-8-.27a210.07,210.07,0,0,0-36.27,8c13.55,10.21,17.36,28.37,8.77,41.82-5.93,9.3-6.94,21.49.59,29.94s24.77,10.41,32.7,2.22c3-3.13,4.4-7.18,7.26-10.43,3.93-5,1.14-12.78-5.47-15.16-10.73-3.85-18.26-13.26-18.42-23-1.11-3.22,5.28-4.16,8.9-2.72,9.62,3.81,16.73,11.75,18.39,20.54l8.65-5.82c7.87,8,2,20-4,29l-36,53.95c-1.11,1.66,1.17,3.44,3.14,4.39,7.07,3.42,16.27,6.78,22.81,2.71,2-1.28,3.75,1.94,3.49,4.07-3.89,32.21,5.07,64.47,15.31,95.69q12.6,38.45,27.89,76.2c8.23,20.33,17.12,42.17,9.87,62.75-2,5.56-13.33,3.52-15.34-2s1.82-11.27,5.49-16.18c-2.89,2.66-8.59,1.08-10.89-2s-2.35-6.84-2.93-10.4-2.16-7.47-6-9c1,8.34-1.05,16.71-2.24,25s-1.39,17.15,3,24.68,14.75,13.2,24.45,11l5.41-3.24,6.84,2.8c-.83-2.68-1.65-5.37-2.47-8.05a24.35,24.35,0,0,0,19.9-.38c-6.58.52-13.34-2.84-15.93-7.93A28.79,28.79,0,0,0,678,730.39a23.09,23.09,0,0,1-16.42-6.21c3.2-2,7.59-.25,11.5.37s9.39-2,7.41-4.89c-5.79,1.23-12.41-1.19-15.25-5.57l19.61-.73c.22-2.91-4.74-3.61-8.22-3.39s-8.46-1.2-7.44-4,5.88-1.69,9.18-.8,8.53-1.75,5.94-3.67c-6,1-12.65-1.83-15.25-6.49a25.43,25.43,0,0,0,18.81-2.78,44.89,44.89,0,0,1-19.2-4.09c-.38-3.13,5.47-3.25,9-2.17s9.51.3,8.45-2.72c-6.17.9-12.85-1.26-16.69-5.4,2-2.5,6.52-1.2,10-.59s8.56-2.26,6.06-4.41c-3.57.85-7.35,1.7-10.93.89s-6.68-4-5.51-6.91c5.69,3.22,14.39,1.79,18.19-3a31.3,31.3,0,0,1-18.75-5c1.82-2.66,6.53-1.59,10.16-1.17s8.51-2.81,5.78-4.84c-3.57.73-7.46,1.44-10.81.18s-5.27-5.39-2.57-7.47c2.83,1.61,6.08,3.19,9.45,2.71s6-4.19,3.69-6.29a23.14,23.14,0,0,1-16.73-4c1.26-2,4.47-2.3,7.12-2s5.48.88,7.9-.07,3.28-4.43.79-5.23c-6.28,2.5-14.8-.55-16.95-6.08,5.82,2.3,13.29,1.26,17.9-2.49-6.88,1.39-14.63-1-18.83-5.74a22.6,22.6,0,0,0,17.25-2.39,23,23,0,0,1-18.16-4.4l17.42-2-18.22-4.57,2.37-4.35c2.62,1.48,5.61,3,8.71,2.51s5.09-4.39,2.45-5.84c-5.24,2.83-13.1,1.38-16.43-3l17.19-3-19.07-4.5a134,134,0,0,0,17.65-5,111.55,111.55,0,0,1-18.73-.67c2.47-4.55,10-4.61,16-4,2.8-2.15-3-4.85-6.69-4s-9.61.72-9.06-2.43l15.67-4.17a31.9,31.9,0,0,1-18.09-3.13L673,558.28l-18.49-3.69a23.8,23.8,0,0,1,16.7-2.11M533,682.72l15.77-3.21c1.25,1.92-.78,4.26-3.1,5.27s-5.08,1.4-7,2.88-2.11,4.77.4,5.38c2.47-1.84,5.52-3.82,8.73-3.17s3.82,5.63.51,5.66c-5.1,0-9.58,4.24-9,8.48,4.11-3.32,11.35-3.39,15.55-.15a23.57,23.57,0,0,0-14.92,8.92c3.17.79,6.89-.45,8.54-2.84l6.24,3.14-13.24,7.77c1.69,1.55,4.69.73,7.14.26s6,.46,5.55,2.52c-.54,2.31-4.79,1.59-7.29,2.69A4.14,4.14,0,0,0,545,732c.93,2,2.94,3.47,4.88,4.86,5,3.6,11.9,7.4,17.65,4.69,5.26-2.49,6.83-9.55,12.83-10.16a42.79,42.79,0,0,0,19.08,12.76c6.9-4.66,14.57-11.33,11.73-18.36-4.44-11,7.78-23.47,2.4-34.19-1-2.11-2.78-4.1-2.79-6.38s3.12-4.64,5.34-3.3c3.83,2.33,8-2.54,9.22-6.38l-2.22-4.21,6.85-4.29c-1.46-3.06-8.71,1.46-10.65-1.41-1.41-2.09,2.6-3.73,5.47-3.72s7-1.07,6.12-3.36l-15.05-2.09c1.42-3.87,7.24-6.13,11.7-4.55,2.24-2.08-1.27-5.24-4.58-5.67s-7.19,0-9.56-1.93c1.84-2.54,5.71-3.92,9.18-3.27,2.71-1.64-.48-5.3-3.79-5.68s-7,.49-9.76-1.13c1.37-3.31,6.18-5.31,10.17-4.22,1.83-2.21-2.92-4.11-6.09-3.67s-8,.19-7.74-2.49c.31-4.13,11.13-.91,12.12-5a29.88,29.88,0,0,0-16.29-1.58c.85-4.31,7.14-7.2,11.94-5.48,1-2.5-3.94-3.28-7-2.6s-8.05-.48-6.64-2.85a4.38,4.38,0,0,1,2.71-1.48l9.73-2.67a63.13,63.13,0,0,0-17.81-4,21.92,21.92,0,0,1,14.24-4.76,32,32,0,0,0-15.76-3.4,17.27,17.27,0,0,1,13.14-4.92,27.91,27.91,0,0,0-14.62-3.44c-1.42-1.58,1.38-3.53,3.74-3.76s5.37-.28,6.21-2.14c1.05-2.33-2.82-4.12-5.8-4s-6.56.63-8.49-1.28c2.58-3.26,7.74-4.93,12.27-4-1.17-4.59-9.87-4.78-13.44-1.17s-3.43,8.8-3.11,13.48q2,29.13,4,58.27c-1.77.95-3.94-.56-5.25-1.94-40.86-43.56-48.52-107.07-18.88-156.56,1.15-1.92,2-4.8-.3-5.73-2.69,10.54-14,19.12-26.84,20.32-8,.74-8.46-11.42-16.09-13.49,2.22,7.15-.64,14.87-5.61,21s-11.9,10.88-18.72,15.58a33.15,33.15,0,0,1,13.77,1.7l-11.86,4.48L508.84,524l-12.1,5.71,11.83,1.71-14.44,7.74,13.83,0c1,2.7-3.47,4.27-6.76,5s-6.93,4.14-4.14,5.76a10.51,10.51,0,0,1,11.49.83l-13.23,7.23a30.49,30.49,0,0,1,13.4,1.31l-12.81,7.49c4.52-1.63,10.34,0,12.86,3.49-5.65-.65-11.59,2.47-13.35,7,2.69-1.6,6-3.29,9.08-2.34s2.95,6-.33,5.63c-4-.43-8.19,2-9.06,5.34,2.16.19,4.19-.75,6.19-1.44s4.47-1.11,6.21,0,1.2,4.07-1,4c-4.13-.17-8.27,2-10,5.13,4.08,1.63,9.55-4.7,12.39-1.76,2.15,2.23-2.15,4.75-5.4,5.68s-6.4,5-3.18,5.95c2.43-3.54,9.69-3.54,12.12,0a16.34,16.34,0,0,0-11.7,6.21l12-2.53c2.41,2-1.63,5-4.93,5.74s-7.49,3.4-5.34,5.63c3.41-3.53,10.24-4.28,14.63-1.61a13,13,0,0,0-9.15,5.61,12.44,12.44,0,0,1,13.56.45c-5.52.08-10.82,3.2-12.74,7.53a22.11,22.11,0,0,1,15.87-2.83l-13.88,10,15.15-5a4.15,4.15,0,0,1,.8,4.75c-5-.06-9.4,4-8.88,8.12,3.11-4.35,11.24-5.39,15.75-2-3.4,1-6.91,2-9.48,4.1s-3.9,5.58-2.09,8.17c2.76-4.4,10.37-6,15.31-3.27-1.07,2.67-5,3.51-7.87,4.89s-5,5.35-2,6.67a12.63,12.63,0,0,1,10.83-3.75c1.88,2.35-1.71,5-4.58,6.49s-5.54,5.24-2.61,6.66c2.54-4.67,11.25-5.78,15.33-2-6.67,1-12.31,5.73-13.47,11.32m279.31-271.9a6.63,6.63,0,0,1,5.42,3.14,39,39,0,0,0-9.6,4.93,8.4,8.4,0,0,1,6.2,2.24l-12.08,6.27,8,2.66-11.47,5.86,4.47,3.11a30.47,30.47,0,0,1-11.45,5.29l8.3,2.13a27.38,27.38,0,0,1-9.83,5.25,5.85,5.85,0,0,0,6.46,1.61l-6,5.63-20.4,19c2.14-.37,4.37,1.48,3.93,3.27-2.43-.62-5.33.68-6,2.72,3.71-.66,7.57,2.61,6.71,5.71a9,9,0,0,0-6.93,5.08c4.88-3.88,14.5-1.29,15.74,4.24a10.26,10.26,0,0,0-7.58,5.58c13.46,4.64,24.89,13.3,31.76,24a34.84,34.84,0,0,0,9-20.16c5.4,2.7,9.05,7.68,9.47,12.93.35,4.48,8.24,5.62,12.79,3.24,9.92-5.18,9.33-17.54,5-26.63-1-2.17-2.22-4.41-2-6.74a5.07,5.07,0,0,1,5.36-4.38c3.55,33.5,28.31,64.93,63.74,80.89,2.48-2.23-.94-5.72-4.35-6.8s-7.77-2-8.58-5c6-1.89,13.31-.5,17.78,3.37,2.59-2-1.06-5.4-4.45-6.2s-7.89-1.78-8-4.73c5.11-1.79,11.53-.51,15.12,3,2.58-2-1.28-5.29-4.68-6.09s-7.94-2.49-7-5.34A40,40,0,0,1,924,543.8c-1.9-3.92-6.85-6.66-11.91-6.58-2.42,0-2.79-3.38-.73-4.43s4.74-.36,6.86.6,4.24,2.21,6.66,2.19c1.24-2-1.46-4.3-4.1-4.92s-5.67-.61-7.7-2.15-.9-5.39,1.73-4.76l10.3,2.46c2-2.54-2.81-4.89-6.38-5.48s-7.95-3.82-5.2-5.81c3.2-2.31,8.76,3.56,11.72,1a17.92,17.92,0,0,0-12.44-4.78,3.23,3.23,0,0,1-.08-5,19.24,19.24,0,0,1,11.59,3.07c1.31-3.05-3.18-5.5-6.88-6.46s-8.37-2.82-7.8-6a45.57,45.57,0,0,1,13.29,1.42,46.36,46.36,0,0,0-16.25-9.09A46.73,46.73,0,0,0,916,486.3a57.37,57.37,0,0,1-13.76-5.08l7.62-3.43-12.92-5.54a16.4,16.4,0,0,1,15,.09A22.35,22.35,0,0,0,897.85,465c2.48-3.27,9-3.59,11.91-.57,1.69-2.06-2.41-3.94-5.37-4.26s-6.74-2.94-4.44-4.54l12.15,1L898,450.33a26.86,26.86,0,0,1,11.14-1.66L897,443.14a13.2,13.2,0,0,1,11.14-2l-12.72-6.85,6.67-2.27-8.72-3.44,5.29-4.91c-2.59.16-5.49.23-7.42-1.22s-1.26-4.92,1.34-4.88c-1.4-2.2-5-2.41-7.7-3.43s-4.29-4.94-1.41-5.57a19.41,19.41,0,0,1-10.82-5.86l9.9-1.13a29.05,29.05,0,0,0-11.53-4c.53-3.32,6.09-3.67,10.05-3.12L869.37,389a17.66,17.66,0,0,1,9.13-2.35c-13.16-8.79-35.78-3.94-42.26,9.06-2.92,5.87-17.28,2.13-19,8.32a14.42,14.42,0,0,1,12.7.26l-17.64,6.52M372.1,440.37c.12,3.13,7.15-1.19,9.8,1,2,1.66-1.27,4.16-4,4.56s-6.53,1.19-6.35,3.53l8.92-.31c1.75,2.1-2.36,4.13-5.4,4.45s-7.1,2.45-5.26,4.5c2.34-1.65,5.24-3.41,8.17-2.68s3,5.42,0,5.13c-4.86-.46-9.81,2.69-10.57,6.73A19.56,19.56,0,0,1,383.07,465c-.94,3.34-5.9,4.29-9.71,5.55s-7.37,5.59-4.15,7.73c1.34.89,3.24.81,4.9,1.19s3.33,1.85,2.48,3.1l-13.22,4.55a12.36,12.36,0,0,0,8.86.33c1.12,3.19-4.27,4.86-8.18,5.5s-8.43,4.46-5.28,6.5c2.08-1.85,4.7-3.85,7.69-3.43s3.79,5,.76,5.1c-5.21.12-10.14,3.19-11.78,7.32,4-3.12,11.17-2.65,14.55.94a24.51,24.51,0,0,0-15.8,7.29c4.41-2.89,11.56-2.16,15,1.53-6.75-.25-13.45,3.45-15.81,8.75a16.16,16.16,0,0,1,16.36-.47,31.16,31.16,0,0,0-16,8.74c2.46.42,4.86-.76,7.07-1.76s4.95-1.85,7.15-.84,1.87,4.65-.64,4.53c-4.6-.22-9.17,2.44-10.51,6.12a20.63,20.63,0,0,1,17.51-2,36.1,36.1,0,0,0-15.29,9,26.8,26.8,0,0,1,18.37-1.42,74.24,74.24,0,0,0-16.22,8.72c3.52,1.31,7.3-1,10.82-2.29s9.28-.42,8.94,2.78a33.72,33.72,0,0,0-9.68,3.21c-2.52,1.29-4.35,5.09-1.45,5.59a4.52,4.52,0,0,0,2.79-.75c32.46-17.32,55-47.12,59.71-79.07a3.2,3.2,0,0,1,4.17,1.32c.67,1.32.3,2.84-.12,4.23-2,6.63-5.22,13.27-4.41,20.08s7.55,13.84,15.67,12.9c3.41-.4,5.19-3.61,5.79-6.44s.79-6,3.22-8,8-1.06,7.57,1.79c-.77,5.54,1.77,11.32,6.63,15.14,7.93-10.52,19.31-19.2,32.57-24.83l-7.26-4.43a58.56,58.56,0,0,1,14.57-16.06l-5.81-2.3,3.92-2.68L484,453.82a4.41,4.41,0,0,0,4.46-2.32c-3.63-.24-7-2.49-8-5.41q4.47-.39,9-.65A29.82,29.82,0,0,1,477.94,439l4.33-3.09c-3.35-.29-7.14-.8-9-3.14s1-6.52,4-5.21L467,421.84a14.19,14.19,0,0,1,4.46-3.94c-2.35-.28-4.89-.9-6.19-2.57a2.85,2.85,0,0,1,2.11-4.56,73.06,73.06,0,0,1-16.53-6.29,17.44,17.44,0,0,1,11.69-.62c-3.37-5.79-16.7-2.53-19.62-8.48-6.25-12.72-28.56-17.32-41.17-8.49l9.53,1a41.1,41.1,0,0,1-13.31,7.41,13.49,13.49,0,0,1,11.76,2,22.73,22.73,0,0,0-12.23,5,24.58,24.58,0,0,1,12.05.62,23.69,23.69,0,0,1-11.39,4.71c2.49,4.47-4.88,8.14-10.63,9.28,1.33,1.42,2.67,2.83,4,4.25l-10.9,4.2c3-.11,5.9,1.75,6.56,4.18a50.62,50.62,0,0,0-9.66,2.71l8.44,1.92a46.75,46.75,0,0,1-13.83,6.16m410.75,82.85A16.19,16.19,0,0,0,772,519.64c2.23-3.26,7.73-4.59,11.7-2.85-4.8-3.92-9.23-8.15-13.66-12.37-3.75-3.58-7.58-7.26-9.64-11.7s-2-9.87,1.56-13.57c-3.62.63-6.71,3-7.72,6-2.45,7.14-14.59,9-22.26,5.22s-11.83-10.92-15.57-17.66c-1.81,3.18.1,6.89,1.87,10.09,27.68,50.25,17.6,113.48-24.86,155.91a46.4,46.4,0,0,0-3.71-6.16,3.94,3.94,0,0,0,.6,6.1,6.07,6.07,0,0,0,7.27-.66c5.09,3.51-10.73,10-5.65,13.48,3.5-1.36,8.1-.23,10.17,2.5l-9.37,4.24,9.53,4.07c-5,1.22-11.21,4.4-9.3,8.42,2.23-2.79,8.64-1.19,8.68,2.17-4.34.45-8.25,3.11-9.65,6.58A13,13,0,0,1,703,683.25c-4.51.21-8.79,2.58-10.77,6,2.73-.09,5.83-.06,7.71,1.6s.54,5.31-2.14,4.82c-3.93-.74-7.64,3.6-5.53,6.47,2.9-.71,7.23-.73,7.64,1.78.67,4-10,3.44-10,7.51l7.89,2.25a14.44,14.44,0,0,1-10.86,5.53,9.46,9.46,0,0,0,7.54,1.93,17.47,17.47,0,0,1-11.2,6.94l8.45,4.27a29.26,29.26,0,0,0-12.18,6.43c-.29,3.89,6.51,5.61,10.53,3.63s6-5.81,8.76-9a4.23,4.23,0,0,1,2.14-1.53c1.38-.32,2.75.48,3.87,1.23l17.1,11.43,12.35-10.19c1.51-1.24,3.15-2.8,2.75-4.55-1-4.16-11-2.66-11.71-6.85a16,16,0,0,1,12.66-1.13c-1.66-3.16-5.49-5.44-9.61-5.71-3.2-.22-2.27-5,.88-5.5s6,1.52,8.32,3.38c1.37-3.51-2.48-7.68-6.89-7.45-3.3.17-2.94-4.9.27-5.57s6.25,1.34,8.69,3.2c1.58-3.95-3-8.63-8-8.12-3.51.36-3.45-5.1,0-5.94s6.76,1.21,9.46,3.12c.58-4.1-3.52-8.26-8.45-8.56-2.33-.14-2.36-3.45-.28-4.34s4.61-.08,6.6.94,4,2.31,6.33,2.35c-.76-5.33-5-10.23-10.78-12.52,3.77-2.86,10.68-1.83,13,1.94,3.21-.91.5-5-2.64-6.1s-7.45-2.9-6.17-5.52c1.09-2.24,5.13-1.78,7.57-.47s5.1,3.17,7.87,2.43c-2.09-4.31-6.74-7.68-12.14-8.79.8-2.53,4.68-3.62,7.69-2.89s5.3,2.72,7.46,4.62c1-5.6-3.7-11.49-10.25-12.92,4.33-3.3,12.46-1.63,14.46,3,.57-4.75-4.32-9.47-10-9.68-1.25-2.69,4.23-4.19,7.18-2.68s5.21,4.32,8.66,4.55a23.09,23.09,0,0,0-10.85-10.17,21,21,0,0,1,14.63,2.4c-2-4.27-7.23-7.33-12.71-7.44,2.85-2.84,8.31-3.56,12.07-1.58a19,19,0,0,1-7-6.21,26.65,26.65,0,0,1,13.77,2.5c-2.26-4.08-7.08-7.09-12.4-7.75a13,13,0,0,1,13.63-.7l-8.43-7.9a20.06,20.06,0,0,1,10.65.52,24.65,24.65,0,0,0-10.69-8.6,12.49,12.49,0,0,1,12.46.63,16,16,0,0,0-11.13-7.56c3-2.84,8.66-3.3,12.23-1a20.15,20.15,0,0,0-12.89-7.85,14.93,14.93,0,0,1,14.39-.79,23.81,23.81,0,0,0-14.34-7.68,17.45,17.45,0,0,1,14.16-2.1L771,559.43a15.89,15.89,0,0,1,12.68-.91A26.94,26.94,0,0,0,771,551a15.51,15.51,0,0,1,12.75-1.38c-1.78-4.33-7.18-7.42-12.67-7.26.73-4.22,8.21-3.75,12.92-2.1a26.08,26.08,0,0,0-12.87-8.7l12.59-1.49-12.49-5.29a16.29,16.29,0,0,1,11.6-1.54m70.23,135a36.92,36.92,0,0,1,7.28-3.05l-7.24-4.22,6.4-3.61a44.24,44.24,0,0,0-8.76-3.79c-.92-3.06,5.09-3.6,8.63-2.48-1.28-3.08-4.71-5.46-8.56-5.95a4.23,4.23,0,0,1,2.41-4.23,5.56,5.56,0,0,0,6.59.67,19,19,0,0,1-9.71-8.13l10.11.9-7.79-5.14,2.21-3.33a18.41,18.41,0,0,0,11.17,4l-11.42-8.47a19.92,19.92,0,0,1,9.37-.16c-3.19-1-5.85-3.61-5.58-6.45s4.29-5.18,7.29-3.84c1.47.65,2.37,1.93,3.73,2.74s3.72.8,4.21-.52L863.83,597c.34-3.12,3.45-5.89,7.16-6.36s7.67,1.4,9.1,4.3c1.72-.31,1.19-2.64-.31-3.4s-3.48-.85-4.72-1.88c-3-2.44,1.05-6.31,4.63-8.07a19.86,19.86,0,0,1,11.66,3.76,4.86,4.86,0,0,0,4.14-3.19c-25.42-6-47.93-20.22-61.77-39,.51,16.76-6.39,33-11.84,49.1s-9.49,33.52-3.35,49.48c3.48,9,10,17,14.7,25.68s7.48,18.8,3.09,27.56-18.29,14.43-27.76,9.18c-4.94-2.74-7.65-8-6.61-12.91s5.78-9.06,11.55-10.2c-8.87,2.12-17.36-3.71-24-9-3.28-2.61-8.87-5.14-11.71-2.2,4.93,2.27,7.06,7.35,7.3,12.05s-1,9.4-.74,14.1c.34,7.24,4.2,14.32,10.52,19.28a25.86,25.86,0,0,0,11.45,5.29c6.81,1.16,15.49-.32,19.43,4.46-1.65-2.3-2.68-6.15.4-6.92,4.39-1.1,8.58,6.86,11.41,3.86-3.69-1.22-5.64-5.23-4-8.26a37.33,37.33,0,0,0,12.66,5.15,13.15,13.15,0,0,0-9-6.75c-1.43-2.66,4.44-3.78,7.23-2s5.82,4.6,9,3.41l-8.61-6.59a3,3,0,0,1-1.2-1.38c-.54-2,3.51-2.31,5.41-1s4.11,3.2,6.29,2.3a27.86,27.86,0,0,0-8.31-6,11.66,11.66,0,0,1,10.79-.06l-8.83-6.38a17.67,17.67,0,0,1,11.77.33l-10.36-7,9-1.85c-2-.26-4.18-.59-5.51-1.87s-.92-3.8,1.08-4.09c1.47-.2,2.71.83,4.09,1.3s3.58-.46,2.84-1.54c-2.66-.35-5.65-.88-7.08-2.79s.72-5.22,3.19-4.3c1.73.64,4,2.7,4.63,1.22.48-2.43-3.33-3.57-6-4.65s-3.76-5.34-.82-5.2a5.58,5.58,0,0,0,6.42.2l-9.13-5.82M784.31,451.64c.63-4.36-2.83-8.36-6.54-11.46s-8-6-9.9-10.1.07-9.83,5.22-10.69A47.62,47.62,0,0,0,789,440.08,111.8,111.8,0,0,0,807,403.15c1.44-5.33,2.45-10.79,1.94-16.23-1.15-12.24-10.57-23.7-23.83-29s-29.84-4.22-42,2.72c-11.1,6.36-18.21,17.74-16.76,28.92.87,6.66,4.52,12.81,6.85,19.21A50.34,50.34,0,0,1,732,446.06c-4,9.25-10.91,18.5-8.61,28.15,1.52,6.34,7.29,11.84,14.61,13.93a5.77,5.77,0,0,0,6.41-1.21l32.42-25.78c3.35-2.67,6.91-5.66,7.46-9.51m-238.5-10.46a46.28,46.28,0,0,1-.61-28.78c2.74-9,8.28-17.67,8.07-27-.15-6.64-3.34-13.13-8.35-18.29-8.49-8.74-22.36-13.61-35.78-12.56s-26,8-32.36,17.91c-9.62,14.9-4.91,33.35,2.53,49.1,3.24,6.85,7,13.66,13,19.06l12-17.11a5.88,5.88,0,0,1,1.52-1.67c2.22-1.49,5.8,0,6.89,2.17s.46,4.7-.18,7c-5.62,3.84-11.42,7.86-14.5,13.35s-2.58,12.9,3.12,16.65A213.55,213.55,0,0,1,534.7,488.3c7.67,1.76,15.94-2.77,19.16-8.85s2.35-13.16.06-19.53-5.88-12.36-8.11-18.74M426.58,666.44a18.75,18.75,0,0,0-10.72,7.21,19.77,19.77,0,0,1,11.05-.12L418,680.26a16,16,0,0,1,9.35,1.17l-8.17,5a11.33,11.33,0,0,1,10.09,2.48,12.17,12.17,0,0,0-9.21,4.75,11.8,11.8,0,0,1,11.63,1.79c-4.11.22-8,2.43-9.73,5.56a10.71,10.71,0,0,1,11.29-.33l-8,5.18,7.47-1.81a4.16,4.16,0,0,1,2.26-.12c2.44.83,0,3.88-2.43,4.7s-5.51,3.12-3.56,4.61l11.82-5.46a5,5,0,0,1,2.35,3.48,32.87,32.87,0,0,0-8.86,6.44c2.19,1.52,5.19-.57,7.45-2s7.05-1,6.22,1.29a5.16,5.16,0,0,0-3.12,5.49c2.59-3.32,8.25-4.67,12.54-3a3.42,3.42,0,0,0-1.29,5.21c2.57-3.77,9-5.24,13.52-3.07,15.07-3.08,26.32-16,25.17-28.95-.38-4.21-1.9-8.35-1.69-12.57s2.83-8.82,7.7-9.93c-4.52-2.81-10.82.48-14.58,4s-8.25,7.79-13.8,7c-1.76-.27-3.43-1.07-5.22-1s-3.55,1.86-2.43,3c9.37-.91,16.12,9.83,11.23,16.57s-17.19,7.81-25,3.35-11.21-12.92-10.71-20.79,4.37-15.32,8.66-22.34,9.1-13.91,11.76-21.48c5.42-15.44,1.36-32-4-47.49s-12.15-30.93-12.1-47c-13.24,19-37,31.13-61.35,39.35a28.69,28.69,0,0,0,18.41-3.57l6.61,7.53c-4.65.71-8.76,3.53-10.48,7.21a28.85,28.85,0,0,1,14.31-4.47l-9.46,8.66,13.59-4.48a36.16,36.16,0,0,1-9.2,9.36c2.93-1.6,6.18-3.27,9.65-2.93s6.49,3.89,4.41,6.24a19.79,19.79,0,0,0-6.26,4.5l11.33-1.17-12,10a18.81,18.81,0,0,1,15.11-2.73,49.4,49.4,0,0,0-9.63,6.71l9.13-1.31a18.26,18.26,0,0,1-9.33,8.48c1.35,2.23,5.76-1.49,8.26-.12,2.29,1.26-.45,4.11-3,4.88s-6,2.48-4.73,4.51c2.86-1.79,7.61-.66,8.92,2.11a22.28,22.28,0,0,0-9,4.49,6.09,6.09,0,0,0,6.56.83,12.39,12.39,0,0,1-6.81,7.61l6.72.93-8.9,7.87c3-1.47,7.37-.48,9.06,2.06M695,501.58c-.57-2.06-2.32-4.68-4.69-3.94a365.94,365.94,0,0,1,6.79,130.49c22.39-26.22,33.7-58.91,31.51-91.07-.7-10.22-2.71-20.34-4.72-30.43-.95-4.83-2.06-9.92-5.9-13.61s-11.43-5.11-15.49-1.59c-3.78,3.27-2.65,8.55-1.41,13a219.53,219.53,0,0,1,8,50.55c-5,.43-6.92-5.25-7.11-9.45a201.79,201.79,0,0,0-7-43.92m-112.09-5q-4.2,26.74-8.42,53.5c-.36,2.31-2,5.37-4.66,4.72a132.75,132.75,0,0,1,5.53-45c1.43-4.72,3.11-9.73,1.31-14.35s-8.85-8.12-13.61-5.31c-2.24,1.32-3.33,3.6-4.23,5.77-18.14,43.37-9.86,93.83,21.59,131.52A343.73,343.73,0,0,1,588.09,498a4.39,4.39,0,0,0-5.14-1.47m352.63,85c-36.41-9.74-67.52-32.55-83.83-61.45-3.32,1.47-6.74,3-9.1,5.46s-3.37,6.08-1.42,8.77a109.2,109.2,0,0,0,32,29c1.57,1,.2,3.28-1.72,3.5s-3.68-.84-5.18-1.87a120.7,120.7,0,0,1-32.73-33c-1.61,2.65.2,5.8,2.13,8.3,21.11,27.39,61,43.88,99.82,41.3m-341-271.27c.3-3.08.59-6.22-.23-9.23-1.24-4.54-4.86-8.32-8.38-11.93l-16-16.36c-10.82,10.68-22.1,22.18-24.25,36.06-.33,2.08,3,3,5.54,3.09q19.74.84,39.51,1.28a4.68,4.68,0,0,0,2.73-.5,3.08,3.08,0,0,0,1-2.41M426.83,520.48c-15.9,28.89-47.06,51.63-83.45,60.91,21,1.86,42.2-3.1,61.17-10.86,1.42-.58,3.07-1.56,2.74-2.85a2.7,2.7,0,0,1-1-3.86,10.37,10.37,0,0,1,3.61-3.1A97.43,97.43,0,0,0,438,533.88c1.83-2.68.63-6.24-1.86-8.54s-6-3.61-9.35-4.86m261-224c-2.35,4.92-1.91,10.42-1.43,15.71a303.06,303.06,0,0,0,42.51-.68c1.82-.16,3.89-.46,4.88-1.74.87-1.13.58-2.61.2-3.91-3.88-13.15-14-24.32-24.61-34.58-2.53,10.24-16.92,15.49-21.55,25.2M472.12,283.94c-1.86,1.18-1.74,3.54-1.16,5.43a23.85,23.85,0,0,0,10.24,12.82c4.85,3.06,11.14,5,13.92,9.55.69,1.12,2.7.72,4.06.16,6.27-2.58,12.6-5.2,18-8.94s9.78-8.76,11-14.52c.28-1.36.29-2.95-.89-3.93a27.21,27.21,0,0,1-9.12-13.84c-.43-.68-1.57.15-1.86.88q-2.52,6.39-5,12.79a20.49,20.49,0,0,1-4.06,5.78l-7.45,8.42a57.7,57.7,0,0,1-13.35-18.39l-4.68-10.4c-1.54.33-1.85,2-2,3.3a16,16,0,0,1-7.52,10.89m336.76,6.58a6.39,6.39,0,0,0,1-3.67c-.24-1.55-1.62-2.78-2.82-4a29.05,29.05,0,0,1-7.69-13c-5.62,5.39-4.52,14.09-10.16,19.47-1.73,1.65-4.08,3-5,5-.75,1.63-1.59,4.16-3.57,3.59a57.61,57.61,0,0,1-16.15-25.41c-.4-1.37-1.31-3.1-3-2.93.42,5.3-2.49,10.72-7.53,14-3.27,2.11-1.7,6.45.24,9.5,2.25,3.52,4.7,7.06,8.34,9.65a43.83,43.83,0,0,0,7.17,3.83l13,6c.47.21,1.18.37,1.42,0,3.53-5.89,12.69-7.57,18.17-12.31,3.11-2.68,4.88-6.21,6.58-9.66m30.83,13.61a37.32,37.32,0,0,1-12.93,16.4c-4.6,3.36-10.07,6-13.95,9.9s-5.78,10-2.16,14.1a7.11,7.11,0,0,0,3.81,2.3,12.25,12.25,0,0,0,5-.34,106.44,106.44,0,0,0,35.06-14.41c1.94-1.26,3.92-2.7,4.58-4.68,1.09-3.26-1.77-6.43-4.44-9l-15-14.29m-398.38.75a1,1,0,0,0-1.52,0l-14.63,13.93c-1.69,1.61-3.41,3.28-4.23,5.31a4.9,4.9,0,0,0,1.47,5.91,104.8,104.8,0,0,0,35.84,16c3.39.81,7.47,1.36,10.11-.6,3.57-2.65,3.77-7.44,1.78-11.07s-5.71-6.34-9.32-8.95l-7.88-5.7c-5.52-4-11.49-8.76-11.62-14.86M684.77,821.72a6.84,6.84,0,0,0,3.31,1.71,6.49,6.49,0,0,0,3.32-.68,19,19,0,0,0,8.66-7.17c1.24-2,4.77-2.19,7.1-1.07s3.82,3.11,5.44,4.9,3.72,3.55,6.39,3.8,5.06-1,7.15-2.32c3.53-2.21,7.07-5.53,6-9.11-.68-2.33-3.17-4.06-3.82-6.4-.45-1.64-.1-3.68-1.71-4.69a6.06,6.06,0,0,0-3.17-.57l-38.9.06c-1.64,0-3.85.44-3.82,1.82.09,4.23-5.62,7.8-4.34,11.89.51,1.62,2,2.86,3.49,4l4.86,3.82m-131.26-9.25c-.67,3.8,1.89,7.84,6,9.5a12.8,12.8,0,0,0,12.66-2c1.84-1.64,2.93-3.85,5-5.29s5.87-1.59,6.93.48c2.84,5.58,11.37,9.53,17.62,6.43a10.16,10.16,0,0,0,5.54-9.07c0-3.55-1.51-7-3.35-10.17a3.9,3.9,0,0,0-1.34-1.57,5.58,5.58,0,0,0-2.72-.48l-38.28-.22c-2.22,0-5.27.67-5,2.52.4,3.4-2.46,6.47-3,9.86m69-541.61c-3.93-2.27-8-4.57-11-7.68S606.67,256,607.7,252l-2-.28c-3,6.23-9.47,11.22-17.13,13.25-2,.53-4.29,1-5.41,2.47-1.71,2.27.43,5.15,2.48,7.22q8.34,8.43,16.67,16.88a4,4,0,0,0,1.86,1.25,4.68,4.68,0,0,0,2.36-.29,130.94,130.94,0,0,0,15.83-6.06c3.39-1.55,7-3.69,7.44-6.9.46-3.71-3.62-6.59-7.29-8.72m39.34-1.69c-2.43,1.47-5.13,2.65-7.31,4.36s-3.86,4.17-3.43,6.65c.63,3.56,5,5.63,9,7.14l12.54,4.86c2.21.85,5.65,1.29,6.33-.65,2.59-7.31,11.37-11.65,16.92-17.7a7.57,7.57,0,0,0,2.28-4.09,3.43,3.43,0,0,0-2.55-3.65c-8.9-2.21-16.66-7.45-21.11-14.25-1.23,6.87-5.89,13.27-12.64,17.33m-14.91,41.67a17.26,17.26,0,0,0,6.69,1.08l19.2.52c2.37-3.1.19-7.41-3.3-9.66s-7.93-3.1-12-4.52a39.94,39.94,0,0,1-10.88-5.74c-2.27-1.71-5-3.83-7.93-3.1a9.21,9.21,0,0,0-3.34,2,45.71,45.71,0,0,1-14.34,7.5c-3.88,1.23-8.1,2.06-11.2,4.36s-4.47,6.75-1.49,9.16l14.54-.34c5.26-.12,11.17-.49,14.61-3.82,1.2-1.16,3.47-.94,5-.15s2.79,2,4.39,2.74m17.11-62.37a25.54,25.54,0,0,1-5.19-9.76,86.06,86.06,0,0,1-16.76,27.54,2.56,2.56,0,0,1-1.53,1,2.79,2.79,0,0,1-2.3-1.24c-4.64-5.25-9.31-10.56-12.33-16.58a31.16,31.16,0,0,1-3.08-9.48c-1.56-.57-2.6,1.35-3,2.75a15.28,15.28,0,0,1-5,7.83c-2.82,2.41-2.55,6.5-.49,9.39s5.52,4.88,8.87,6.76,6.83,3.82,9,6.68c1,1.41,3,3.25,4.46,2.12,2.44-1.9,6.94-1.37,8.65,1,2.13-5,8.43-7.75,13.66-10.81s10.24-8.27,8-13.27a18.86,18.86,0,0,0-3-4M533.17,290.13C529,300.68,518.6,309.37,506,312.83a6.06,6.06,0,0,0-3.92,7.9c1.07,3,3.89,5.36,6.6,7.55l4.47,3.62c1.08.87,3.12,1.64,3.78.51,2.79-4.8,9-7.3,14.34-10.27s10.4-7.86,8.86-13c-.89-3,3.38-5.73,2.71-8.76a6.7,6.7,0,0,0-2.19-3.06l-7.44-7.15m240,22.42c-10.68-3.15-19.61-10.2-24-18.92-.68-1.37-2.44-3.07-3.75-2.08-3.88,2.92-8.08,6.49-7.72,10.84.33,4,4.61,7.81,3,11.61-.9,2.07,1.51,4,3.65,5.32l19.12,11.55a6.46,6.46,0,0,0,2.65,1.09c1.82.19,3.39-1,4.65-2.11,2.88-2.52,5.83-5.21,6.88-8.57a6.92,6.92,0,0,0-4.47-8.73m44-22.57c-.85-.76-2.71-1.33-3-.32-2.4,8.78-10.06,16.44-20,20a8.79,8.79,0,0,0-5.58,9.92c.75,3.89,3.65,7.24,6.8,10.17,1.1,1,2.45,2.07,4.08,2,2.52-8.4,13.62-12.44,21-18.51a29.58,29.58,0,0,0,8.44-11c.49-1.14-.59-2.3-1.59-3.18l-10.19-9m-361.32,6.64c-1.59,1.06-3.4,2.14-3.93,3.78a4.75,4.75,0,0,0,.06,2.64c2.91,11.39,21.38,15.23,26.88,25.93.6,1.17,1.48,2.66,3,2.53a3.43,3.43,0,0,0,1.94-1.1c3.22-3,6.56-6.1,7.79-10a8.19,8.19,0,0,0-4.79-10.29c-11-3.92-19.38-12.61-21.62-22.43a35.33,35.33,0,0,1-9.33,8.92m175.55,39.67q4,5.08,8.57,9.88l8.52-9.74c1.75-2,3.58-4.16,3.78-6.65.26-3.26-2.3-6.14-4.74-8.7l-7.64-8L631,323a11.92,11.92,0,0,0-2.86,4.24c-1,3.17,1.19,6.37,3.36,9.09M688,543.81l-9.58-.64c-1.5-.1-1.65,2.08-.36,2.72s2.93.31,4.43.22a12.12,12.12,0,0,1,7.26,1.85c0,2.22-3.66,2.8-6.28,2.5s-6.2-.27-6.85,1.87l8.67.41c1.55.07,3.26.2,4.35,1.12a1.74,1.74,0,0,1-.7,3.1c-3.94-.85-8.73-1.51-11.56.94,2.1,1.34,5,1.14,7.65,1.23s5.75.89,6.44,3c-1.7,1.3-4.35.7-6.61.36s-5.33.14-5.61,2a31.48,31.48,0,0,1,12.15,1.84c.82,2-2.08,3.56-4.45,4.28,2.71.63,6.09,2.17,5.35,4.43-1.95.56-4-.17-6.07-.49s-4.65.11-5.18,1.77c1.52,1.7,4.63,1.13,7.17,1s5.85,1.74,4.48,3.53c-1.06,1.39-3.56.82-5.46.4s-4.8.31-4.3,1.9a30.51,30.51,0,0,0,8.69.81,4.58,4.58,0,0,0,2.32-.56,3.31,3.31,0,0,0,1.12-3,264.6,264.6,0,0,0-1.53-31.83q-1-9.39-2-18.76a7.17,7.17,0,0,0-1.09-3.67c-2-2.68-6.59-2.62-10.34-2.24-1.58.16-3.71,1.21-2.82,2.32,4.34-.86,9.2.62,11.86,3.61-1.3,1.66-4.27,1.2-6.6.83s-5.66.26-5.55,2.24c1.65,1.48,4.48,1.1,6.89.93s5.55.52,5.75,2.54c-.63,1.81-3.77,1.59-5.92,1s-5.34-.65-5.81,1.2a58.09,58.09,0,0,1,9.86,1.82c1.61.45,3.5,2,2.25,3a3,3,0,0,1-2,.32M694.56,826c-3.37,1.5-7.76,2.74-8.46,5.87-.52,2.33,1.54,4.64,4.1,5.66s5.51,1,8.35,1q7,0,13.91-.28c4.06-.14,9.23-1.11,9.83-4.47.48-2.71-2.52-4.87-5.2-6.45L703,819a19.65,19.65,0,0,1-8.44,7m-114.48-5.71a3.81,3.81,0,0,0-1.54.63L563.26,830c-2.53,1.5-1.71,5.09.77,6.66s5.82,1.69,8.93,1.75l10.51.2a33,33,0,0,0,9.49-.74c3-.85,5.83-2.78,6.5-5.39A129.33,129.33,0,0,0,582.3,821a3.86,3.86,0,0,0-2.22-.69m.87-81.38a3.43,3.43,0,0,0-1-.49c-1.28-.29-2.36.8-3.14,1.7A26.9,26.9,0,0,1,564.52,748c-3.28,1-3,5.4-.34,7.28s6.53,2,10,1.94l13.25,0c4.43,0,9.91-.59,11.47-4.06a2.71,2.71,0,0,0,0-2.45,5.36,5.36,0,0,0-1.88-1.63L581,738.88m113.69,5.67c-2.16,1.17-4.55,2.09-6.38,3.6s-3,3.85-2,5.83c1.39,2.77,5.78,3.2,9.36,3.2l15.87,0c2.5,0,5.11,0,7.35-.94s4-3.09,3.27-5.09c-.49-1.4-2-2.36-3.35-3.23l-16.09-10.08a25.28,25.28,0,0,1-8,6.67M855.17,352.84c-3.29-.46-5.48,2.69-6.63,5.31l-3.09,7c3.26,1.38,5.33,4.18,8.36,5.89s8.3,1.52,9.19-1.44c.49-1.64,3.48-1.82,5-.69s2,2.9,2.57,4.52,1.59,3.36,3.51,3.9l2.91-7.41c.83-2.13-1.73-4.13-4.21-5s-5.42-1.38-6.87-3.26c-2.34-3.05.88-6.87,3.91-9.46,1.66-1.43,1.35-3.88,0-5.5s-3.58-2.59-5.69-3.51c-2.09,1.21-1.51,3.84-1,5.9s.27,4.95-2.22,5.36c-2,.33-3.7-1.37-5.73-1.65m-440.5,3.36c1.24,2.11.43,4.76-1.43,6.52A14.87,14.87,0,0,1,406,366a4.33,4.33,0,0,0-3.39,4.11,10.87,10.87,0,0,0,1.69,5.14c.53,1,1.4,2.19,2.71,2.06l3.06-6.88a4.06,4.06,0,0,1,1.46-2c1.47-.88,3.56-.13,4.88.9s2.41,2.37,4.11,2.88c2.46.75,5.13-.54,7.05-2s3.69-3.3,6.21-3.9c.74-.18.68-1.08.45-1.7l-1.53-4.21c-.81-2.23-1.72-4.58-3.81-6.12s-5.79-1.82-7.44.06c-1.16,1.31-3.93.53-4.7-1s-.19-3.23.38-4.79,1.15-3.28.38-4.79a13.32,13.32,0,0,0-6.45,3,4.4,4.4,0,0,0-1.58,2.35c-.51,2.83,3.72,4.5,5.22,7.06m316.16-10.5a4.3,4.3,0,0,0,.26,2.19c.74,1.49,2.86,2.07,4.73,2.48l11,2.41a4.76,4.76,0,0,0,2.64.08A3.36,3.36,0,0,0,751,351.5a14,14,0,0,0,.47-15.5c-3-4.78-9-8.13-15.45-8.57a45.66,45.66,0,0,0-5.19,18.27M791,275a12.93,12.93,0,0,0,2.47-12.28c-1-3.09-3.22-5.8-5.18-8.55A74.36,74.36,0,0,1,781,241.32a68.49,68.49,0,0,1-7.62,13.33c-2.3,3.16-4.94,6.28-5.84,9.9s.56,8,4.56,9.56a100.33,100.33,0,0,1,9-12.29L791,275M526.86,344.85c1,2.14,2.89,4.87.76,6.3,1.46,2.12,5.17,1.75,8,1.11l8.38-1.92a8.93,8.93,0,0,0,3.71-1.44c1.65-1.34,1.67-3.52,1.45-5.43a45.42,45.42,0,0,0-4.06-14.12,3.41,3.41,0,0,0-1.67-1.92c-1.21-.49-2.63.11-3.78.7C536,330,532.2,332,529.5,334.76s-4.18,6.72-2.64,10.09m-25.2-81.29a25,25,0,0,0,7.85,10.32c5.08-4.19,3.46-11.41,0-16.62s-8.51-9.95-9.57-15.84a74.9,74.9,0,0,1-9.53,15.48,15.07,15.07,0,0,0-.46,18.29q3.39-5.1,6.76-10.2a5.24,5.24,0,0,1,2.13-2.12c1-.43,2.48-.2,2.83.69m-5.15,58.49a63.87,63.87,0,0,1-19.39,19.34c-4.6,3-5.74,9.05-2.45,13.06a3.09,3.09,0,0,0,2.09,1.3,2.44,2.44,0,0,0,2.45-2.35,27.49,27.49,0,0,0-.59-3.44c-.28-3.39,3.11-6.12,6.22-8.3L493,335.9c1.51-1.06,3.26-2.19,5.21-2a7.4,7.4,0,0,1,3,1.2,75.74,75.74,0,0,1,18.92,15.69c2.45-2.33,1.8-6.09-.32-8.63s-5.39-4.23-8.35-6.1a52.17,52.17,0,0,1-15-14M763.6,348.8c-.11-3.23,3.28-5.7,6.36-7.65l9.26-5.89c1.29-.82,2.8-1.69,4.4-1.45a6.31,6.31,0,0,1,2.65,1.29l5.24,3.7c3,2.15,6.14,4.35,8.21,7.2s3,6.51,1.33,9.55a5.91,5.91,0,0,0,5.34-2.34c2-2.72,1.14-6.36-.93-9s-5.16-4.68-8-6.86a53.68,53.68,0,0,1-12-12.85c-.74-1.14-2.89-1-4-.12a10.06,10.06,0,0,0-2.28,3.36c-4.3,7.45-17.14,9.52-20.81,17.21-.79,1.64-1,3.71.47,5s4.79.66,4.73-1.11m-82.46-38.21c1-4.56-1.13-9.5-5.36-12.5s-9.81-3.9-14.83-5.71a38.28,38.28,0,0,1-11.14-6.2c-2.23-1.8-4.26-3.88-7.07-5s-6.76-.76-8.24,1.51c-2.94,4.51-8.72,7.14-14.38,9.13s-11.67,3.69-16.18,7.17-7.05,9.43-3.91,13.84c.36.5,1.38.24,1.66-.29a2.48,2.48,0,0,0,0-1.72c-.93-4.43,2.46-8.82,6.84-11.44s9.63-3.93,14.59-5.67,9.95-4.13,12.55-8.07c1.29-1.95,4.78-2,7.09-.92s3.87,3,5.79,4.58c3.59,2.87,8.37,4.42,13,5.9s9.43,3,13,5.95,5.57,7.54,3.51,11.32c1.1,1,2.81-.59,3.09-1.91M790,343.53l-7.55-4.9-12.18,8.12a4.35,4.35,0,0,0-1.84,1.84,1.4,1.4,0,0,0,1.24,1.84A46.38,46.38,0,0,1,786,353.9c2.37,1,5,2.21,7.51,1.39a4.52,4.52,0,0,0,2.44-6.34c-1.11-2.29-3.54-3.91-5.88-5.42m-299.73-.17c-2.6,1.74-5.35,3.67-6.25,6.35a4.78,4.78,0,0,0,4.5,6.15,10.33,10.33,0,0,0,4.31-1.46,37.32,37.32,0,0,1,17.2-3.67c2.14-1,.27-3.66-1.66-4.89l-11.14-7.15-7,4.67M740.2,357.82a1.11,1.11,0,0,0,1.2-1.59,3.8,3.8,0,0,0-2.34-1.28,369.09,369.09,0,0,0-90.46-12.86c-.71,1.83,2.47,2.84,4.76,2.91a387.39,387.39,0,0,1,86.84,12.82M545,316.84A302.56,302.56,0,0,0,627.87,318a4.39,4.39,0,0,0,2.54-.88,1.43,1.43,0,0,0,.34-1.57,630.7,630.7,0,0,1-79,0c-2.38-.14-5.11-.2-6.76,1.24m86.18,27.79c.9-.32.78-1.53,0-2a5,5,0,0,0-2.81-.46,394.6,394.6,0,0,0-87,12.69c-1.37.36-3.05,1.14-2.75,2.32a7.89,7.89,0,0,0,4.45-.23,428.49,428.49,0,0,1,88.14-12.29m105-27.91c-2.1-1.41-5.08-1.3-7.77-1.14a670.05,670.05,0,0,1-78,.18c-.62,1.28,1.55,2.19,3.19,2.39a304.17,304.17,0,0,0,82.59-1.43m-85.57-73.45c3-.92,2-4.59.6-6.93l-11.18-18.16c-1.53,1-1.67,2.84-2.09,4.42-1.59,6.06-8.72,10.4-9.83,16.53a3.6,3.6,0,0,0,.82,3.41c1,.89,3,.93,3.62-.17l4.08-7.51a6.7,6.7,0,0,1,2.94-3.29c1.47-.65,3.78-.07,3.93,1.32a14.11,14.11,0,0,0,7.11,10.38m-38.1,576.65a2.19,2.19,0,0,0-1.09-.5A2.23,2.23,0,0,0,610,820l-6.61,5c-.91.68-1.91,1.67-1.4,2.59a12.89,12.89,0,0,1,1.42,8.44,29.74,29.74,0,0,0,18.16-5.23c.94-.67,1.91-1.62,1.6-2.62a3.15,3.15,0,0,0-1.3-1.42l-9.36-6.83M559.39,826a17.37,17.37,0,0,1-7.66-5.11c-1.82-2.18-5.88-.59-8.31,1.13-3.22,2.28-6.74,5.85-4.59,8.87,1.18,1.65,3.6,2.29,5.82,2.79l11.94,2.74a14.48,14.48,0,0,1,2.8-10.42m182.67,7c2.62-1.08,5.41-3.28,4.37-5.56a5.79,5.79,0,0,0-1.79-1.91l-6.27-5a3.31,3.31,0,0,0-5-.06l-7.73,5.86c.88,2.54,1.75,5.08,2.63,7.61a2.31,2.31,0,0,0,1,1.43,3.22,3.22,0,0,0,1.78.21,36.65,36.65,0,0,0,11-2.6m-75.3-9.24c-1.51.77-3.25,1.39-4.16,2.66-1.61,2.26.48,5.27,3.24,6.54s6,1.47,9,2.39a10,10,0,0,0,4.22.83c1.45-.19,2.7-1.68,1.81-2.64-1.54-1.65,1.19-3.81,1.29-5.9.06-1.37-1-2.56-2.17-3.56a40.05,40.05,0,0,0-7.53-5.26,14.86,14.86,0,0,1-5.69,4.94M492.09,279.25c-.8,2.86,1.5,5.61,3.66,7.92,1.58,1.69,4.73,2,7,1a7.37,7.37,0,0,0,4.11-5.18c1.06-4.79-2.76-10-8.35-11.38-1.49,2.89-5.55,4.61-6.4,7.68m290.26,9.58c3.59-1.6,5.95-4.94,5.9-8.33s-2.51-6.69-6.14-8.21c-.71-.3-1.74-.48-2.19.08-3.76,1.54-6.26,5-6.12,8.53s2.91,6.85,6.79,8.19a2.54,2.54,0,0,0,1.76-.26M545.64,759c-1.3.56.46,2,1.9,2.24,7.93,1.19,15.88,2.38,23.92,2.78,13.56.69,27.12-.85,40.55-2.52,1.64-.21,3.73-.85,3.62-2.23-8-.78-16.07,1.05-24.11,1.84-12.18,1.2-24.5,0-36.68-1.21l-9.2-.9M856.23,348.19a3.27,3.27,0,0,0,.11-3.94,143.2,143.2,0,0,1-52.26,16c-1.71.18-3.67.46-4.57,1.7a4.94,4.94,0,0,1,3.34,2.52,7,7,0,0,0,2.83,3c1.38.6,3.58-.06,3.5-1.36-.17-2.52,2.33-4.71,5.13-5.68s5.9-1.05,8.89-1.44c6.33-.82,12.26-3,18.11-5.24l14.92-5.61m-117,411.33c-6.82-.87-13.72.43-20.55,1.22A139.31,139.31,0,0,1,675,758.88c-2-.42-4.65-.72-5.82.73l1.27,1.48A192.21,192.21,0,0,0,704.73,764c11.4-.11,22.73-1.4,34-2.81l.51-1.69m-95-503a8.39,8.39,0,0,0-.11-13,5.72,5.72,0,0,0-3.7-1.43,5.94,5.94,0,0,0-2.09.56c-5.93,2.63-6.94,10.59-1.8,14.2a5.82,5.82,0,0,0,7.7-.29M472.52,368.91l6.36-6.26a1.69,1.69,0,0,0,.64-1.06c0-.82-1.27-1.13-2.24-1.22a138.55,138.55,0,0,1-52.84-15.74,1.83,1.83,0,0,0-.67,2.79,6.82,6.82,0,0,0,3,1.95,195.11,195.11,0,0,0,19.39,7.19A83.18,83.18,0,0,0,462,359.82c5.4.57,10,4.56,10.5,9.09M686.14,780.14A7.9,7.9,0,0,0,695,786.9a7,7,0,0,0,5.5-4.88,9.66,9.66,0,0,0-1.06-6.9c-1.36-2.68-5.78-3.65-8.86-2.31a7.41,7.41,0,0,0-4.46,7.33M611.76,740.3a18.64,18.64,0,0,0-8,11.73,4.19,4.19,0,0,0,.1,2.38,3.09,3.09,0,0,0,1.74,1.6c7.95.22,14.79-7.08,12.64-13.48-.57-1.67-2.15-3.46-4.21-3.22a5,5,0,0,0-2.27,1m-37.74,33a6,6,0,0,0-3.63-1.17,6.82,6.82,0,0,0-4.43,2.58c-2,2.12-3.77,4.7-3.22,7.35.9,4.36,8.65,6,12.47,2.93s2.94-8.91-1.19-11.69m59.07-67.88c2.82,1.28,6.08-2.16,9.15-1.37,2.06.52,4.27-1.18,4.26-3s-1.74-3.36-3.77-4a13.33,13.33,0,0,0-6.37,0c-2,.42-3.87-1.56-3.3-3.2s2.9-2.55,4.91-2.22a10.93,10.93,0,0,0,3.23.47c1.08-.17,1.9-1.48,1-2-2.66-2.07-6.86-1.59-10.42-1-.93.16-2,.43-2.3,1.18a2,2,0,0,0,0,1q.79,5.21,1.6,10.41c.22,1.38.59,3,2,3.62m86.72-379.09c-1-1.66-2.66-3.58-4.87-3.3a3.07,3.07,0,0,0-2.44,4.07c.61,1.64,2.28,2.84,3.9,3.9s.83,3.09-.47,4.29-3.08,2.12-3.75,3.63c-1.35,3.07,2.68,5.86,6.31,7.05l4.9-9.08a5,5,0,0,0,.88-3,5.3,5.3,0,0,0-.85-1.86q-1.81-2.86-3.61-5.73m-9.9,459.49c3.33,2.32,9,.67,10.75-2.65s0-7.39-3.16-9.83c-2.25-1.71-6.11-1.19-8.18.67a7.58,7.58,0,0,0-2.15,7.14,7,7,0,0,0,2.74,4.67M818.79,350.6c-3.41.59-7.85,2-7.38,4.9a113.3,113.3,0,0,0,45.09-16.38c2.16-1.38,4.39-3,4.88-5.25-2-.22-3.83,1-5.41,2a95.09,95.09,0,0,1-37.18,14.69M583.73,780.33c.37,3.76,4.37,7.81,8.68,6.66a7.09,7.09,0,0,0,4.42-4,7.77,7.77,0,0,0,0-7.23,7.44,7.44,0,0,0-7.22-3.41c-4.06.59-6.21,4.59-5.87,8M421.07,334.65c-1.67.79-.23,2.91,1.28,3.9a114.79,114.79,0,0,0,39.17,16c2.78.58,6,1,8.25-.53-2.37-2.77-7.1-2.88-11.11-3.51a50.67,50.67,0,0,1-7.25-1.85,134.61,134.61,0,0,1-30.34-14m136.1-2.85c-.59,1-1.21,2.06-.86,3.12,1.35,4.11,3,8.54,7.14,11,3.74-1.34,5.08-5.91,2.51-8.54a13.81,13.81,0,0,1-2.22-2.24c-1-1.61,0-3.53,1.13-5.07s2.42-3.19,2.15-5-3.24-3.18-4.61-1.79l-5.24,8.49M543.81,739.15A32.15,32.15,0,0,1,545.4,754a57.93,57.93,0,0,0,11,2.59c3.24-7.3-3.33-16.4-12.57-17.41m185.39,6.39a23.17,23.17,0,0,0-2.21,8.07,3,3,0,0,0,1.34,2.79l9.67-2.27c2.44-4.87-.08-10.48.85-15.7a15.57,15.57,0,0,0-9.65,7.11m-19.91-409.7c1.81-3.83-1.62-7.89-4.84-11-1-1-3-.91-4.34-.15a8.37,8.37,0,0,0-2.79,3.16,4.74,4.74,0,0,1-.07,9.35,11.88,11.88,0,0,0,7.55,6.11c-.38-2.82,3.24-4.82,4.49-7.46M575.16,344c3.62-1.89,7.48-4.73,7-8.27a2.53,2.53,0,0,1-3.23-2.29c0-1.42,1.1-2.64,1.94-3.87s1.46-2.79.62-4c-1.54-2.22-5.87-.88-7.48,1.3s-2.21,5-4.68,6.55a25.37,25.37,0,0,1,5.85,10.6M731.1,771.36a7.86,7.86,0,0,0-4,8.18c.64,3.05,3.44,5.7,7,6.68,1.71.48,2.76-1.53,3-3q.53-4.12,1.07-8.25a4.34,4.34,0,0,0-.52-3.42c-1.37-1.68-4.54-1.34-6.51-.17m-61.81,4.58,1.35,7.68c.36,2,3.8,2.75,5.86,1.65s2.92-3.26,3.31-5.28c.52-2.79.28-6-2.07-8s-7.3-1.82-8.4.85a5.56,5.56,0,0,0-.05,3.08M551,786c3.67-1.34,6.18-4.66,6.06-8s-2.88-6.53-6.65-7.68a3.7,3.7,0,0,0-4.15,2,7.31,7.31,0,0,0-.12,4.37c.41,2.31.83,4.63,1.24,7,.2,1.1.65,2.44,2,2.66A3.32,3.32,0,0,0,551,786m62.71-14.52c-1.74-1.77-5.32-1-7.22.7a7.76,7.76,0,0,0-2.49,8.28,9.84,9.84,0,0,0,7.29,6,21.38,21.38,0,0,0,3.4-11.9,4.35,4.35,0,0,0-1-3m-151-387.1a131,131,0,0,0-46.5-8,5.45,5.45,0,0,0-3.12.67,1.8,1.8,0,0,0-.51,2.42,130.67,130.67,0,0,1,53.34,7.91c.18-1.42-1.64-2.4-3.21-3M868,376.9a106.34,106.34,0,0,0-28.73,1.3,123.9,123.9,0,0,0-24.31,7.29c1.24.92,3.18.41,4.72-.12a114.94,114.94,0,0,1,43.16-5.89c2.37.13,5.81-.67,5.16-2.58M683.69,328.54c.44,1,1.66,1.81,1.7,2.89s-.92,1.78-1.5,2.65c-1.65,2.47.42,6.08,3.76,6.54,4.59-2.2,7-7.15,5.57-11.41a6.48,6.48,0,0,0-5-4.45c-2.53-.36-5.38,1.76-4.51,3.78m-97.14,5.63c1.3,2,2.59,3.93,3.88,5.89,3.06.87,7-1.44,6.34-4.08-.49-1.9-2.9-3.93-1.37-5.39a3.33,3.33,0,0,0,.28-4.58,5.13,5.13,0,0,0-5.27-1.3l-3.89,6.38a2.93,2.93,0,0,0-.6,1.6,3.08,3.08,0,0,0,.63,1.48m-143.8,201a120.3,120.3,0,0,1-26.08,27.88c14.68-6.09,23.52-18.77,30.95-31-2.14-.4-3.8,1.49-4.87,3.09M674.84,337c3.23-2.76,4.08-7.44,1.45-10.61a5.15,5.15,0,0,0-3.22-1.93,4.09,4.09,0,0,0-4.44,2.93c-.34,1.73.76,3.5,2.43,4.57-1.84,1.83-3.45,5-1,6.19,1.55.74,3.51-.09,4.75-1.15M603,327.66c-2.21,3.56,0,8.52,4.43,10,1.51.52,3.43.61,4.62-.33a1.78,1.78,0,0,0-.9-3.17c-1.52-.1-1.91-1.91-1.31-3.09s1.74-2.23,1.74-3.5c0-1.65-2.1-2.93-4.06-2.79a6,6,0,0,0-4.52,2.85m64.94,426a29.55,29.55,0,0,0,12.72,1.52,16.81,16.81,0,0,0-3.31-10.8c-4.63,1.64-8.23,5.19-9.41,9.28m-116-313.73c7.7,6.82,20.3,9.45,30.92,6.44,1.2-.34,2.61-1.4,1.8-2.21-11.08,2-23.2-.36-32-6.34a1.29,1.29,0,0,0-.71,2.11m325.85-77.36a8.47,8.47,0,0,0,6.9-5.59,7.29,7.29,0,0,0-7-4.06c-3.06.17-5.8,2.45-5.82,5s2.92,4.92,6,4.64m-38.82-3.85a10.17,10.17,0,0,0-2.91,1.77c-3.8,3.53-.87,9.48,3.85,12.14,1.57.88,3.67,1.56,5.32.77s1.28-3.53-.62-3.39a4.9,4.9,0,0,1-5.17-4c-.23-2.16,1.3-4.27,3.43-5.52.93-.54.4-1.9-.65-2.24a4.74,4.74,0,0,0-3.25.44m-398-.13a3.08,3.08,0,0,0-1.47-.72c-2-.26-2.45,2.5-1.24,3.89s3.21,2.64,3,4.35-2.52,2.55-4.37,3.29-3.87,2.33-3,3.9c5.8,1.48,12.49-3.24,11.69-8.27-.4-2.53-2.3-4.73-4.56-6.44m288.59,79.65c-2.31-.84-4.78.65-6.84,1.86a37.49,37.49,0,0,1-26.43,3.9c-1.32.62.31,2.21,1.77,2.56,11.22,2.65,24.14-.76,31.5-8.32m-85.7,286.82a24.5,24.5,0,0,0,2.4-14.88c-6.85,3.24-9.63,11.34-5.87,17.12,1.53.43,2.84-1,3.47-2.24m-241.12-372a11.41,11.41,0,0,0-4,1.15c-1.34.59-2.86,1.43-2.84,2.7,0,2.61,2.49,5.1,5.58,5.46s6.37-1.62,6.75-4.21-2.39-5.23-5.51-5.1m428.71,19.34c-3.57-.18-5.66-4.44-3.26-6.66.85-.79,2.15-1.43,2.24-2.49.1-1.36-2.11-2.14-3.6-1.59a6.49,6.49,0,0,0-3.07,3.07l-3.48,5.74q2.64,2,5.46,3.9c1.59,1,3.55,2.1,5.48,1.6s2.25-3.47.23-3.57m-383.86.08c-1.12,1.71,1.21,4.12,3.45,3.56,5.68-1.5,8.94-8,5.33-12a8.33,8.33,0,0,0-4-2.37c-1.49.29-1.63,2.09-.92,3.22s1.91,2.13,2,3.4c.19,2.33-3.15,3.58-5.86,4.15m252.82,78.58-.69,2.32c9,2.9,20,1,27-4.6-2.06-1.56-5.25-.16-7.72.91a28.89,28.89,0,0,1-18.57,1.37m-120.15,0a34.94,34.94,0,0,1-20.57-1.49c-1.93-.77-4.41-1.67-6-.47,6.83,5.44,17.58,7.13,26.32,4.13a1.54,1.54,0,0,0,.24-2.17M704.52,460c-.24,1.7,1.49,3.26,3.47,3.69a11,11,0,0,0,6-.69,23.38,23.38,0,0,0,8.29-5,10.69,10.69,0,0,0-5.39,0l-12.32,2m-246-81.07a10.38,10.38,0,0,0,8.75-4.71,7.34,7.34,0,0,0-1.14-8.65,6,6,0,0,0-3.77-2c-2,2.83,4.13,6.14,2.53,9.14-.74,1.4-2.75,1.87-4.37,2.57s-3.1,2.41-2,3.62m362.18,0a2,2,0,0,0,2.19-1.79c-4-1.39-8.71-4-7.56-7.49.69-2.09,3.49-4.12,2.08-5.94a6,6,0,0,0-5,3.89c-1.87,4.79,2.37,10.56,8.32,11.33M703.94,269.46a50.78,50.78,0,0,1-13.85,14.77c-2.11,1.52-4.6,3.57-3.7,5.77a92.62,92.62,0,0,0,17.71-16.49c1.09-1.32,1.7-3.69-.16-4.05M521.43,337.31c3.71-5.27,10.05-8.82,16.31-12,1.41-.71,3-1.92,2.38-3.18a71.42,71.42,0,0,0-18,10.17,5.68,5.68,0,0,0-2.12,2.48,2,2,0,0,0,1.43,2.5m234.06-7.14a98,98,0,0,0-11.8-6.7c-1.25-.6-3.66-.48-3.22.67a47.13,47.13,0,0,1,18.4,13.36c2.19-2.29-.64-5.51-3.38-7.33M574.79,461.91a1.09,1.09,0,0,0,.5-1.22c-.3-1-1.85-1.31-3.11-1.41l-10.77-.8c-.82-.69-1.42,1-.7,1.82,3.23,3.45,9.86,4.2,14.08,1.61m83.48-138.67a1.52,1.52,0,0,0-2,.82,2.77,2.77,0,0,0,.53,2.13c.68,1.13,1.5,2.29,1.42,3.55-.09,1.47-1.36,2.66-2.29,3.91s-1.48,3-.27,4.1a8.62,8.62,0,0,0,6-6.59,8.9,8.9,0,0,0-3.37-7.92M688,601.33l-1.28,2.17c3.15,2.13,8.65-.2,8.84-3.57.24-4.2-6.63-6.83-11-4.74-.56,1.16,1.16,2.24,2.66,2.36s3.15-.16,4.39.55a2.09,2.09,0,0,1,.44,3.37,3.17,3.17,0,0,1-4.05-.14M549.32,327l1.84,2.46a1.68,1.68,0,0,0,.77.67c.9.31,1.66-.61,2-1.36l2.7-5.81c-2.53-1.7-6.78-3.2-8.47-.89-1.11,1.5,0,3.43,1.15,4.93m179.17,3.12a19.58,19.58,0,0,0,4.72-8.51c-2.37-1.86-6.79-.82-8.06,1.68s.44,5.62,3.34,6.83M640.61,684.44a1.41,1.41,0,0,0,.3-1.64c-4-3.15-11.24-2.54-14.38,1.19-1.19,1.41-.83,4.22,1.21,3.91l2.63-3.46h10.24M620,325.38c-.93,1.83-1.88,3.75-1.74,5.74.22,3,3.23,5.67,6.79,6A12.11,12.11,0,0,1,624,324.58c.42-.83-1-1.61-2-1.27a3.61,3.61,0,0,0-1.92,2.07M580.91,394.6c-.87,1.25.18,2.82,1.38,3.85a17.48,17.48,0,0,0,5.65,3.22c3.18-2.69.43-8.22-4.1-8.23a3.58,3.58,0,0,0-2.93,1.16m249.9-87.23a28.82,28.82,0,0,1-7.3,8.82,67,67,0,0,1-7.77,5.2c9.52-2.57,17.13-9.56,19.31-17.72-2.18,0-3.37,2-4.24,3.7m-128,488.79-21.48-2.06-7.36-.71c-1,.22.1,1.42,1.1,1.61a99.91,99.91,0,0,0,27.74,1.16m-12.69-397c.5,1.49,2.94,2,4.6,1.31a7.11,7.11,0,0,0,3.4-3.55c.48-.9.84-2.1,0-2.78-1.68-1.39-4.46,0-6.11,1.43-1.13,1-2.32,2.27-1.87,3.59M597.3,557.37c.74-.91-.76-1.92-2-2.32a15.16,15.16,0,0,0-6.73-1.1c-2.28.32-4.43,2.12-3.94,4l10.69,0a2.53,2.53,0,0,0,2-.56m122.09,210c-1.23,1.51.75,3.66,2.92,3.8s4.15-1,5.92-2c.9-.54,1.88-1.17,2-2.08a1.4,1.4,0,0,0-2-1.29c-2.38,1.72-7.08-.59-8.85,1.58M820,523.88a2.56,2.56,0,0,0,.11-2,1.5,1.5,0,0,0-2-.57A33.13,33.13,0,0,1,810,532.92c.28,1.38,2.86.76,4-.27a21.67,21.67,0,0,0,6-8.77M563.2,766.51c-1.87-.09-3.74-.12-5.62-.1-1.05,0-2.37.21-2.64,1.07a12.35,12.35,0,0,0,4.28,3.47c1.8.76,4.25.7,5.54-.59a2.3,2.3,0,0,0-1.56-3.85m-95.83-233a1.84,1.84,0,0,0,1.16.24.79.79,0,0,0,.59-.49l-9.8-12.41c-.5,5,2.78,10.19,8.05,12.66M605.17,794l-14.57,1.47-8.9.91a91.28,91.28,0,0,0,26.86-1.47c-.47-1-2.12-1-3.39-.91m118.29-6.54a6,6,0,0,0-4.6,3.81l8.26.31a4.34,4.34,0,0,0,1.94-.21c1.56-.67,1.13-2.84-.35-3.63s-3.39-.63-5.14-.45M580.91,767.84h-6a1.33,1.33,0,0,0-.25,1.66c2.89,2.85,8.93,2.8,11.75-.1.08-1.84-3.26-1.92-5.34-1.31m80.3,49.53a19.3,19.3,0,0,0-.61,2.89c-.09.65.72,1.6,1.13,1,2.13-.69,4.42-1.49,5.57-3.15a2.87,2.87,0,0,0-2-4.48c-2.18-.13-3.53,1.93-4,3.7m28.22-49.88c-3.06-.49-6.15-.88-9.25-1.17-1-.1-2.33,0-2.5.85A10.16,10.16,0,0,0,684,771c2.53.31,5.45-1.12,5.61-3.25M554.45,789.41a1.4,1.4,0,0,0,.38,1.61,3,3,0,0,0,1.84.37l8,0a1.48,1.48,0,0,0,.31-1.66,13.77,13.77,0,0,0-5.46-2.47c-2.07-.3-4.52.51-5.1,2.19M619.18,820l3.92,2.1a6.76,6.76,0,0,0-.79-6c-1-1.5-3.45-2.76-5-1.64-1.92,1.36.13,3.89,2.09,5.2M685.7,516.45a10.68,10.68,0,0,0-5-.24c-1.59.44-2.87,2-2.17,3.24a33.14,33.14,0,0,1,10.61.55,3.36,3.36,0,0,0,.42-2.68,6.86,6.86,0,0,0-3.79-1.15M543,818.23a3.25,3.25,0,0,0,1.49-2.11c.13-2.15-4.14-2.54-5.75-.85s-1.46,4.05-1.82,6.18a19.46,19.46,0,0,0,6.08-3.22M710.34,768l-10.94-.21c-1,2.1,1.94,4.34,4.63,4.12s4.79-2,6.31-3.91M584,791.85a1.56,1.56,0,0,0,1.52-2.11,4,4,0,0,0-2.69-1.74c-3.1-.84-7.67.55-7.16,3.24l8.33.61m17.25-4.61a11.4,11.4,0,0,0-3.76,1.81c-.61.44-1.14,1.31-.49,1.72,2,.69,4.16,1.4,6.2.85s3.28-3,1.63-4.18a4.47,4.47,0,0,0-3.58-.2m77,3.11a22.25,22.25,0,0,0,10,.94c0-2-2.07-3.9-4.49-4.13s-4.89,1.22-5.48,3.19m-80.44-22.86a3.64,3.64,0,0,0-1.65.87,1.47,1.47,0,0,0-.34,1.39c3.73,1.76,9.09.33,10.91-2.92a20.2,20.2,0,0,0-8.92.66m109.37,24,1.8-.26a4.82,4.82,0,0,0-4.15-3.66,5.65,5.65,0,0,0-5.44,2.2,2,2,0,0,0,0,2.36,18.65,18.65,0,0,1,7.73-.67m34.94,25.93c.38,2.48,3.66,4.36,6.57,3.74-1.25-1-1.57-2.59-2.17-4a4.24,4.24,0,0,0-3.6-2.85c-1.77,0-2.81,2.49-1.12,2.91M693.84,588.4a12.35,12.35,0,0,0-10.46.06A15.41,15.41,0,0,0,694.74,590c.49-.52-.22-1.23-.9-1.57M584.5,549.46a55.51,55.51,0,0,0,9.65.18c-.38-1.87-2.48-3.38-4.74-3.43s-4.44,1.4-4.91,3.25M691,611.5c1.41.54,3-1.06,2.4-2.26s-2.49-1.64-4-1.23a7.27,7.27,0,0,0-3.45,2.51,7.73,7.73,0,0,0,4.9,1.22M811.29,325a15.12,15.12,0,0,0-7.89,9.35,24.53,24.53,0,0,0,7.89-9.35M593.56,541.84c1.08-1.65-2-2.91-4.3-3a3.78,3.78,0,0,0-1.75.21c-1.35.66-.58,2.62.91,3a7.33,7.33,0,0,0,4.5-.72m94.82,78.18c2.11.83,5-.51,5.23-2.45a3.58,3.58,0,0,0-3.94-.88,2.49,2.49,0,0,0-1.52,3.16m181-24.5,7.74,4.94c.44-3.25-4.12-6.15-7.74-4.94M682.41,511.23h5.12a2.36,2.36,0,0,0,.43-1.86,26.78,26.78,0,0,0-6.39-.25c-.9.6-.32,2.09.84,2.12m201.1,77.28c.36.75.71,1.49,1.06,2.24a1.85,1.85,0,0,0,1.19-3.19c-1.1-1.06-3-1.25-4.64-1.37-.57,1,.77,2.37,2.08,2.08M631.06,673.73l-.31,1.84a15.17,15.17,0,0,0,6.9,0,6.39,6.39,0,0,0-6.36-1.68m-53.4-282.69a5.84,5.84,0,0,0,3,.27l1.23-1.75a7.08,7.08,0,0,0-4.6-1.06,1.55,1.55,0,0,0,.42,2.48M592.12,532.5a3.77,3.77,0,0,0-4.51.52,2.38,2.38,0,0,0,2.63,1.84,2.16,2.16,0,0,0,2.06-2.3M699,391.33l3,.17c.42-.83.85-1.66,1.27-2.5-1.78-1.11-4.82.3-4.62,2.15M508.42,492c-.93-.22-2.38.19-2.06,1a6.33,6.33,0,0,0,5.77.81c-.29-1.33-2.18-2.23-3.69-1.76m-111.3,95a2.36,2.36,0,1,0-2.18,2.54,5.19,5.19,0,0,0,2.18-2.47M555.7,346.2c.23-1.24,0-2.81-1.43-3.25a2.94,2.94,0,0,0,0,3.83c.23.7,1.82.11,1.36-.5m257.1,32.91c-1.21,1.05.2,3.18,1.91,2.88,1-1-.21-2.77-1.71-2.59M690.49,625c-1.14-.42-1.79,1.11-1.69,2.15a2.68,2.68,0,0,0,3.39-.77l-1.68-1.42M590.34,525.46c-.71-.88-2.64-.62-3,.39l2.07,1.75a1.55,1.55,0,0,0,.93-2.14M465.72,380c-.67.91.41,2.28,1.66,2.13,1.27-.81-.3-2.87-1.71-2.26m247,89.63c.52-.72-1-1.16-2-1a1.11,1.11,0,0,0,.06,2c.83.38,2.05-.2,2.06-1M590.45,519.8l.35-1.81c-1.14-.57-2.83.45-2.55,1.53l2,.37M682,569.33a1.93,1.93,0,0,0,.36,1.81,2,2,0,0,0,2.17-1.8,2.53,2.53,0,0,0-2.6-.07m44.31-223c.26-.79-.25-2-1.15-1.7-.45.57-.91,1.29-.56,1.9s1.87.37,1.57-.27M684.5,498a1.93,1.93,0,0,0-.31-1.76c-.59.34-1.25.78-1.24,1.39s1.31.9,1.41.31Z"></path>
  <path transform="translate(-166.36 -201.67)"
    d="M299.21,287.51a209.15,209.15,0,0,0,34.46-41.64l-32.1,34.21c-2.55,2.72-5.18,5.5-8.76,7.38.44-22.31,19-43.79,45.28-52.5a4.65,4.65,0,0,1,2.21-.34c1.64.28,2.05,1.94,2.09,3.25.23,7.92-.52,15.94-3.48,23.52a41.8,41.8,0,0,1-16,19.83c-6.86,4.5-15.31,7.22-23.68,9.72C297.4,290.86,298,288.61,299.21,287.51Z"></path>
  <path transform="translate(-166.36 -201.67)"
    d="M936.59,237.25a2.39,2.39,0,0,1,.92-1.92c.9-.57,2.24-.3,3.33,0,13.31,4,24.72,11.48,32.46,20.81a53.64,53.64,0,0,1,12.47,31.48,337.84,337.84,0,0,1-40.5-42.32c.18,2.61,1.87,5,3.55,7.26a323.43,323.43,0,0,0,33.31,38c-15.13-1.09-28.76-8.82-36.61-19S935.22,249.07,936.59,237.25Z"></path>
  <path transform="translate(-166.36 -201.67)"
    d="M915.11,805.39c-18.48,13.5-21.76,37.36-43,48.14-17.21,8.75-40.82,5.84-58.53,14-19.53,9-26.74,28.76-45,39.24-15.92,9.14-37.1,9.56-56.16,13.63-32.4,6.9-64.44,25.16-96.31,16.9-14.49-3.76-26-12.62-40.42-16.65-18.72-5.25-40.64-1.89-58.14-9.27-22.61-9.52-29.88-33.5-52.12-43.54-17.27-7.79-39.91-5.4-56.94-13.52-23.11-11-27.22-36.73-47.74-50.54-16.87-11.34-42.61-13.08-57.17-26.24C287.81,763.19,291.25,741,279,724.65s-38.76-25.12-45.85-43.17c-6.64-16.9,6.67-34.91,4.15-52.47-2.56-17.88-21.17-33-21.26-51-.11-21,24.83-37.72,27-58.62,1.65-16-10.4-31.67-7-47.48,4.05-19.07,29-32,34.29-50.86,6.27-22.53-16.62-48.94.91-67.49,23.26-24.6,22.35-61.42-2.11-85.31,25.32,15.72,34.5,45.38,21.17,68.39-5.92,10.22-15.75,19.23-18.48,30.24-4.3,17.33,10.05,34.86,6.65,52.3-4.11,21-32.59,35.53-35.8,56.67-2.39,15.7,10,31.05,7.73,46.76-2.7,18.91-25.79,33.44-27.18,52.44-1.38,18.77,18.81,34.65,21.43,53.34,2.5,17.94-11.47,36.51-3.75,53.53s33.47,24.64,45.17,40.13c11.95,15.82,7.54,37.56,22.61,51.66,14.75,13.8,42.25,14.68,59.22,26.83,17.82,12.75,20.54,35.38,39.91,46.67,18.56,10.8,46,7.35,65.09,17.57,15.07,8,21.72,22.89,35.17,32.54,12.26,8.81,29,12.52,45.07,16l47.8,10.22c20.31,4.35,41.73,8.71,62.15,4.69,15.36-3,28.75-10.59,44-13.83,17-3.59,36-1.81,51.34-8.56,20.87-9.19,27.78-31,47.77-41.3s49-6.79,67.4-19c15.82-10.53,18.29-29.3,32.41-41.21,17.5-14.77,49-16,64.73-31.89,13.92-14.12,10.4-34.83,21.91-50.22,11.69-15.62,37.32-23.7,44.83-40.81,7.4-16.84-5.93-35.14-3.47-52.83,2.62-18.87,22.87-35,21.23-53.92s-24.65-33.31-27.23-52.15c-2.14-15.63,10.33-30.83,8-46.44-3.09-21.12-31.69-35.51-35.93-56.51-3.53-17.4,10.7-34.91,6.52-52.22-2.65-11-12.29-20-18.15-30.22-13.32-23.14-4.69-52.79,20.12-69.17-12.29,18.5-24.95,39.36-17.53,59.38,5.13,13.85,19.35,25.1,22.64,39.29,4.24,18.24-10.59,36.92-5.51,55,5.19,18.48,29.65,31,34.15,49.57,4.07,16.83-9.44,33.76-6.78,50.76,3,19.06,25.55,34,26.79,53.15,1.19,18.41-17.63,34.17-20.64,52.46-3.12,18.93,11,38.8,2.4,56.68-8.07,16.84-33.09,25-44.83,40.46-12.12,16-8.54,37.73-23.64,52.08S932.49,792.7,915.11,805.39Z"></path>
  <path transform="translate(-166.36 -201.67)"
    d="M1006.26,201.74a4,4,0,0,1,2.35,1.89,40.18,40.18,0,0,1,6.15,31.82c-2.34,10.78-8.64,20.9-17,29.63-1.29-18.25,2.1-36.48,5.48-54.56-7.72,17.5-9.32,36.23-10.85,54.7a32.82,32.82,0,0,1-11.62-32.34c2.45-11.44,10.69-21.84,21.51-29.79C1003.35,202.27,1004.79,201.41,1006.26,201.74Z"></path>
  <path transform="translate(-166.36 -201.67)"
    d="M268.36,205.58c.8-1.58,2.14-3.37,4.32-3.39a6.33,6.33,0,0,1,3.3,1.17c11.21,6.86,19,17,21.42,28s-.57,22.6-8.21,32a2.45,2.45,0,0,1-2.12,1.15c-1.06-.14-1.33-1.21-1.38-2.05-.77-16.24-2.78-32.59-9-48.1l1.64,12.41C280,239.35,281.64,252,281,264.63c-17.5-15.92-22.55-39.57-12.61-59m7.69,8.19a1.17,1.17,0,0,0-.37-1.92,1.3,1.3,0,0,0,.3,2.05Z"></path>
  <path transform="translate(-166.36 -201.67)"
    d="M1110,611.61a4.59,4.59,0,0,1,2.64.2c1.13.61,1.06,1.91.83,3a53.72,53.72,0,0,1-18.45,30.64,56.51,56.51,0,0,1-39.56,12.08,1.59,1.59,0,0,1-.59-.13c-.73-.37,0-1.23.67-1.64a316.1,316.1,0,0,0,43.6-30.72c1.58-1.34,3.21-2.77,3.71-4.55-16.58,11.8-33.27,23.67-52.23,33C1057.89,632.2,1082.17,615.08,1110,611.61Z"></path>
  <path transform="translate(-166.36 -201.67)"
    d="M1073.42,732.2c.35.51,0,1.12-.4,1.61a70.35,70.35,0,0,1-33.38,23.87c-14.13,4.65-31.27,4.47-44.12-2.07a355.71,355.71,0,0,0,61.1-16.87L999,751.54c-1.31.29-2.87.54-3.91-.14,17.6-17.63,49.31-25.81,76.9-19.85a2.3,2.3,0,0,1,1.4.65m-13.77,5.65c-.17-.86-2.09-1-2.41-.14a1.5,1.5,0,0,0,2,.1Z"></path>
  <path transform="translate(-166.36 -201.67)"
    d="M206.14,734.91a2.52,2.52,0,0,1-.86-1.83c.16-1.11,1.81-1.64,3.21-1.92,27.28-5.35,58.16,3.1,75.2,20.58-22.12-3.73-44.08-8.27-65.08-14.84,2.89,2.5,7,3.88,11,5.14a501.25,501.25,0,0,0,54.19,13.71,64.65,64.65,0,0,1-39.7,3.43C228.14,755.42,215.43,745.73,206.14,734.91Z"></path>
  <path transform="translate(-166.36 -201.67)"
    d="M166.42,615.46c-.13-1.11-.11-2.4,1-3.08a5.39,5.39,0,0,1,3.44-.28c26.17,3.83,48.82,19.78,56.36,39.72a1.31,1.31,0,0,1,.12.58c-.16,1.05-2.25.66-3.3,0l-50-32.07a291.25,291.25,0,0,0,51.07,36.52,26,26,0,0,1-9.74.85c-13.17-.87-25.58-6.24-34.22-14A45,45,0,0,1,166.42,615.46Z"></path>
  <path transform="translate(-166.36 -201.67)"
    d="M902.14,835.09a3.37,3.37,0,0,1,2-.5l63.48-2.18c.74-.51-.64-1.22-1.63-1.23l-60.29-.36c-1.17,0-2.81-.47-2.45-1.34a1.63,1.63,0,0,1,.79-.68c22.52-12.38,55.08-12.28,77.49.23.61.34,1.29.81,1.18,1.39-.06.38-.45.67-.82.93a80,80,0,0,1-39.26,14C928.06,846.47,912.73,843,902.14,835.09Z"></path>
  <path transform="translate(-166.36 -201.67)"
    d="M378.1,834.71c-11.66,7.64-27.21,11.54-42.39,10.65s-29.8-6.58-39.86-15.5c11.52-6.92,26-10.73,40.58-10.65s29,4,40.38,11.07c-20.46,1.11-41,.86-61.52.7-1.75,0-3.89.16-4.6,1.41Z"></path>
  <path transform="translate(-166.36 -201.67)"
    d="M341,355.25c1.26-.05,2.79.06,3.32.95a2,2,0,0,1-.12,1.82c-5.62,14.26-15.56,28.71-32.82,35.12-7.94,2.94-16.79,3.94-25.49,4.9a2.92,2.92,0,0,1-2.15-.3c-.9-.75.25-1.9,1.31-2.52q19.06-11.19,37.13-23.36c3.64-2.44,7.29-5,9.94-8.09l-49.65,28.8c-.83.48-2,.95-2.8.42C287.33,372.14,313.19,356.23,341,355.25Z"></path>
  <path transform="translate(-166.36 -201.67)"
    d="M996,397.22c-1.13,1-3.15.9-4.85.7-8.05-.93-16.21-2-23.59-4.64C950.17,387,939.87,372.46,934.75,358c-.37-1.05-.22-2.67,1.18-2.65,14.36.12,28.63,4,40,10.92s19.66,16.75,23.32,27.6q-27-14.49-52.64-30.39c-.38,1.72,1.53,3.17,3.27,4.27Z"></path>
  <path transform="translate(-166.36 -201.67)"
    d="M185.78,504.54c-.25,2.91,1.8,5.6,3.78,8.06l29.61,36.86c-14.12-2.2-26.44-9.76-33.72-19.46a44.19,44.19,0,0,1-8.31-32.54,2.47,2.47,0,0,1,.52-1.41c.91-1,2.85-.69,4.3-.26,12.88,3.78,24.12,10.9,31.52,20s10.92,20,9.88,30.74Q203.47,526.15,185.78,504.54Z"></path>
  <path transform="translate(-166.36 -201.67)"
    d="M1091.17,506.86l-36,40.4c-1.22-11,2.31-22.22,9.89-31.5s19.14-16.53,32.38-20.3c1.31-.37,3.32-.4,3.51.67a43,43,0,0,1-7.47,33.39c-7.33,10-20,17.72-34.5,19.84a491.32,491.32,0,0,0,35.24-44.86A7.29,7.29,0,0,0,1091.17,506.86Z"></path>
  <path transform="translate(-166.36 -201.67)"
    d="M409.83,904.76a2.51,2.51,0,0,1-1.27-1c-.34-.74.41-1.5,1.11-2.06,18.92-15.14,50.6-19.42,74.94-10.14.88.34,1.66,1.48.7,1.62L435,900.33c-4.36.62-8.8,1.27-12.69,2.92l66.12-6.34c-9,8.81-22.86,14.36-37.22,15.58A80.64,80.64,0,0,1,409.83,904.76Z"></path>
  <path transform="translate(-166.36 -201.67)"
    d="M869.58,904c-11.58,6.57-26.27,9.71-40.51,8.66s-27.93-6.27-37.74-14.4c-.66-.67,1-1.25,2-1.14L857,903.25c-21-5.47-43.63-5.8-64.78-10.82A80.47,80.47,0,0,1,832.65,887c13.76,1.69,26.75,7,36.37,14.85C869.76,902.46,870.45,903.52,869.58,904Z"></path>
  <path transform="translate(-166.36 -201.67)"
    d="M298.88,472.19,255.93,494a15.42,15.42,0,0,1-5.2,1.88c4-10.16,12.54-19.18,23.87-25.06a73.13,73.13,0,0,1,38.83-7.5c1.6.13,3.72.9,3.21,2.1a56.39,56.39,0,0,1-23.86,26.32,67.29,67.29,0,0,1-39.51,8.38q25-14.64,50.53-28.6c-1.39-.87-3.42-.12-4.92.64m5.4-2.15c-.42.07-.19.65.24.65a1.15,1.15,0,0,0,.92-.61l-1.19-.17Z"></path>
  <path transform="translate(-166.36 -201.67)"
    d="M1025.57,500.18A67.57,67.57,0,0,1,986,491.87a55.82,55.82,0,0,1-23.92-26.31c-.51-1.2,1.62-2,3.23-2.11a73,73,0,0,1,37.82,6.95c11.13,5.53,19.76,14.07,24.07,23.81.35.79-.18,2.16-1.08,1.69q-23.49-12.31-47.52-24c-1.14-.56-2.64-1.1-3.72-.48Z"></path>
  <path transform="translate(-166.36 -201.67)"
    d="M1064.76,400.72c-4.41,3.14-7.63,7.14-10.79,11.09l-24.5,30.58c-2.39-10.59.32-21.83,7.47-31s18.68-16.25,31.81-19.47c1.06-.26,2.43-.43,3.11.26a1.89,1.89,0,0,1,.42,1c3.87,20.22-10.63,41.78-34.15,50.77-1.27.48-3,.88-3.94.05Z"></path>
  <path transform="translate(-166.36 -201.67)"
    d="M249,442.59Q236.64,427,224.24,411.4c-3.08-3.89-6.23-7.83-10.59-10.87L244,443.24c.28.4.55.91.19,1.27s-1.2.24-1.79,0c-12.22-4.2-22.59-11.6-29-20.73a39.52,39.52,0,0,1-7-30.23,2.2,2.2,0,0,1,.5-1.21c.83-.87,2.55-.65,3.87-.31,13,3.4,24.23,10.53,31.18,19.71S251.43,432.1,249,442.59Z"></path>
  <path transform="translate(-166.36 -201.67)"
    d="M534.47,849.55c11.83,5.94,20.93,15.12,25.34,25.54a38.86,38.86,0,0,1-.87,32.3c-2.28-2.51-3.51-5.5-4.7-8.43l-14.72-36.35c-.82,3.69.44,7.44,1.69,11l11.7,33.81c.82.17-.62.8-1.3.43-11.44-6.29-19.75-16-22.88-26.61S527.69,859.11,534.47,849.55Z"></path>
  <path transform="translate(-166.36 -201.67)"
    d="M743.07,850.34a3.19,3.19,0,0,1,2.83,1.9,36.14,36.14,0,0,1,3.21,31.35c-3.79,10.29-12.5,19.43-24,25.23q8.55-23.19,15.6-46.7c.25-.85.42-1.89-.45-2.44L721.4,905.91c-.29.69-1.12,1.56-1.89,1.15a1.12,1.12,0,0,1-.49-.63,39.09,39.09,0,0,1-.47-30.69c4-9.91,12.25-18.77,23.06-24.85A3.54,3.54,0,0,1,743.07,850.34Z"></path>
  <path transform="translate(-166.36 -201.67)"
    d="M839.89,844c2.5-12.55,6.05-25.17,4.72-37.84l-9.84,43a2.64,2.64,0,0,1-.88,1.7c-.58.44-1.7.45-2-.11A40.25,40.25,0,0,1,827,819.76c2.65-10.36,9.67-20,19.71-27.1,8.74,8.69,13,20.07,11.6,31.07s-8.39,21.51-19.14,28.71A26,26,0,0,1,839.89,844Z"></path>
  <path transform="translate(-166.36 -201.67)"
    d="M431.9,792.75c10.26,7.19,17.36,17.07,19.87,27.65a40.14,40.14,0,0,1-5.86,31.38c-1.44-.18-2-1.54-2.24-2.66q-4.77-21.09-9.53-42.18c-1.44.16-1.63,1.72-1.45,2.85l7,42.74c-10.89-7.11-18-17.62-19.48-28.65S423.07,801.43,431.9,792.75Z"></path>
  <path transform="translate(-166.36 -201.67)"
    d="M350.8,728.18c12.9,17.44,10.36,41.05-6.09,56.55a153.77,153.77,0,0,1,.67-33.15c.59-4.67,1.4-9.42.18-14a178.91,178.91,0,0,0-5.67,43.36c0,1.05-.4,2.45-1.75,2.51A2.65,2.65,0,0,1,336,782c-4.1-6.34-7.9-13-8.74-20.06-1.54-12.87,7.09-25.43,18.9-34.48a3.63,3.63,0,0,1,1.92-.91A3.36,3.36,0,0,1,350.8,728.18Z"></path>
  <path transform="translate(-166.36 -201.67)"
    d="M932.69,748.09a145.93,145.93,0,0,1,1.13,36.81c-16.42-15.67-18.88-39.39-5.91-56.93a2.93,2.93,0,0,1,2-1.39,3.48,3.48,0,0,1,2.22.77c10.47,6.95,17.49,17,18.86,27.72s-3,21.78-12.09,29.81a196.34,196.34,0,0,0-5.94-47.26C931.47,741,932.13,744.6,932.69,748.09Z"></path>
  <path transform="translate(-166.36 -201.67)"
    d="M998.16,569.1c-.71-.42-2-.68-2.2,0q17.82,12.39,34.26,25.93c2.92,2.39,5.83,4.86,7.73,7.81-25.62-3.06-47.75-19.44-53-39.25a1.92,1.92,0,0,1-.06-1.16c.39-1.05,2.21-1.21,3.61-1.15,3.16.13,6.33.26,9.46.62,11.62,1.31,22.6,5.79,30.61,12.48s13,15.56,13.88,24.69a4,4,0,0,1-2.87-1.18A351.12,351.12,0,0,0,998.16,569.1Z"></path>
  <path transform="translate(-166.36 -201.67)"
    d="M221.18,299.75a1.89,1.89,0,0,1,.19-1.51c.54-.73,1.83-.8,2.91-.76,13.15.49,26,5,35.15,12.37s14.62,17.5,14.89,27.78c0,.7-.83,1.68-1.4,1.14q-13.51-12.9-28.3-24.92c-4-3.22-8.08-6.44-13.18-8.46a427.33,427.33,0,0,1,38.5,36.68,34.69,34.69,0,0,1-11.69-2.52C238.47,332.21,224,316.71,221.18,299.75Z"></path>
  <path transform="translate(-166.36 -201.67)"
    d="M1010.53,342c-1.47-.33-.77-2.07.2-3l36.74-34.74a253.22,253.22,0,0,0-41.79,34.7c-.54.57-1.44-.42-1.42-1.13.22-10.09,5.39-20.07,14.22-27.44s21.23-12.06,34.1-12.91a14.75,14.75,0,0,1,5,.31c-2.12,20-21.13,38.34-45.81,44.1A2.85,2.85,0,0,1,1010.53,342Z"></path>
  <path transform="translate(-166.36 -201.67)"
    d="M282.68,568.23a252.38,252.38,0,0,0-45.18,31.22c-1.27-.72-1.21-2.19-.95-3.4,2.14-10,9.17-19.36,19.35-25.69s23.4-9.6,36.39-9c1.35.06,1.52,1.57,1.23,2.6-5.47,19.5-27.17,35.59-52.4,38.84-.65-1.36.77-2.74,2.09-3.77Z"></path>
  <path transform="translate(-166.36 -201.67)"
    d="M976.84,651.91c.14-1.31,1.11-3.06,2.72-2.68,13.16,3.13,24.93,10.09,31.58,19.49s7.86,21.2,2.37,31a164.49,164.49,0,0,0-27.84-42.23q10.22,17.7,20.44,35.38c1.47,2.55,3,5.39,1.86,8.05C987.31,690.61,974.88,671,976.84,651.91Z"></path>
  <path transform="translate(-166.36 -201.67)"
    d="M270.87,697.53a200.47,200.47,0,0,1,22.93-39.65c-.58-.54-1.65.08-2.15.67a178.93,178.93,0,0,0-25.71,39.08,1.55,1.55,0,0,1-1.07,1c-.82.12-1.35-.65-1.57-1.29-3.5-10-1.61-21.06,5.11-30s18.19-15.61,31.07-18.09c1.57-.3,2.43,1.37,2.54,2.63,1.67,19.06-10.68,38.48-31.12,49C270,700,270.4,698.63,270.87,697.53Z"></path>
  <path transform="translate(-166.36 -201.67)"
    d="M200.83,697.91c.26-1.15,2.07-1.57,3.55-1.71,22.33-2.12,45.76,6.63,57.66,21.54-.58.65-1.86.43-2.82.14l-26.37-8a6.79,6.79,0,0,0-3.94-.35,148.3,148.3,0,0,0,32,11.35c-1.05,2-4.29,2.5-7,2.69-6.48.44-13.1.59-19.41-.64-14.78-2.89-25.54-12.87-33-23.26A2.38,2.38,0,0,1,200.83,697.91Z"></path>
  <path transform="translate(-166.36 -201.67)"
    d="M1022.16,723.33a5.4,5.4,0,0,1-2.8-.78,1.11,1.11,0,0,1,.28-2A207.51,207.51,0,0,0,1050,709.66c-.72-.65-2.06-.4-3.09-.09l-29.48,8.85c-.69.21-.76-.77-.37-1.26,12-14.69,35.34-23.19,57.45-20.87,1.46.15,3.28.65,3.32,1.8a2.12,2.12,0,0,1-.54,1.25c-7.43,10.51-18.16,20.67-33.07,23.62C1037.05,724.38,1029.51,724,1022.16,723.33Z"></path>
  <path transform="translate(-166.36 -201.67)"
    d="M1078.87,600.26c.82-.69,1.39-2.11.21-2.29l-21.54,16.2a6.94,6.94,0,0,1-3.86,1.75c3.36-17.81,21.86-33.28,44.38-37.11a3.29,3.29,0,0,1,1.65,0c1,.35,1.06,1.41,1,2.25a42.92,42.92,0,0,1-8.55,21.66,42.27,42.27,0,0,1-21.9,14.51c-2.45.68-5,1.16-7.5,1.64-2,.37-4.11.72-5.86,0Z"></path>
  <path transform="translate(-166.36 -201.67)"
    d="M314.09,804.14l31.12,2.09c-12.25,8-30.25,10.12-45,5.38a69.4,69.4,0,0,1-9-3.68A101.23,101.23,0,0,1,280,801.5a3,3,0,0,1-1.22-1.2c-.46-1.17,1.09-2.19,2.47-2.77,19.75-8.41,46-6.37,63.22,4.93a6.34,6.34,0,0,1-3.34.55l-28.79-.4C311.41,803.18,313,804.07,314.09,804.14Z"></path>
  <path transform="translate(-166.36 -201.67)"
    d="M199.67,598.17c-.83,1.08.33,2.39,1.42,3.31L221.85,619a13.12,13.12,0,0,1-3.6.1,46.24,46.24,0,0,1-28.66-13A40.75,40.75,0,0,1,178,581.53c-.09-.87,0-2,1-2.3a3.34,3.34,0,0,1,1.41,0,56,56,0,0,1,29.62,12.68,46.43,46.43,0,0,1,15,23.87,4.4,4.4,0,0,1-3.39-1.19Z"></path>
  <path transform="translate(-166.36 -201.67)"
    d="M963.68,804.4c1.44,0,3.47-.86,2.67-1.79l-28.5.39c-1.15,0-2.49,0-3.13-.78,17.63-11.47,44.69-13.09,64.35-3.84,1.38.65.31,2.31-.86,3.17a64.92,64.92,0,0,1-31,12.26c-11.67,1.27-24.19-1.14-32.9-7.32C944,805.37,953.84,804.67,963.68,804.4Z"></path>
  <path transform="translate(-166.36 -201.67)"
    d="M309.29,341.1,284.18,357a1.82,1.82,0,0,1,0-1.58c5.32-17.22,25.64-30.95,48.22-32.58,1.07-.08,1.45,1.09,1.38,1.93-.74,9.09-5.84,17.93-14.09,24.38s-19.55,10.46-31.19,11.06c-1.23.07-.76-1.52.15-2.18l23.31-16.89C311.79,340.25,310.13,340.57,309.29,341.1Z"></path>
  <path transform="translate(-166.36 -201.67)"
    d="M974.93,347.49l15,10.35a2.74,2.74,0,0,1,1.18,1.24.93.93,0,0,1-1,1.12c-11.65-.66-22.94-4.71-31.18-11.18s-13.36-15.31-14.14-24.41c-.06-.6,0-1.33.69-1.58a2.34,2.34,0,0,1,1-.09,60.57,60.57,0,0,1,31.44,10.79c8.58,6.18,14.51,14.5,17,23.4l-27.06-16.71C969,343.32,972,345.48,974.93,347.49Z"></path>
  <path transform="translate(-166.36 -201.67)"
    d="M419.68,875.59l22-1.9c2.94-.25,6-.49,8.75.44-8.39,6.55-19.88,10.62-31.72,11.22s-23.92-2.28-33.31-7.93c-.31-.19-.64-.41-.66-.71s.26-.55.53-.76c8.26-6.46,19.35-10.67,30.95-11.75a65.44,65.44,0,0,1,33.63,5.71l-34.15,4.48C416,875.58,418.12,875.72,419.68,875.59Z"></path>
  <path transform="translate(-166.36 -201.67)"
    d="M848.9,874.93c4.77.45,9.71.88,14.28-.28q-16.29-2.8-32.88-4.31c-.6-.4.15-1.11.85-1.41a65.16,65.16,0,0,1,32.31-4.65c11,1.21,21.52,5.29,29.42,11.42.7.55,1.43,1.32,1,2a2.47,2.47,0,0,1-1.22.75c-10.17,3.78-20.91,7.41-32.17,7.16a56,56,0,0,1-30-10.11c-.45-.31-.93-.69-.91-1.15,0-.9,1.63-1.07,2.77-1Z"></path>
  <path transform="translate(-166.36 -201.67)"
    d="M1048.83,510.82l15.84-21.59c-.46-.7-1.8-.08-2.39.55a245.81,245.81,0,0,0-17.3,20.81,3.71,3.71,0,0,1-1.22-2.95c-.54-8.49,2.51-17.1,8.55-24.18s15.06-12.58,25.31-15.45a2.57,2.57,0,0,1,1.19-.14,1.73,1.73,0,0,1,1.25,1.59,34.35,34.35,0,0,1-5,25.44c-5.09,7.76-13.82,14.13-24.33,17.07-.81.23-2,.26-2.18-.41A1,1,0,0,1,1048.83,510.82Z"></path>
  <path transform="translate(-166.36 -201.67)"
    d="M539.45,932.61,558.86,929c2.66-.49,5.46-1,8.09-.39-7.15,7.16-17.63,12.25-29,14.1a62.67,62.67,0,0,1-33.8-3.91c-.56-.24-1.17-.53-1.36-1s.29-1.22.79-1.71c7.14-6.93,17.3-11.93,28.39-14a65.51,65.51,0,0,1,33.38,2.65l-32.53,7.5C534.64,933.39,537.22,933,539.45,932.61Z"></path>
  <path transform="translate(-166.36 -201.67)"
    d="M232.94,509.37,216.16,489.5c-1.23.55-.69,2,0,3q6.74,9.42,13.9,18.65c.37.48-.2,1.14-.9,1.27a4.08,4.08,0,0,1-2.09-.32c-10.35-3.61-19-10.1-24-18a31.27,31.27,0,0,1-3.84-25.87c.11-.36.79-.33,1.25-.21,10.88,2.92,20.41,8.81,26.56,16.41s8.86,16.85,7.56,25.77C233.91,510.33,233.32,509.82,232.94,509.37Z"></path>
  <path transform="translate(-166.36 -201.67)"
    d="M746.94,932.5l-25.78-5.73c-2.42-.54-4.92-1.11-6.78-2.43a66,66,0,0,1,33.14-2.07c10.94,2.15,20.91,7.18,27.92,14.08a1.65,1.65,0,0,1,.64,1c0,.61-.77,1-1.46,1.33a62.18,62.18,0,0,1-33.5,4.07c-11.32-1.76-21.77-6.73-29-13.78,1.53-.9,3.69-.64,5.57-.29C727.39,930.51,737.06,933.26,746.94,932.5Z"></path>
  <path transform="translate(-166.36 -201.67)"
    d="M258.37,459.6c-1.06,0-1.08-1.24-.67-2A46.66,46.66,0,0,1,279.25,438a58.29,58.29,0,0,1,32.38-4.66c-2.6,8.74-9.12,16.73-18.16,22.27a61.25,61.25,0,0,1-32,8.45,2.43,2.43,0,0,1-.66-.07c-1.35-.39-.26-2,.92-2.63l21.22-11.58c1.22-.67,2.58-1.89,1.69-2.82l-25.47,12.4A1.74,1.74,0,0,1,258.37,459.6Z"></path>
  <path transform="translate(-166.36 -201.67)"
    d="M997.1,448.37c-1.18-.58-3.07-1-3.7-.06l25.85,14.7c0,.7-1.16.95-2,1a61,61,0,0,1-30.89-7.66c-8.85-5.11-15.46-12.54-18.49-20.8a1.88,1.88,0,0,1,0-1.8,3.45,3.45,0,0,1,2.53-.86,60.91,60.91,0,0,1,31.39,6.32c9.17,4.76,16.21,12,19.64,20.14-.8.5-2,.08-2.84-.35Z"></path>
  <path transform="translate(-166.36 -201.67)"
    d="M507.75,890.88c-8.2-5.24-14-12.72-16.13-20.82A29.66,29.66,0,0,1,495.93,846a2.65,2.65,0,0,1,2-1.43,3.18,3.18,0,0,1,1.65.57c17.14,10.1,24.45,29.25,17.19,45a1.58,1.58,0,0,1-.67.83c-1,.53-2.12-.65-2.46-1.59l-7.77-21.21c-1.76,2.62-.84,5.8.12,8.65l5,14.91A4.16,4.16,0,0,1,507.75,890.88Z"></path>
  <path transform="translate(-166.36 -201.67)"
    d="M245.71,390.25l14,19a3.75,3.75,0,0,1-2.76-.17c-19.54-6.7-32.46-23.65-30.71-40.25a2.28,2.28,0,0,1,.45-1.32c.82-.93,2.63-.74,4-.4,10.41,2.61,19.59,8.09,25.56,15.24a31.61,31.61,0,0,1,7.54,24.4,8.66,8.66,0,0,1-4.12-3.14l-13.93-16.42C244.43,387.7,245,389.25,245.71,390.25Z"></path>
  <path transform="translate(-166.36 -201.67)"
    d="M1035.68,386.35c-1.56-.2-2.8.95-3.69,2l-16.77,19.21a15.47,15.47,0,0,1-.61-4.63c-.08-15.78,14.08-31,33.33-35.79a5.69,5.69,0,0,1,2.42-.23c2.11.4,2.48,2.6,2.33,4.29-.82,9.67-3.81,19.67-12,27-5.18,4.65-12.08,7.88-18.86,11-1,.48-2.85.68-3-.25Q1027.33,397.66,1035.68,386.35Z"></path>
  <path transform="translate(-166.36 -201.67)"
    d="M780.48,844.46a2.56,2.56,0,0,1,2.15,1.42,30,30,0,0,1,4.19,24.23c-2.16,8.14-8,15.66-16.17,20.94-.8.52-2.26.92-2.67.17a1.07,1.07,0,0,1,0-.84l6.93-22.86c-2.1.4-3,2.28-3.6,3.9q-3.58,9.86-7.18,19.72c-2.18-.69-3.16-2.66-3.74-4.44-4.92-15.15,2.81-32.33,18.78-41.75A2.94,2.94,0,0,1,780.48,844.46Z"></path>
  <path transform="translate(-166.36 -201.67)"
    d="M399.05,809.57a70.83,70.83,0,0,0,1.52,20.36,6.22,6.22,0,0,1,.17,3.14c-8.21-5.93-13.48-14.27-14.52-23s2.18-17.65,8.85-24.65a3.23,3.23,0,0,1,2.73-1.29,3.07,3.07,0,0,1,1.51.88c7.21,6.51,12.06,14.69,13.22,23.25a30.66,30.66,0,0,1-7.76,24.55,183.67,183.67,0,0,1-3.53-19.91C401.08,811.61,400.67,810,399.05,809.57Z"></path>
  <path transform="translate(-166.36 -201.67)"
    d="M868.28,824.63c-5.54-13.52-1.1-29.25,11.21-39.69a2.89,2.89,0,0,1,1.47-.79,3,3,0,0,1,2.43,1.18c6.49,6.75,9.78,15.33,9.1,23.75s-5.31,16.62-12.83,22.68a1.81,1.81,0,0,1-1.39.52c-.74-.15-.78-1-.67-1.55a129.23,129.23,0,0,0,2.52-23.48c-1.9,2-2.4,4.52-2.84,7q-1.65,9.09-3.28,18.17A16.9,16.9,0,0,1,868.28,824.63Z"></path>
  <path transform="translate(-166.36 -201.67)"
    d="M234.57,560.5c2.69-8,9.07-15.31,17.72-20.16a56.49,56.49,0,0,1,30.11-6.69c1.23.07,2.89.66,2.47,1.57-4.28,9.14-10.31,18.27-20.48,23.91-7.22,4-16,5.93-24.56,7.63a4.2,4.2,0,0,1-2.14,0c-.66-.23-1-1-.49-1.38l22.17-15.49c.65-.46,1-1.57.17-1.57a144.61,144.61,0,0,0-24.19,15c-1.23-.48-1.13-1.87-.78-2.91Z"></path>
  <path transform="translate(-166.36 -201.67)"
    d="M1019.63,550.24l22.3,15.54c0,.8-1.4,1-2.42.93-21.51-2-40.54-15.3-45.4-31.78-.22-.74,1.08-1.15,2-1.2a55.82,55.82,0,0,1,30.65,6.88c8.73,5,15,12.58,17.41,20.86.25.86-.58,2.24-1.39,1.62a160.89,160.89,0,0,0-24.22-14.94C1018,548.82,1018.84,549.69,1019.63,550.24Z"></path>
  <path transform="translate(-166.36 -201.67)"
    d="M967.54,759.74c-14.8-12.11-19-31.39-10.14-46.63a2.22,2.22,0,0,1,.65-.79c.93-.64,2.38-.12,3.39.45,9,5,15.43,12.86,17.47,21.37s-.29,17.62-6.37,24.86q-2.62-11.32-5.24-22.65c-.18-.8-1.62-1.69-1.86-.9l1.86,14.83A32,32,0,0,1,967.54,759.74Z"></path>
  <path transform="translate(-166.36 -201.67)"
    d="M1022.79,287.44c-1-.72-2.6,0-3.61.73q-10.74,7.6-20.8,15.76c-1.22-.53-1-1.93-.59-3,2-5.25,4.09-10.59,8.05-15.11,8.12-9.29,23.18-13.68,37.58-13.88a3.35,3.35,0,0,1,1.1.11c1.25.4,1.07,1.82.66,2.83-.8,2-1.59,4-2.59,5.95-6.68,13.11-22.59,23.08-40.43,25.34-.77-.53-.07-1.49.62-2.08Z"></path>
  <path transform="translate(-166.36 -201.67)"
    d="M257.38,286.77c-1.2.24-.57,1.67.28,2.37L273.29,302c1.59,1.31,3.23,2.69,3.88,4.43-21.43-2.66-39.83-16.5-44.06-33.12-.17-.69,1-1.05,1.93-1.1,11-.57,22.15,2.29,30.56,7.8s13.95,13.62,15.13,22.14c.11.78-1.57.56-2.3,0Z"></path>
  <path transform="translate(-166.36 -201.67)"
    d="M313.54,734.06c-2.18,1-2.75,3.22-3.13,5.17q-1.89,9.84-4.57,19.57c-6-7.33-8.15-16.47-6-25s8.65-16.32,17.73-21.32a3,3,0,0,1,2.51-.45,2,2,0,0,1,.85.89c9,15,5.11,34.19-9.41,46.3-1.26-.3-1.37-1.65-1.22-2.67Z"></path>
  <path transform="translate(-166.36 -201.67)"
    d="M250.66,665.36q5.75-8.82,12.48-17.24c.61-.77,1.15-1.91.22-2.44-7.24,6.4-12.6,14-17.59,21.54-4-11.76,2-25.17,14.47-32.47,4.69-2.75,10.08-4.64,15.44-6.5a8.69,8.69,0,0,1,3.27-.67c1.14.06,2.31.69,2.38,1.58.79,10.8-4.4,21.79-14,29.59-5,4.08-11.1,7.27-17.18,10.36C249.15,668,249.89,666.55,250.66,665.36Z"></path>
  <path transform="translate(-166.36 -201.67)"
    d="M1031.21,665a83.41,83.41,0,0,0-15.49-18.9c-.81.38-.46,1.35,0,2,4.72,6.83,10.06,13.43,13.73,20.64-19.65-6.46-33.12-23-32.29-39.6.05-1.09,2-1.27,3.38-1.06,10.45,1.63,20,6.51,26.11,13.33s8.67,15.52,7,23.74a1.11,1.11,0,0,1-.51.86C1032.41,666.39,1031.58,665.64,1031.21,665Z"></path>
  <path transform="translate(-166.36 -201.67)"
    d="M225.31,683.15c.41.69.7,1.69-.16,2.05-8.2,3.44-18.78,2.16-26.38-2a33.54,33.54,0,0,1-15.1-17.86,2.23,2.23,0,0,1,.05-2.3,3.83,3.83,0,0,1,2.35-.9c9.05-1.24,18.76.81,25.76,5.46C218,671.66,221.88,677.43,225.31,683.15Z"></path>
  <path transform="translate(-166.36 -201.67)"
    d="M277.11,788a34,34,0,0,1-15.68-3.52,62.45,62.45,0,0,1-12.55-8.39c-1-.85-2.15-2-1.69-3.08.38-.94,1.68-1.41,2.85-1.77a62.59,62.59,0,0,1,12.86-3.05c12.14-1.14,23.75,4.61,32,11.7a2.5,2.5,0,0,1,.92,1.17c.26,1.05-1.08,1.88-2.26,2.42C288.45,785.74,283,787.76,277.11,788Z"></path>
  <path transform="translate(-166.36 -201.67)"
    d="M1094.57,662.62c.72.63.51,1.6.22,2.41a33.1,33.1,0,0,1-14.56,17.85c-7.41,4.26-17.8,5.72-26,2.51-.55-.22-1.16-.53-1.22-1a1.3,1.3,0,0,1,.24-.74c4.13-7.13,9.14-14.46,17.72-18.5,6.37-3,14.14-3.82,21.53-3.15A3.76,3.76,0,0,1,1094.57,662.62Z"></path>
  <path transform="translate(-166.36 -201.67)"
    d="M971.86,316.86a5.58,5.58,0,0,1-3.16.58c-10.48-.25-20.55-5.27-25.27-12.57-3-4.58-3.86-9.79-4.48-14.9a2.5,2.5,0,0,1,.09-1.33c.56-1.27,2.76-1.44,4.48-1.28,10.41,1,20,6.33,24.6,13.67,2.37,3.77,3.48,7.93,4.51,12C973,314.39,973.17,316,971.86,316.86Z"></path>
  <path transform="translate(-166.36 -201.67)"
    d="M307,317.23a1.89,1.89,0,0,1-1-2.1,28.36,28.36,0,0,1,8.47-18.8,33.07,33.07,0,0,1,22.31-9c1.06,0,2.34.13,2.78.89a1.83,1.83,0,0,1,.13,1.2c-.62,4.93-1.27,10-3.87,14.49-4.75,8.24-16.22,13.81-27.78,13.48A3.21,3.21,0,0,1,307,317.23Z"></path>
  <path transform="translate(-166.36 -201.67)"
    d="M1031.48,773.6a1.81,1.81,0,0,1-.63,1,50.45,50.45,0,0,1-13.39,9.82,34.34,34.34,0,0,1-17.58,3.46c-5.52-.49-10.59-2.55-15.36-4.78-.72-.34-1.5-.74-1.71-1.37-.28-.84.55-1.63,1.32-2.25,5.11-4.12,10.89-7.92,17.78-9.91a39.68,39.68,0,0,1,28.2,2.57C1030.8,772.46,1031.54,773,1031.48,773.6Z"></path>
  <path transform="translate(-166.36 -201.67)"
    d="M177.53,544.4c.75-.86,2.36-.82,3.66-.63,11.13,1.64,20.79,8.34,24.19,16.77,1.57,3.87,1.88,8,2,12a2,2,0,0,1-.73,2,3.48,3.48,0,0,1-1.63.33c-8.85.22-17.43-3.71-22.43-9.41a24.05,24.05,0,0,1-5.56-19.82A2.35,2.35,0,0,1,177.53,544.4Z"></path>
  <path transform="translate(-166.36 -201.67)"
    d="M930.44,858.55a2.23,2.23,0,0,1-1.06.93c-4.76,2.65-9.74,5.22-15.35,6.51-11.56,2.65-25-1-32-8.7a1.11,1.11,0,0,1-.39-.74c0-.35.4-.62.75-.84a46.28,46.28,0,0,1,24.2-7c8.76,0,17.61,2.94,23.12,8.26C930.17,857.45,930.63,858,930.44,858.55Z"></path>
  <path transform="translate(-166.36 -201.67)"
    d="M1101.77,545.82a31.22,31.22,0,0,1-2.09,13.71,22.9,22.9,0,0,1-10.06,11.15,38.56,38.56,0,0,1-8.3,3.17,31,31,0,0,1-8,1.35,2.56,2.56,0,0,1-1.45-.29,1.49,1.49,0,0,1-.51-1.12,24.88,24.88,0,0,1,5.62-19.13c4.64-5.59,12.17-9.79,20.58-10.95,1.38-.2,3.12-.19,3.83.75A2.36,2.36,0,0,1,1101.77,545.82Z"></path>
  <path transform="translate(-166.36 -201.67)"
    d="M348.18,858.33c-.12-.49.3-1,.7-1.35,5.55-5.31,14.42-8.22,23.19-8.23a46.08,46.08,0,0,1,24.2,7c.4.26.84.57.86,1s-.36.74-.71,1c-6.23,5-14.21,9.31-23.12,9.32-5.13,0-10.09-1.43-14.74-3.12a38.84,38.84,0,0,1-9.6-4.72A1.79,1.79,0,0,1,348.18,858.33Z"></path>
  <path transform="translate(-166.36 -201.67)"
    d="M815.08,923.11c0,1.08-1.44,1.76-2.69,2.22-6.89,2.52-14.36,4.72-21.93,4.09-8.81-.74-16.48-5.27-21.91-10.74-.76-.77-1.5-1.85-.78-2.63a3,3,0,0,1,1-.62A52.81,52.81,0,0,1,790,911.27a37.61,37.61,0,0,1,5.53.43c7.35,1.19,13.45,5.19,18.35,9.63A2.74,2.74,0,0,1,815.08,923.11Z"></path>
  <path transform="translate(-166.36 -201.67)"
    d="M463.83,923a1.81,1.81,0,0,1,.45-.85c4.52-5.69,12.49-9.5,21-10.55a46.54,46.54,0,0,1,24.7,3.92,2.3,2.3,0,0,1,.83.54c.45.54.09,1.26-.31,1.82-4.14,5.92-12,10.06-20.52,11.2a41.54,41.54,0,0,1-24.62-4.42C464.56,924.26,463.75,923.7,463.83,923Z"></path>
  <path transform="translate(-166.36 -201.67)"
    d="M285.7,424.07c-1.07-.89-.6-2.32-.05-3.46,2.62-5.43,6-10.9,11.73-14.57,7-4.43,16.57-5.61,25.48-4.77.81.08,1.75.24,2.1.82a1.53,1.53,0,0,1-.1,1.36,45.61,45.61,0,0,1-2.68,5.55c-3.16,5.55-7.87,10.88-14.82,13.63-5.72,2.26-12.39,2.56-18.79,2.2A5,5,0,0,1,285.7,424.07Z"></path>
  <path transform="translate(-166.36 -201.67)"
    d="M991.9,424.58a5.79,5.79,0,0,1-2,.31c-6,.17-12.15.07-17.61-1.83-9.38-3.27-14.64-11.09-18-18.68-.42-.95-.7-2.22.37-2.78a3.73,3.73,0,0,1,1.51-.29c5.75-.29,11.67-.41,17.1,1.1,9.74,2.71,16,10.19,19.44,17.82C993.35,421.74,993.69,423.8,991.9,424.58Z"></path>
  <path transform="translate(-166.36 -201.67)"
    d="M202.81,437.2c.11-.91,1.3-1.56,2.47-1.64a8.93,8.93,0,0,1,3.39.65c4.86,1.63,9.64,3.64,13.26,6.65,6.73,5.61,8.46,13.92,7.61,21.58a3.72,3.72,0,0,1-1.26,2.8c-1.62,1.21-4.27.54-6.28-.23-4.87-1.85-9.74-4-13.21-7.22C202.31,453.73,201.94,445.07,202.81,437.2Z"></path>
  <path transform="translate(-166.36 -201.67)"
    d="M1051.18,468a2.2,2.2,0,0,1-1.34-1.64,21.45,21.45,0,0,1,2.89-18.91c4-5.7,11-10.11,19.15-11.57a4.23,4.23,0,0,1,2.09,0,2.73,2.73,0,0,1,1.58,2.43,37,37,0,0,1,.73,7.1c-.28,10.44-10.48,20.24-23.52,22.58A3.52,3.52,0,0,1,1051.18,468Z"></path>
  <path transform="translate(-166.36 -201.67)"
    d="M258.3,521c2.22-4.07,4.67-8.2,8.75-11.28,6.86-5.16,17.25-6.44,26.71-5.55a3,3,0,0,1,1.08.23c.87.42.83,1.4.65,2.18-1.49,6.23-6.09,12-12.61,15.75a40,40,0,0,1-23,4.83,3,3,0,0,1-2.75-2.62A6.5,6.5,0,0,1,258.3,521Z"></path>
  <path transform="translate(-166.36 -201.67)"
    d="M706.83,889.39a18.47,18.47,0,0,1-5.12,14.44c-3.49,3.79-8.45,6.59-13.45,9.16a1.44,1.44,0,0,1-.79.21,1.08,1.08,0,0,1-.71-.55c-3.91-5.85-5.7-12.8-3.28-19.12,2.48-6.49,9-11.57,16.16-15.46,1.52-.83,3.32.74,4,2.09A25.59,25.59,0,0,1,706.83,889.39Z"></path>
  <path transform="translate(-166.36 -201.67)"
    d="M1017.62,527.27c-9-.08-18.46-1.83-24.93-6.73-4.68-3.54-7.36-8.39-9.45-13.22-.42-.95-.7-2.21.36-2.79a3.6,3.6,0,0,1,1.3-.32,49.18,49.18,0,0,1,13.71.4,33.34,33.34,0,0,1,9.74,3.1c6.79,3.53,10.67,9.65,12.73,15.81.35,1.05.59,2.31-.37,3.08A5,5,0,0,1,1017.62,527.27Z"></path>
  <path transform="translate(-166.36 -201.67)"
    d="M586.14,911c-6.53-4.16-12.66-9.41-14-15.9a19.71,19.71,0,0,1,.18-7.65,21.05,21.05,0,0,1,3.21-8.35A2.26,2.26,0,0,1,577,878a3,3,0,0,1,1.48.26c7.34,2.71,13.2,7.77,15.93,13.74a19.62,19.62,0,0,1-1.18,18.51,4,4,0,0,1-1.59,1.63C589.87,913,587.7,912,586.14,911Z"></path>
  <path transform="translate(-166.36 -201.67)"
    d="M471.16,825.28c7,5.44,13.44,12.4,13,20.14-.21,3.84-2.1,7.49-4,11.05a6.14,6.14,0,0,1-1.77,2.34,3.37,3.37,0,0,1-3.21.45c-6.93-3.32-12-8.89-13.79-15.08A19.75,19.75,0,0,1,465.67,826a4,4,0,0,1,3.24-1.76,4.28,4.28,0,0,1,2.25,1.08Z"></path>
  <path transform="translate(-166.36 -201.67)"
    d="M813,826.15c1.94,3.05,3.91,6.15,4.72,9.5,2.14,8.81-4.33,17.84-13.47,23.27-1,.59-2.55,1.11-3.34.35A19.16,19.16,0,0,1,795.17,841c1.49-6.35,6.36-12.12,13-16a4.14,4.14,0,0,1,2.5-.75A3.41,3.41,0,0,1,813,826.15Z"></path>
  <path transform="translate(-166.36 -201.67)"
    d="M373.24,761.18a3.9,3.9,0,0,1,2.85,1.17c5.3,4.46,8.3,10.55,8.2,16.63s-3.3,12.12-8.75,16.47a2.7,2.7,0,0,1-3.9.13c-6-4.23-9.56-10.47-9.58-16.78s3.49-12.56,9.44-16.82A3.87,3.87,0,0,1,373.24,761.18Z"></path>
  <path transform="translate(-166.36 -201.67)"
    d="M256.22,363.88a2.57,2.57,0,0,1-.79,1.42c-1,.77-2.56.55-3.87.24-9.34-2.21-18.26-6.94-21.87-14-2-3.94-2.22-8.28-2.35-12.52a2,2,0,0,1,.55-1.76,3.69,3.69,0,0,1,2.52-.41,37.91,37.91,0,0,1,12.72,3.31C253.2,344.9,258.71,354.89,256.22,363.88Z"></path>
  <path transform="translate(-166.36 -201.67)"
    d="M1051.41,338.78c-.17,5.4-1,11-4.45,15.66-4.43,5.94-12.73,9.63-21.29,11.21a3.6,3.6,0,0,1-2.69-.23,2,2,0,0,1-.66-1.17c-1.69-6.29.23-13.13,5.13-18.3s12.72-8.59,20.93-9.16a3.42,3.42,0,0,1,2.68.58A1.92,1.92,0,0,1,1051.41,338.78Z"></path>
  <path transform="translate(-166.36 -201.67)"
    d="M905.3,761.14a3.23,3.23,0,0,1,1.32.59c6.14,4.11,9.87,10.34,10,16.65s-3.46,12.6-9.48,16.82a4,4,0,0,1-2.69.91,3.54,3.54,0,0,1-1.73-.92c-5.29-4.45-8.32-10.49-8.29-16.56s3.12-12.1,8.46-16.52A3.29,3.29,0,0,1,905.3,761.14Z"></path>
  <path transform="translate(-166.36 -201.67)"
    d="M283.14,603.43a31.66,31.66,0,0,1-2.48,7.51c-4.16,8.28-14.65,14.39-26,15.13a4,4,0,0,1-2.55-.42,2.2,2.2,0,0,1-.75-1.69c-.64-6.31,2.33-12.79,7.95-17.35s13.79-7.13,21.89-6.88a2.24,2.24,0,0,1,2,1.44A4,4,0,0,1,283.14,603.43Z"></path>
  <path transform="translate(-166.36 -201.67)"
    d="M1026.37,626a2,2,0,0,1-1.34.24,36.15,36.15,0,0,1-20.72-7.51c-5.39-4.4-8.58-10.41-8.74-16.49a2.47,2.47,0,0,1,1.24-2.58,4.7,4.7,0,0,1,2.39-.08,67.94,67.94,0,0,1,11.13,2.25c11.4,3.69,18.59,14,16.4,23.47A1.14,1.14,0,0,1,1026.37,626Z"></path>
  <path transform="translate(-166.36 -201.67)"
    d="M988.87,715.58A5.64,5.64,0,0,1,987.3,718a3.32,3.32,0,0,1-3.17.55c-6.89-3-12.28-8-14.82-13.88a20.32,20.32,0,0,1,.89-18,2,2,0,0,1,.61-.75c.78-.51,2-.15,2.85.24,8.15,3.6,15.68,9.17,17.29,16.37C991.93,706.86,990.62,711.35,988.87,715.58Z"></path>
  <path transform="translate(-166.36 -201.67)"
    d="M307.43,685.88a2.22,2.22,0,0,1,.95,1,19.85,19.85,0,0,1,.91,18c-2.58,5.8-8,10.78-15,13.66a3.24,3.24,0,0,1-3.06-.56,5.61,5.61,0,0,1-1.52-2.32c-1.59-3.68-3-7.5-2.6-11.37.8-7.81,8.83-14,17.48-18A3.49,3.49,0,0,1,307.43,685.88Z"></path>
  <path transform="translate(-166.36 -201.67)"
    d="M1016.87,268.8c-3.66-6.25-2.53-14,2.82-19.49a31.76,31.76,0,0,1,6.13-4.67,59.2,59.2,0,0,1,8.27-4.16,3.28,3.28,0,0,1,2.77-.19,2.07,2.07,0,0,1,.61.71,14.8,14.8,0,0,1,1.8,11c-1.67,7-8.49,12.71-16.09,16.71a9.09,9.09,0,0,1-3.25,1.16A3.25,3.25,0,0,1,1016.87,268.8Z"></path>
  <path transform="translate(-166.36 -201.67)"
    d="M243.61,240.28c5.16,2.06,10.14,4.54,14,7.92s6.49,7.76,6.42,12.29c0,2.9-1.18,5.71-2.32,8.47a2.37,2.37,0,0,1-2.23,1.05,7.24,7.24,0,0,1-2.61-.72c-6.41-2.76-12.09-6.8-15.27-12s-3.61-11.47-.23-16.55a1.58,1.58,0,0,1,.87-.73A2.22,2.22,0,0,1,243.61,240.28Z"></path>
  <path transform="translate(-166.36 -201.67)"
    d="M416.54,1052a23,23,0,0,1-9.37,19q-9.39,7.29-23.4,7.29a51.14,51.14,0,0,1-27.85-8.14l5.11-10.8a38.2,38.2,0,0,0,23.5,8.14q9.27,0,14.58-4.07a13,13,0,0,0,5.31-10.89q0-11.37-18.19-17.24-26.72-8.53-26.71-26.15a21.81,21.81,0,0,1,8.33-17.52q8.34-6.92,21.79-6.92t23.3,6.06l-5.11,9.48a41,41,0,0,0-18.38-4.74q-8.15,0-13.16,3.69t-5,9q0,10.42,18.27,16.3,14.84,4.73,20.93,11T416.54,1052Z"
    class="cls-1"></path>
  <path transform="translate(-166.36 -201.67)"
    d="M484.37,1076.63H430.94V986.45h53.43v10.23H442.69V1024h37.13v10.23H442.69v32.21h41.68Z"
    class="cls-1"></path>
  <path transform="translate(-166.36 -201.67)"
    d="M567,1071.89q-13.83,6.06-33,6.06-18,0-28.89-12.79t-10.89-33.43q0-20.46,10.61-33,11.74-13.63,32.77-13.64A76.14,76.14,0,0,1,567,990.61l-3.79,9.48a64.88,64.88,0,0,0-25.2-4.74q-17.43,0-25.58,12.88-6.06,9.48-6.06,23.87,0,13.28,6.63,23.12,8.34,12.49,23.49,12.5,15.74,0,27.29-5.68Z"
    class="cls-1"></path>
  <path transform="translate(-166.36 -201.67)"
    d="M653,1038.17q0,40.17-36.19,40.16t-36.18-40.16V986.45h12.12v51.72q0,29.92,24.06,29.93t24.06-29.93V986.45H653Z"
    class="cls-1"></path>
  <path transform="translate(-166.36 -201.67)"
    d="M734.44,1076.63H722.51q-5.14-39.23-23.61-39.22H683.67v39.22H671.92V988.15a139.25,139.25,0,0,1,24.44-2.46q16.1,0,25.58,6.79a21.59,21.59,0,0,1,9.47,18.49q0,15.48-14.78,22.27a30.74,30.74,0,0,1,10.9,13.83Q731.4,1056.16,734.44,1076.63Zm-14.78-65q0-15.72-23.49-15.72a112.24,112.24,0,0,0-12.5.57v31.07h14.59Q719.67,1027.56,719.66,1011.64Z"
    class="cls-1"></path>
  <path transform="translate(-166.36 -201.67)" d="M758.5,1076.63H746.75V986.45H758.5Z" class="cls-1"></path>
  <path transform="translate(-166.36 -201.67)"
    d="M814,1076.63H802.26v-80H768.92V986.45H847v10.23H814Z" class="cls-1"></path>
  <path transform="translate(-166.36 -201.67)"
    d="M891.49,1076.63H879.75v-39.41l-33-50.77h13.83l25,40.54,24.82-40.54h13.64L891.49,1037Z"
    class="cls-1"></path>
</svg>