<svg xmlns="http://www.w3.org/2000/svg" viewBox="0 0 494.66 297.35"><defs><style>.cls-1,.cls-3,.cls-6,.cls-7{fill:#fff;}.cls-2{stroke:#fff;stroke-miterlimit:10;stroke-width:5px;}.cls-3,.cls-6{font-size:23.92px;}.cls-3,.cls-7{font-family:Roboto-Bold, Roboto;font-weight:700;}.cls-4{letter-spacing:-0.01em;}.cls-5{letter-spacing:0em;}.cls-6{font-family:Roboto-Regular, Roboto;}.cls-7{font-size:54.69px;}.cls-8{letter-spacing:-0.03em;}</style></defs><title>Logo_BW</title><g id="Layer_1" data-name="Layer 1"><polygon points="67.98 175.23 130.78 175.23 130.78 212.9 67.98 175.23"/><path class="cls-1" d="M128.28,177.73v30.76L77,177.73h51.27m5-5H59L74.44,182l51.26,30.77,7.58,4.54V172.73Z"/><polygon points="17.65 215.54 39.62 182.6 6.04 149.02 76.09 149.02 76.09 180.87 133.89 215.54 17.65 215.54"/><path class="cls-1" d="M73.59,151.52v30.76L124.86,213H22.32l20.51-30.76L12.07,151.52H73.59m5-5H0l8.54,8.54L36.4,182.92,18.16,210.27,13,218H142.91l-15.48-9.28L78.59,179.45V146.52Z"/><polygon points="362.75 175.23 425.54 175.23 362.75 212.9 362.75 175.23"/><path class="cls-1" d="M416.51,177.73l-51.26,30.76V177.73h51.26m18.06-5H360.25v44.59l7.57-4.54L419.09,182l15.48-9.28Z"/><polygon points="360.78 215.54 418.57 180.87 418.57 149.02 488.63 149.02 455.05 182.6 477.01 215.54 360.78 215.54"/><path class="cls-1" d="M482.59,151.52l-30.76,30.76L472.34,213H369.8l51.27-30.76V151.52h61.52m12.07-5H416.07v32.93l-48.84,29.31L351.75,218H481.68l-5.18-7.77-18.23-27.35,27.86-27.86,8.53-8.54Z"/><polygon points="247.19 0 134.4 61.52 134.4 235.83 247.19 297.35 359.98 235.83 359.98 61.52 247.19 0"/><polygon class="cls-2" points="247.19 19.42 149.13 72.9 149.13 224.45 247.19 277.93 345.25 224.45 345.25 72.9 247.19 19.42"/><rect class="cls-2" x="76.58" y="102.54" width="341.23" height="71.77"/><text class="cls-3" transform="translate(204.5 145.41)">Kru<tspan class="cls-4" x="37.3" y="0">P</tspan><tspan class="cls-5" x="52.6" y="0">aul</tspan></text><text class="cls-6" transform="translate(198.8 212)">Business</text><text class="cls-7" transform="translate(213.44 90.7)">P<tspan class="cls-8" x="35.27" y="0">T</tspan></text><polygon class="cls-1" points="186.38 67.42 189.61 73.97 196.83 75.01 191.6 80.11 192.84 87.31 186.38 83.91 179.92 87.31 181.15 80.11 175.92 75.01 183.15 73.97 186.38 67.42"/><polygon class="cls-1" points="305.46 67.42 308.69 73.97 315.92 75.01 310.69 80.11 311.93 87.31 305.46 83.91 299 87.31 300.24 80.11 295.01 75.01 302.23 73.97 305.46 67.42"/><polygon class="cls-1" points="247.08 232.16 250.31 238.7 257.53 239.75 252.31 244.85 253.54 252.04 247.08 248.65 240.62 252.04 241.85 244.85 236.62 239.75 243.85 238.7 247.08 232.16"/></g></svg>